<svg width="61" height="54" viewBox="0 0 61 54" fill="none" xmlns="http://www.w3.org/2000/svg">
<g clip-path="url(#clip0_2_3830)">
<path d="M11.7886 54.0004C11.0963 54.0004 10.6348 53.5504 10.6348 52.8754V33.7504C10.6348 33.0754 11.0963 32.6254 11.7886 32.6254C12.4809 32.6254 12.9425 33.0754 12.9425 33.7504V52.8754C12.9425 53.5504 12.4809 54.0004 11.7886 54.0004Z" fill="white"/>
<path d="M11.7885 12.375C8.327 12.375 5.44238 9.5625 5.44238 6.1875C5.44238 2.8125 8.327 0 11.7885 0C15.2501 0 18.1347 2.8125 18.1347 6.1875C18.1347 9.5625 15.2501 12.375 11.7885 12.375ZM11.7885 2.25C9.59623 2.25 7.75007 4.05 7.75007 6.1875C7.75007 8.325 9.59623 10.125 11.7885 10.125C13.9808 10.125 15.827 8.325 15.827 6.1875C15.827 4.05 13.9808 2.25 11.7885 2.25Z" fill="white"/>
<path d="M16.4038 53.9993H7.17308C5.90385 53.9993 4.86539 52.9868 4.86539 51.7493V35.3243C2.21154 34.7618 0.25 32.5118 0.25 29.8118V19.1243C0.25 14.5118 4.98077 11.2493 11.7885 11.2493H31.4038C33.3654 11.2493 34.8654 12.7118 34.8654 14.6243C34.8654 16.5368 33.3654 17.9993 31.4038 17.9993H19.8654C19.1731 17.9993 18.7115 18.4493 18.7115 19.1243V51.7493C18.7115 52.9868 17.6731 53.9993 16.4038 53.9993ZM7.17308 34.3118V51.7493H16.4038V19.1243C16.4038 17.2118 17.9038 15.7493 19.8654 15.7493H31.4038C32.0962 15.7493 32.5577 15.2993 32.5577 14.6243C32.5577 13.9493 32.0962 13.4993 31.4038 13.4993H11.7885C7.28846 13.4993 2.55769 15.2993 2.55769 19.1243V29.8118C2.55769 31.2743 3.48077 32.5118 4.86539 32.9618V20.2493C4.86539 19.5743 5.32692 19.1243 6.01923 19.1243C6.71154 19.1243 7.17308 19.5743 7.17308 20.2493V34.3118Z" fill="white"/>
<path d="M59.096 38.2493H22.1729C21.4806 38.2493 21.0191 37.7993 21.0191 37.1243C21.0191 36.4493 21.4806 35.9993 22.1729 35.9993H57.9422V6.74927H21.0191C20.3268 6.74927 19.8652 6.29927 19.8652 5.62427C19.8652 4.94927 20.3268 4.49927 21.0191 4.49927H59.096C59.7883 4.49927 60.2498 4.94927 60.2498 5.62427V37.1243C60.2498 37.7993 59.7883 38.2493 59.096 38.2493Z" fill="#12284C"/>
<path d="M36.0191 54.0007C35.3268 54.0007 34.8652 53.5507 34.8652 52.8757V37.1257C34.8652 36.4507 35.3268 36.0007 36.0191 36.0007C36.7114 36.0007 37.1729 36.4507 37.1729 37.1257V52.8757C37.1729 53.5507 36.7114 54.0007 36.0191 54.0007Z" fill="#12284C"/>
<path d="M44.0958 54C43.7496 54 43.5188 53.8875 43.2881 53.6625L36.0189 46.575L28.7496 53.6625C28.2881 54.1125 27.5958 54.1125 27.1342 53.6625C26.6727 53.2125 26.6727 52.5375 27.1342 52.0875L35.2112 44.2125C35.6727 43.7625 36.365 43.7625 36.8265 44.2125L44.9035 52.0875C45.365 52.5375 45.365 53.2125 44.9035 53.6625C44.6727 53.8875 44.4419 54 44.0958 54Z" fill="#12284C"/>
<path d="M24.481 31.5C24.1348 31.5 23.9041 31.3875 23.6733 31.1625C23.2118 30.7125 23.2118 30.0375 23.6733 29.5875L30.5964 22.8375C31.0579 22.3875 31.7502 22.3875 32.2118 22.8375L36.0195 26.55L49.0579 13.8375C49.5195 13.3875 50.2118 13.3875 50.6733 13.8375C51.1349 14.2875 51.1349 14.9625 50.6733 15.4125L36.8272 28.9125C36.3656 29.3625 35.6733 29.3625 35.2118 28.9125L31.4041 25.2L25.2887 31.1625C25.0579 31.3875 24.8271 31.5 24.481 31.5Z" fill="#12284C"/>
<path d="M49.865 22.5C49.1727 22.5 48.7112 22.05 48.7112 21.375V15.75H42.9419C42.2496 15.75 41.7881 15.3 41.7881 14.625C41.7881 13.95 42.2496 13.5 42.9419 13.5H49.865C50.5573 13.5 51.0189 13.95 51.0189 14.625V21.375C51.0189 22.05 50.5573 22.5 49.865 22.5Z" fill="#12284C"/>
</g>
<defs>
<clipPath id="clip0_2_3830">
<rect width="60" height="54" fill="white" transform="translate(0.25)"/>
</clipPath>
</defs>
</svg>
