<svg width="55" height="60" viewBox="0 0 55 60" fill="none" xmlns="http://www.w3.org/2000/svg">
<g clip-path="url(#clip0_2_6494)">
<path d="M13.0227 13.8462H1.97727C1.24091 13.8462 0.75 13.3846 0.75 12.6923C0.75 12 1.24091 11.5385 1.97727 11.5385H13.0227V1.15385C13.0227 0.461538 13.5136 0 14.25 0C14.9864 0 15.4773 0.461538 15.4773 1.15385V11.5385C15.4773 12.8077 14.3727 13.8462 13.0227 13.8462Z" fill="#12284C"/>
<path d="M47.3864 60H3.20455C1.85455 60 0.75 58.9615 0.75 57.6923V12.6923C0.75 12.3462 0.872727 12.1154 1.11818 11.8846L13.3909 0.346154C13.6364 0.115385 13.8818 0 14.25 0H47.3864C48.7364 0 49.8409 1.03846 49.8409 2.30769V8.07692C49.8409 8.76923 49.35 9.23077 48.6136 9.23077C47.8773 9.23077 47.3864 8.76923 47.3864 8.07692V2.30769H14.7409L3.20455 13.1538V57.6923H47.3864V35.7692C47.3864 35.0769 47.8773 34.6154 48.6136 34.6154C49.35 34.6154 49.8409 35.0769 49.8409 35.7692V57.6923C49.8409 58.9615 48.7364 60 47.3864 60Z" fill="#12284C"/>
<path d="M21.6133 46.1534H9.34055C8.60419 46.1534 8.11328 45.6919 8.11328 44.9995C8.11328 44.3072 8.60419 43.8457 9.34055 43.8457H21.6133C22.3496 43.8457 22.8406 44.3072 22.8406 44.9995C22.8406 45.6919 22.3496 46.1534 21.6133 46.1534Z" fill="#12284C"/>
<path d="M21.6133 50.7699H9.34055C8.60419 50.7699 8.11328 50.3083 8.11328 49.616C8.11328 48.9237 8.60419 48.4622 9.34055 48.4622H21.6133C22.3496 48.4622 22.8406 48.9237 22.8406 49.616C22.8406 50.3083 22.3496 50.7699 21.6133 50.7699Z" fill="#12284C"/>
<path d="M41.25 46.1534H28.9773C28.2409 46.1534 27.75 45.6919 27.75 44.9995C27.75 44.3072 28.2409 43.8457 28.9773 43.8457H41.25C41.9864 43.8457 42.4773 44.3072 42.4773 44.9995C42.4773 45.6919 41.9864 46.1534 41.25 46.1534Z" fill="#12284C"/>
<path d="M41.25 50.7699H28.9773C28.2409 50.7699 27.75 50.3083 27.75 49.616C27.75 48.9237 28.2409 48.4622 28.9773 48.4622H41.25C41.9864 48.4622 42.4773 48.9237 42.4773 49.616C42.4773 50.3083 41.9864 50.7699 41.25 50.7699Z" fill="#12284C"/>
<path d="M16.7042 41.9992H9.34055C8.60419 41.9992 8.11328 41.4981 8.11328 40.7464V30.7246C8.11328 29.973 8.60419 29.4719 9.34055 29.4719H16.7042C17.4406 29.4719 17.9315 29.973 17.9315 30.7246V40.7464C17.9315 41.4981 17.4406 41.9992 16.7042 41.9992ZM10.5678 39.4937H15.4769V31.9774H10.5678V39.4937Z" fill="white"/>
<path d="M24.0675 42H16.7038C15.9675 42 15.4766 41.4989 15.4766 40.7472V20.7037C15.4766 19.952 15.9675 19.4509 16.7038 19.4509H21.6129C22.3493 19.4509 22.8402 19.952 22.8402 20.7037C22.8402 21.4553 22.3493 21.9564 21.6129 21.9564H17.9311V39.4945H24.0675C24.8038 39.4945 25.2947 39.9956 25.2947 40.7472C25.2947 41.4989 24.8038 42 24.0675 42Z" fill="white"/>
<path d="M37.5677 31.9781C30.8177 31.9781 25.2949 26.3408 25.2949 19.4508C25.2949 12.5608 30.8177 6.92358 37.5677 6.92358C44.3177 6.92358 49.8404 12.5608 49.8404 19.4508C49.8404 26.3408 44.3177 31.9781 37.5677 31.9781ZM37.5677 9.42903C32.1677 9.42903 27.7495 13.9388 27.7495 19.4508C27.7495 24.9628 32.1677 29.4726 37.5677 29.4726C42.9677 29.4726 47.3858 24.9628 47.3858 19.4508C47.3858 13.9388 42.9677 9.42903 37.5677 9.42903Z" fill="white"/>
<path d="M53.5226 36.9882C53.1544 36.9882 52.9089 36.8629 52.6635 36.6124L44.5635 28.3444C44.0726 27.8433 44.0726 27.0917 44.5635 26.5906C45.0544 26.0895 45.7908 26.0895 46.2817 26.5906L54.3817 34.8586C54.8726 35.3597 54.8726 36.1113 54.3817 36.6124C54.1362 36.8629 53.8907 36.9882 53.5226 36.9882Z" fill="white"/>
<path d="M38.795 41.9998H31.4314C30.695 41.9998 30.2041 41.4987 30.2041 40.7471V34.4834C30.2041 33.7318 30.695 33.2307 31.4314 33.2307C32.1677 33.2307 32.6586 33.7318 32.6586 34.4834V39.4943H37.5677V35.7362C37.5677 34.9845 38.0586 34.4834 38.795 34.4834C39.5314 34.4834 40.0223 34.9845 40.0223 35.7362V40.7471C40.0223 41.4987 39.5314 41.9998 38.795 41.9998Z" fill="white"/>
<path d="M31.4317 41.9989H24.0681C23.3317 41.9989 22.8408 41.4979 22.8408 40.7462V28.219C22.8408 27.4673 23.3317 26.9662 24.0681 26.9662C24.8045 26.9662 25.2954 27.4673 25.2954 28.219V39.4935H30.2045V34.4826C30.2045 33.731 30.6954 33.2299 31.4317 33.2299C32.1681 33.2299 32.659 33.731 32.659 34.4826V40.7462C32.659 41.4979 32.1681 41.9989 31.4317 41.9989Z" fill="white"/>
<path d="M36.3407 24.4612C35.9726 24.4612 35.7271 24.3359 35.4816 24.0853L31.7998 20.3272C31.3089 19.8261 31.3089 19.0744 31.7998 18.5733C32.2907 18.0723 33.0271 18.0723 33.518 18.5733L36.3407 21.4546L41.618 16.0679C42.1089 15.5668 42.8453 15.5668 43.3362 16.0679C43.8271 16.569 43.8271 17.3206 43.3362 17.8217L37.1998 24.0853C36.9544 24.3359 36.7089 24.4612 36.3407 24.4612Z" fill="white"/>
</g>
<defs>
<clipPath id="clip0_2_6494">
<rect width="54" height="60" fill="white" transform="translate(0.75)"/>
</clipPath>
</defs>
</svg>
