<svg width="61" height="42" viewBox="0 0 61 42" fill="none" xmlns="http://www.w3.org/2000/svg">
<g clip-path="url(#clip0_2_3728)">
<path d="M30.75 31.0225C30.65 31.0225 30.65 31.0225 30.55 31.0225C29.45 30.927 28.45 30.5452 27.75 29.7816L5.05 5.82247C4.65 5.44065 4.65 4.77247 5.05 4.4861C5.45 4.10428 6.05 4.19974 6.45 4.58156L29.25 28.5407C29.65 28.9225 30.15 29.1134 30.65 29.2088C31.15 29.2088 31.65 29.0179 32.05 28.7316L32.15 28.6361L55.05 4.4861C55.45 4.10428 56.05 4.10428 56.45 4.39065C56.85 4.77247 56.85 5.34519 56.55 5.72701L33.75 29.7816C33.65 29.877 33.55 29.9725 33.45 30.0679C32.65 30.7361 31.75 31.0225 30.75 31.0225Z" fill="white"/>
<path d="M28.75 37.2272H16.75C16.15 37.2272 15.75 36.8454 15.75 36.2727C15.75 35.6999 16.15 35.3181 16.75 35.3181H28.75C29.35 35.3181 29.75 35.6999 29.75 36.2727C29.75 36.8454 29.35 37.2272 28.75 37.2272Z" fill="white"/>
<path d="M32.75 37.2272H31.75C31.15 37.2272 30.75 36.8454 30.75 36.2727C30.75 35.6999 31.15 35.3181 31.75 35.3181H32.75C33.35 35.3181 33.75 35.6999 33.75 36.2727C33.75 36.8454 33.35 37.2272 32.75 37.2272Z" fill="white"/>
<path d="M55.75 42H5.75C2.95 42 0.75 39.9 0.75 37.2273V4.77273C0.75 2.1 2.95 0 5.75 0H55.75C58.55 0 60.75 2.1 60.75 4.77273V37.2273C60.75 39.9 58.55 42 55.75 42ZM5.75 1.90909C4.05 1.90909 2.75 3.15 2.75 4.77273V37.2273C2.75 38.85 4.05 40.0909 5.75 40.0909H55.75C57.45 40.0909 58.75 38.85 58.75 37.2273V4.77273C58.75 3.15 57.45 1.90909 55.75 1.90909H5.75Z" fill="#12284C"/>
<path d="M58.5496 40.8545C58.2496 40.8545 58.0496 40.7591 57.8496 40.5681L43.6496 27.0136C43.2496 26.6318 43.2496 26.0591 43.6496 25.6772C44.0496 25.2954 44.6496 25.2954 45.0496 25.6772L59.2496 39.2318C59.6496 39.6136 59.6496 40.1863 59.2496 40.5681C59.0496 40.7591 58.8496 40.8545 58.5496 40.8545Z" fill="#12284C"/>
<path d="M2.9502 40.8545C2.6502 40.8545 2.4502 40.7591 2.2502 40.5681C1.8502 40.1863 1.8502 39.6136 2.2502 39.2318L16.4502 25.6772C16.8502 25.2954 17.4502 25.2954 17.8502 25.6772C18.2502 26.0591 18.2502 26.6318 17.8502 27.0136L3.6502 40.5681C3.4502 40.7591 3.1502 40.8545 2.9502 40.8545Z" fill="#12284C"/>
</g>
<defs>
<clipPath id="clip0_2_3728">
<rect width="60" height="42" fill="white" transform="translate(0.75)"/>
</clipPath>
</defs>
</svg>
