<svg width="24" height="24" viewBox="0 0 24 24" fill="none" xmlns="http://www.w3.org/2000/svg">
<rect x="4.2002" y="7.19995" width="16.8" height="10.2" fill="white"/>
<path d="M21 6.3999H12.6C12.2688 6.3999 12 6.67866 12 7.02212C12 7.36559 12.2688 7.64435 12.6 7.64435H19.2516L15.5652 10.6173L12.9216 8.87386L12.2784 9.92417L15.2784 11.9028C15.3756 11.9675 15.4884 11.9999 15.6 11.9999C15.7296 11.9999 15.8604 11.9563 15.9684 11.8692L20.4 8.29395V16.3555H12.6C12.2688 16.3555 12 16.6342 12 16.9777C12 17.3211 12.2688 17.5999 12.6 17.5999H21C21.3312 17.5999 21.6 17.3211 21.6 16.9777V7.02212C21.6 6.67866 21.3312 6.3999 21 6.3999Z" fill="#006FC4"/>
<path d="M12.9362 2.54796C12.8 2.42636 12.6172 2.37389 12.4451 2.41228L2.88781 4.3322C2.60468 4.38852 2.40039 4.65218 2.40039 4.96065V19.04C2.40039 19.3472 2.60468 19.6122 2.88781 19.6685L12.4451 21.5884C12.481 21.5961 12.518 21.5999 12.5551 21.5999C12.6936 21.5999 12.8286 21.5487 12.9362 21.4527C13.0735 21.3311 13.1524 21.1494 13.1524 20.9599V3.04074C13.1524 2.85002 13.0735 2.66955 12.9362 2.54796Z" fill="#006DC3"/>
<path d="M7.80078 16.9062C6.14718 16.9062 4.80078 15.1313 4.80078 12.9502C4.80078 10.7691 6.14718 8.99414 7.80078 8.99414C9.45438 8.99414 10.8008 10.7691 10.8008 12.9502C10.8008 15.1313 9.45438 16.9062 7.80078 16.9062ZM7.80078 10.3128C6.80838 10.3128 6.00078 11.4957 6.00078 12.9502C6.00078 14.4047 6.80838 15.5875 7.80078 15.5875C8.79318 15.5875 9.60078 14.4047 9.60078 12.9502C9.60078 11.4957 8.79318 10.3128 7.80078 10.3128Z" fill="#EFEFEF"/>
</svg>
