<svg width="296" height="82" viewBox="0 0 296 82" fill="none" xmlns="http://www.w3.org/2000/svg">
<g opacity="0.2">
<circle cx="3.33333" cy="3.33333" r="3.33333" fill="#E6E1E6"/>
<circle cx="29.3333" cy="3.33333" r="3.33333" fill="#E6E1E6"/>
<circle cx="55.3333" cy="3.33333" r="3.33333" fill="#E6E1E6"/>
<circle cx="81.3333" cy="3.33333" r="3.33333" fill="#E6E1E6"/>
<circle cx="107.333" cy="3.33333" r="3.33333" fill="#E6E1E6"/>
<circle cx="133.333" cy="3.33333" r="3.33333" fill="#E6E1E6"/>
<circle cx="159.333" cy="3.33333" r="3.33333" fill="#E6E1E6"/>
<circle cx="185.333" cy="3.33333" r="3.33333" fill="#E6E1E6"/>
<circle cx="211.333" cy="3.33333" r="3.33333" fill="#E6E1E6"/>
<circle cx="237.333" cy="3.33333" r="3.33333" fill="#E6E1E6"/>
<circle cx="263.333" cy="3.33333" r="3.33333" fill="#E6E1E6"/>
<circle cx="289.333" cy="3.33333" r="3.33333" fill="#E6E1E6"/>
<circle cx="3.33333" cy="21.3333" r="3.33333" fill="#E6E1E6"/>
<circle cx="29.3333" cy="21.3333" r="3.33333" fill="#E6E1E6"/>
<circle cx="55.3333" cy="21.3333" r="3.33333" fill="#E6E1E6"/>
<circle cx="81.3333" cy="21.3333" r="3.33333" fill="#E6E1E6"/>
<circle cx="107.333" cy="21.3333" r="3.33333" fill="#E6E1E6"/>
<circle cx="133.333" cy="21.3333" r="3.33333" fill="#E6E1E6"/>
<circle cx="159.333" cy="21.3333" r="3.33333" fill="#E6E1E6"/>
<circle cx="185.333" cy="21.3333" r="3.33333" fill="#E6E1E6"/>
<circle cx="211.333" cy="21.3333" r="3.33333" fill="#E6E1E6"/>
<circle cx="237.333" cy="21.3333" r="3.33333" fill="#E6E1E6"/>
<circle cx="263.333" cy="21.3333" r="3.33333" fill="#E6E1E6"/>
<circle cx="289.333" cy="21.3333" r="3.33333" fill="#E6E1E6"/>
<circle cx="3.33333" cy="39.3333" r="3.33333" fill="#E6E1E6"/>
<circle cx="29.3333" cy="39.3333" r="3.33333" fill="#E6E1E6"/>
<circle cx="55.3333" cy="39.3333" r="3.33333" fill="#E6E1E6"/>
<circle cx="81.3333" cy="39.3333" r="3.33333" fill="#E6E1E6"/>
<circle cx="107.333" cy="39.3333" r="3.33333" fill="#E6E1E6"/>
<circle cx="133.333" cy="39.3333" r="3.33333" fill="#E6E1E6"/>
<circle cx="159.333" cy="39.3333" r="3.33333" fill="#E6E1E6"/>
<circle cx="185.333" cy="39.3333" r="3.33333" fill="#E6E1E6"/>
<circle cx="211.333" cy="39.3333" r="3.33333" fill="#E6E1E6"/>
<circle cx="237.333" cy="39.3333" r="3.33333" fill="#E6E1E6"/>
<circle cx="263.333" cy="39.3333" r="3.33333" fill="#E6E1E6"/>
<circle cx="289.333" cy="39.3333" r="3.33333" fill="#E6E1E6"/>
<circle cx="3.33333" cy="57.3333" r="3.33333" fill="#E6E1E6"/>
<circle cx="29.3333" cy="57.3333" r="3.33333" fill="#E6E1E6"/>
<circle cx="55.3333" cy="57.3333" r="3.33333" fill="#E6E1E6"/>
<circle cx="81.3333" cy="57.3333" r="3.33333" fill="#E6E1E6"/>
<circle cx="107.333" cy="57.3333" r="3.33333" fill="#E6E1E6"/>
<circle cx="133.333" cy="57.3333" r="3.33333" fill="#E6E1E6"/>
<circle cx="159.333" cy="57.3333" r="3.33333" fill="#E6E1E6"/>
<circle cx="185.333" cy="57.3333" r="3.33333" fill="#E6E1E6"/>
<circle cx="211.333" cy="57.3333" r="3.33333" fill="#E6E1E6"/>
<circle cx="237.333" cy="57.3333" r="3.33333" fill="#E6E1E6"/>
<circle cx="263.333" cy="57.3333" r="3.33333" fill="#E6E1E6"/>
<circle cx="289.333" cy="57.3333" r="3.33333" fill="#E6E1E6"/>
<circle cx="3.33333" cy="75.3333" r="3.33333" fill="#E6E1E6"/>
<circle cx="29.3333" cy="75.3333" r="3.33333" fill="#E6E1E6"/>
<circle cx="55.3333" cy="75.3333" r="3.33333" fill="#E6E1E6"/>
<circle cx="81.3333" cy="75.3333" r="3.33333" fill="#E6E1E6"/>
<circle cx="107.333" cy="75.3333" r="3.33333" fill="#E6E1E6"/>
<circle cx="133.333" cy="75.3333" r="3.33333" fill="#E6E1E6"/>
<circle cx="159.333" cy="75.3333" r="3.33333" fill="#E6E1E6"/>
<circle cx="185.333" cy="75.3333" r="3.33333" fill="#E6E1E6"/>
<circle cx="211.333" cy="75.3333" r="3.33333" fill="#E6E1E6"/>
<circle cx="237.333" cy="75.3333" r="3.33333" fill="#E6E1E6"/>
<circle cx="263.333" cy="75.3333" r="3.33333" fill="#E6E1E6"/>
<circle cx="289.333" cy="75.3333" r="3.33333" fill="#E6E1E6"/>
</g>
</svg>
