<svg width="296" height="46" viewBox="0 0 296 46" fill="none" xmlns="http://www.w3.org/2000/svg">
<g opacity="0.3" clip-path="url(#clip0_46_9143)">
<circle cx="3.33333" cy="3.33333" r="3.33333" fill="#C4C4C4"/>
<circle cx="29.3333" cy="3.33333" r="3.33333" fill="#C4C4C4"/>
<circle cx="55.3333" cy="3.33333" r="3.33333" fill="#C4C4C4"/>
<circle cx="81.3333" cy="3.33333" r="3.33333" fill="#C4C4C4"/>
<circle cx="107.333" cy="3.33333" r="3.33333" fill="#C4C4C4"/>
<circle cx="133.333" cy="3.33333" r="3.33333" fill="#C4C4C4"/>
<circle cx="159.333" cy="3.33333" r="3.33333" fill="#C4C4C4"/>
<circle cx="185.333" cy="3.33333" r="3.33333" fill="#C4C4C4"/>
<circle cx="211.333" cy="3.33333" r="3.33333" fill="#C4C4C4"/>
<circle cx="237.333" cy="3.33333" r="3.33333" fill="#C4C4C4"/>
<circle cx="263.333" cy="3.33333" r="3.33333" fill="#C4C4C4"/>
<circle cx="289.333" cy="3.33333" r="3.33333" fill="#C4C4C4"/>
<circle cx="3.33333" cy="21.3333" r="3.33333" fill="#C4C4C4"/>
<circle cx="29.3333" cy="21.3333" r="3.33333" fill="#C4C4C4"/>
<circle cx="55.3333" cy="21.3333" r="3.33333" fill="#C4C4C4"/>
<circle cx="81.3333" cy="21.3333" r="3.33333" fill="#C4C4C4"/>
<circle cx="107.333" cy="21.3333" r="3.33333" fill="#C4C4C4"/>
<circle cx="133.333" cy="21.3333" r="3.33333" fill="#C4C4C4"/>
<circle cx="159.333" cy="21.3333" r="3.33333" fill="#C4C4C4"/>
<circle cx="185.333" cy="21.3333" r="3.33333" fill="#C4C4C4"/>
<circle cx="211.333" cy="21.3333" r="3.33333" fill="#C4C4C4"/>
<circle cx="237.333" cy="21.3333" r="3.33333" fill="#C4C4C4"/>
<circle cx="263.333" cy="21.3333" r="3.33333" fill="#C4C4C4"/>
<circle cx="289.333" cy="21.3333" r="3.33333" fill="#C4C4C4"/>
<circle cx="3.33333" cy="39.3333" r="3.33333" fill="#C4C4C4"/>
<circle cx="29.3333" cy="39.3333" r="3.33333" fill="#C4C4C4"/>
<circle cx="55.3333" cy="39.3333" r="3.33333" fill="#C4C4C4"/>
<circle cx="81.3333" cy="39.3333" r="3.33333" fill="#C4C4C4"/>
<circle cx="107.333" cy="39.3333" r="3.33333" fill="#C4C4C4"/>
<circle cx="133.333" cy="39.3333" r="3.33333" fill="#C4C4C4"/>
<circle cx="159.333" cy="39.3333" r="3.33333" fill="#C4C4C4"/>
<circle cx="185.333" cy="39.3333" r="3.33333" fill="#C4C4C4"/>
<circle cx="211.333" cy="39.3333" r="3.33333" fill="#C4C4C4"/>
<circle cx="237.333" cy="39.3333" r="3.33333" fill="#C4C4C4"/>
<circle cx="263.333" cy="39.3333" r="3.33333" fill="#C4C4C4"/>
<circle cx="289.333" cy="39.3333" r="3.33333" fill="#C4C4C4"/>
</g>
<defs>
<clipPath id="clip0_46_9143">
<rect width="296" height="46" fill="white"/>
</clipPath>
</defs>
</svg>
