<svg width="69" height="56" viewBox="0 0 69 56" fill="none" xmlns="http://www.w3.org/2000/svg">
<g filter="url(#filter0_d_2_3351)">
<path d="M58.8929 48.0001H9.60714C6.60714 48.0001 4.25 45.3601 4.25 42.0001V39.6001C4.25 38.8801 4.67857 38.4001 5.32143 38.4001H29.9643C30.6071 38.4001 31.0357 38.8801 31.0357 39.6001C31.0357 40.3201 31.4643 40.8001 32.1071 40.8001H36.3929C37.0357 40.8001 37.4643 40.3201 37.4643 39.6001C37.4643 38.8801 37.8929 38.4001 38.5357 38.4001H63.1786C63.8214 38.4001 64.25 38.8801 64.25 39.6001V42.0001C64.25 45.3601 61.8929 48.0001 58.8929 48.0001ZM6.39286 40.8001V42.0001C6.39286 44.0401 7.78571 45.6001 9.60714 45.6001H58.8929C60.7143 45.6001 62.1071 44.0401 62.1071 42.0001V40.8001H39.3929C38.9643 42.2401 37.7857 43.2001 36.3929 43.2001H32.1071C30.7143 43.2001 29.5357 42.2401 29.1071 40.8001H6.39286Z" fill="#12284C"/>
<path d="M10.7469 40.7997C10.1212 40.7997 9.7041 40.3797 9.7041 39.7497V11.3997C9.7041 9.08971 11.5811 7.19971 13.8752 7.19971H44.1159C44.7415 7.19971 45.1586 7.61971 45.1586 8.24971C45.1586 8.87971 44.7415 9.29971 44.1159 9.29971H13.8752C12.7282 9.29971 11.7897 10.2447 11.7897 11.3997V39.7497C11.7897 40.3797 11.3726 40.7997 10.7469 40.7997Z" fill="#12284C"/>
<path d="M13.4988 36C13.1787 36 12.9652 35.8941 12.7518 35.6824C12.3249 35.2588 12.3249 34.6235 12.7518 34.2L25.5581 21.4941C25.985 21.0706 26.6253 21.0706 27.0522 21.4941L34.8427 29.2235L55.4395 8.78824C55.8664 8.36471 56.5067 8.36471 56.9336 8.78824L59.3882 11.2235V2.11765H50.2103L52.6648 4.55294C53.0917 4.97647 53.0917 5.61176 52.6648 6.03529L35.5897 22.9765C35.1629 23.4 34.5226 23.4 34.0957 22.9765L26.3052 15.2471L14.2459 27.2118C13.819 27.6353 13.1787 27.6353 12.7518 27.2118C12.3249 26.7882 12.3249 26.1529 12.7518 25.7294L25.5581 13.0235C25.985 12.6 26.6253 12.6 27.0522 13.0235L34.8427 20.7529L50.4237 5.29412L46.902 1.8C46.5818 1.48235 46.4751 1.05882 46.6886 0.635294C46.7953 0.211765 47.2222 0 47.649 0H60.4554C61.0957 0 61.5226 0.423529 61.5226 1.05882V13.7647C61.5226 14.1882 61.3091 14.6118 60.8822 14.7176C60.4554 14.9294 60.0285 14.8235 59.7083 14.5059L56.1866 11.0118L35.5897 31.4471C35.1629 31.8706 34.5226 31.8706 34.0957 31.4471L26.3052 23.7176L14.2459 35.6824C14.0324 35.8941 13.819 36 13.4988 36Z" fill="white"/>
</g>
<defs>
<filter id="filter0_d_2_3351" x="0.25" y="0" width="68" height="56.0001" filterUnits="userSpaceOnUse" color-interpolation-filters="sRGB">
<feFlood flood-opacity="0" result="BackgroundImageFix"/>
<feColorMatrix in="SourceAlpha" type="matrix" values="0 0 0 0 0 0 0 0 0 0 0 0 0 0 0 0 0 0 127 0" result="hardAlpha"/>
<feOffset dy="4"/>
<feGaussianBlur stdDeviation="2"/>
<feComposite in2="hardAlpha" operator="out"/>
<feColorMatrix type="matrix" values="0 0 0 0 0 0 0 0 0 0 0 0 0 0 0 0 0 0 0.25 0"/>
<feBlend mode="normal" in2="BackgroundImageFix" result="effect1_dropShadow_2_3351"/>
<feBlend mode="normal" in="SourceGraphic" in2="effect1_dropShadow_2_3351" result="shape"/>
</filter>
</defs>
</svg>
