<svg width="61" height="39" viewBox="0 0 61 39" fill="none" xmlns="http://www.w3.org/2000/svg">
<g clip-path="url(#clip0_2_3760)">
<path d="M30.75 19.4998C30.65 19.4998 30.45 19.4998 30.35 19.4023L11.35 10.6273C10.95 10.4323 10.75 10.1398 10.75 9.7498C10.75 9.3598 10.95 9.0673 11.35 8.8723L30.35 0.0972949C30.65 -0.000205077 30.95 -0.000205077 31.25 0.0972949L50.25 8.8723C50.55 9.0673 50.75 9.3598 50.75 9.7498C50.75 10.1398 50.55 10.4323 50.15 10.6273L31.15 19.4023C31.05 19.4998 30.85 19.4998 30.75 19.4998ZM14.05 9.7498L30.75 17.4523L47.45 9.7498L30.75 2.04729L14.05 9.7498Z" fill="white"/>
<path d="M50.75 9.75H48.75V16.575H50.75V9.75Z" fill="white"/>
<path d="M49.75 19.4999C50.8546 19.4999 51.75 18.6268 51.75 17.5499C51.75 16.4729 50.8546 15.5999 49.75 15.5999C48.6454 15.5999 47.75 16.4729 47.75 17.5499C47.75 18.6268 48.6454 19.4999 49.75 19.4999Z" fill="white"/>
<path d="M30.7504 27.3004C27.0504 27.2029 23.5504 26.1304 20.5504 24.1804C19.3504 23.4979 18.6504 22.2304 18.6504 20.8654V13.4554H20.6504V20.8654C20.6504 21.5479 20.9504 22.2304 21.5504 22.5229C24.2504 24.2779 27.4504 25.1554 30.6504 25.2529C33.8504 25.1554 36.9504 24.1804 39.6504 22.5229C40.2504 22.1329 40.6504 21.5479 40.5504 20.8654V13.3579H42.5504V20.7679C42.5504 22.1329 41.8504 23.4004 40.6504 24.0829C37.8504 26.1304 34.3504 27.2029 30.7504 27.3004Z" fill="white"/>
<path d="M55.75 38.9997H5.75C2.95 38.9997 0.75 36.8547 0.75 34.1247V32.1747C0.75 31.5897 1.15 31.1997 1.75 31.1997H26.75C27.35 31.1997 27.75 31.5897 27.75 32.1747C27.75 32.7597 28.15 33.1497 28.75 33.1497H32.75C33.35 33.1497 33.75 32.7597 33.75 32.1747C33.75 31.5897 34.15 31.1997 34.75 31.1997H59.75C60.35 31.1997 60.75 31.5897 60.75 32.1747V34.1247C60.75 36.8547 58.55 38.9997 55.75 38.9997ZM2.75 33.1497V34.1247C2.75 35.7822 4.05 37.0497 5.75 37.0497H55.75C57.45 37.0497 58.75 35.7822 58.75 34.1247V33.1497H35.55C35.15 34.3197 34.05 35.0997 32.75 35.0997H28.75C27.45 35.0997 26.35 34.3197 25.95 33.1497H2.75Z" fill="#12284C"/>
<path d="M55.75 33.1497C55.15 33.1497 54.75 32.7597 54.75 32.1747V5.84971C54.75 4.77721 53.85 3.89971 52.75 3.89971H43.75C43.15 3.89971 42.75 3.50971 42.75 2.92471C42.75 2.33971 43.15 1.94971 43.75 1.94971H52.75C54.95 1.94971 56.75 3.70471 56.75 5.84971V32.1747C56.75 32.7597 56.35 33.1497 55.75 33.1497Z" fill="#12284C"/>
<path d="M5.75 33.1497C5.15 33.1497 4.75 32.7597 4.75 32.1747V5.84971C4.75 3.70471 6.55 1.94971 8.75 1.94971H17.75C18.35 1.94971 18.75 2.33971 18.75 2.92471C18.75 3.50971 18.35 3.89971 17.75 3.89971H8.75C7.65 3.89971 6.75 4.77721 6.75 5.84971V32.1747C6.75 32.7597 6.35 33.1497 5.75 33.1497Z" fill="#12284C"/>
</g>
<defs>
<clipPath id="clip0_2_3760">
<rect width="60" height="39" fill="white" transform="translate(0.75)"/>
</clipPath>
</defs>
</svg>
