<svg width="24" height="28" viewBox="0 0 24 28" fill="none" xmlns="http://www.w3.org/2000/svg">
<g clip-path="url(#clip0_2_549)">
<path d="M22.3125 4.49025H12.4688V2.03927C12.4688 1.90926 12.4194 1.78458 12.3315 1.69265C12.2435 1.60072 12.1243 1.54907 12 1.54907C11.8757 1.54907 11.7565 1.60072 11.6685 1.69265C11.5806 1.78458 11.5312 1.90926 11.5312 2.03927V4.49025H1.6875C1.31466 4.49067 0.957212 4.64574 0.693576 4.92144C0.429941 5.19714 0.281653 5.57094 0.28125 5.96084V20.6667C0.281653 21.0566 0.429941 21.4304 0.693576 21.7061C0.957212 21.9818 1.31466 22.1369 1.6875 22.1373H7.27477L4.13402 26.2428C4.09478 26.293 4.06543 26.3508 4.04769 26.4129C4.02995 26.475 4.02417 26.5402 4.03067 26.6047C4.03718 26.6691 4.05584 26.7316 4.08559 26.7885C4.11533 26.8453 4.15557 26.8955 4.20397 26.936C4.25236 26.9765 4.30796 27.0065 4.36754 27.0244C4.42712 27.0423 4.48949 27.0476 4.55106 27.0401C4.61263 27.0326 4.67216 27.0124 4.72622 26.9807C4.78027 26.949 4.82778 26.9064 4.86598 26.8553L8.47535 22.1373H15.5248L19.134 26.8553C19.2122 26.9552 19.3249 27.0189 19.4476 27.0324C19.5704 27.046 19.6933 27.0083 19.7897 26.9277C19.8861 26.847 19.9482 26.7299 19.9624 26.6016C19.9767 26.4734 19.9421 26.3445 19.866 26.2428L16.7254 22.1373H22.3125C22.6853 22.1369 23.0428 21.9818 23.3064 21.7061C23.5701 21.4304 23.7183 21.0566 23.7188 20.6667V5.96084C23.7183 5.57094 23.5701 5.19714 23.3064 4.92144C23.0428 4.64574 22.6853 4.49067 22.3125 4.49025ZM22.7812 20.6667C22.7811 20.7967 22.7317 20.9213 22.6438 21.0132C22.5559 21.1051 22.4368 21.1568 22.3125 21.1569H1.6875C1.56322 21.1568 1.44406 21.1051 1.35618 21.0132C1.2683 20.9213 1.21887 20.7967 1.21875 20.6667V5.96084C1.21887 5.83087 1.2683 5.70626 1.35618 5.61436C1.44406 5.52246 1.56322 5.47077 1.6875 5.47064H22.3125C22.4368 5.47077 22.5559 5.52246 22.6438 5.61436C22.7317 5.70626 22.7811 5.83087 22.7812 5.96084V20.6667ZM8.71875 13.804V16.7452C8.71875 16.8752 8.66936 16.9998 8.58146 17.0918C8.49355 17.1837 8.37432 17.2353 8.25 17.2353C8.12568 17.2353 8.00645 17.1837 7.91854 17.0918C7.83064 16.9998 7.78125 16.8752 7.78125 16.7452V13.804C7.78125 13.674 7.83064 13.5493 7.91854 13.4574C8.00645 13.3654 8.12568 13.3138 8.25 13.3138C8.37432 13.3138 8.49355 13.3654 8.58146 13.4574C8.66936 13.5493 8.71875 13.674 8.71875 13.804ZM12.4688 11.8432V16.7452C12.4688 16.8752 12.4194 16.9998 12.3315 17.0918C12.2435 17.1837 12.1243 17.2353 12 17.2353C11.8757 17.2353 11.7565 17.1837 11.6685 17.0918C11.5806 16.9998 11.5312 16.8752 11.5312 16.7452V11.8432C11.5312 11.7132 11.5806 11.5885 11.6685 11.4966C11.7565 11.4046 11.8757 11.353 12 11.353C12.1243 11.353 12.2435 11.4046 12.3315 11.4966C12.4194 11.5885 12.4688 11.7132 12.4688 11.8432ZM16.2188 9.88241V16.7452C16.2188 16.8752 16.1694 16.9998 16.0815 17.0918C15.9935 17.1837 15.8743 17.2353 15.75 17.2353C15.6257 17.2353 15.5065 17.1837 15.4185 17.0918C15.3306 16.9998 15.2812 16.8752 15.2812 16.7452V9.88241C15.2812 9.7524 15.3306 9.62771 15.4185 9.53578C15.5065 9.44386 15.6257 9.39221 15.75 9.39221C15.8743 9.39221 15.9935 9.44386 16.0815 9.53578C16.1694 9.62771 16.2188 9.7524 16.2188 9.88241Z" fill="#999999"/>
</g>
<defs>
<clipPath id="clip0_2_549">
<rect width="24" height="26.6667" fill="white" transform="translate(0 0.666748)"/>
</clipPath>
</defs>
</svg>
