<svg width="48" height="54" viewBox="0 0 48 54" fill="none" xmlns="http://www.w3.org/2000/svg">
<g clip-path="url(#clip0_2_1108)">
<path d="M44.625 7.98038H24.9375V3.07841C24.9375 2.8184 24.8387 2.56903 24.6629 2.38517C24.4871 2.20131 24.2486 2.09802 24 2.09802C23.7514 2.09802 23.5129 2.20131 23.3371 2.38517C23.1613 2.56903 23.0625 2.8184 23.0625 3.07841V7.98038H3.375C2.62933 7.98122 1.91442 8.29136 1.38715 8.84276C0.859881 9.39415 0.563307 10.1418 0.5625 10.9216V40.3333C0.563307 41.1131 0.859881 41.8607 1.38715 42.4121C1.91442 42.9635 2.62933 43.2737 3.375 43.2745H14.5495L8.26805 51.4855C8.18955 51.5859 8.13087 51.7015 8.09539 51.8257C8.05991 51.9499 8.04833 52.0803 8.06134 52.2092C8.07435 52.3381 8.11168 52.4631 8.17118 52.5768C8.23067 52.6905 8.31114 52.7908 8.40793 52.8718C8.50472 52.9528 8.61592 53.0129 8.73507 53.0487C8.85423 53.0844 8.97899 53.0951 9.10212 53.0801C9.22526 53.0651 9.34433 53.0247 9.45244 52.9613C9.56055 52.8978 9.65555 52.8126 9.73195 52.7105L16.9507 43.2745H31.0495L38.268 52.7105C38.4244 52.9104 38.6498 53.0376 38.8953 53.0647C39.1408 53.0918 39.3866 53.0165 39.5794 52.8552C39.7722 52.6939 39.8963 52.4596 39.9249 52.2032C39.9534 51.9467 39.8841 51.6888 39.732 51.4855L33.4507 43.2745H44.625C45.3707 43.2737 46.0856 42.9635 46.6128 42.4121C47.1401 41.8607 47.4367 41.1131 47.4375 40.3333V10.9216C47.4367 10.1418 47.1401 9.39415 46.6128 8.84276C46.0856 8.29136 45.3707 7.98122 44.625 7.98038ZM45.5625 40.3333C45.5623 40.5933 45.4634 40.8425 45.2876 41.0263C45.1119 41.2101 44.8736 41.3135 44.625 41.3137H3.375C3.12644 41.3135 2.88812 41.2101 2.71236 41.0263C2.5366 40.8425 2.43775 40.5933 2.4375 40.3333V10.9216C2.43775 10.6616 2.5366 10.4124 2.71236 10.2286C2.88812 10.0448 3.12644 9.94142 3.375 9.94116H44.625C44.8736 9.94142 45.1119 10.0448 45.2876 10.2286C45.4634 10.4124 45.5623 10.6616 45.5625 10.9216V40.3333ZM17.4375 26.6078V32.4902C17.4375 32.7502 17.3387 32.9996 17.1629 33.1834C16.9871 33.3673 16.7486 33.4706 16.5 33.4706C16.2514 33.4706 16.0129 33.3673 15.8371 33.1834C15.6613 32.9996 15.5625 32.7502 15.5625 32.4902V26.6078C15.5625 26.3478 15.6613 26.0984 15.8371 25.9146C16.0129 25.7307 16.2514 25.6274 16.5 25.6274C16.7486 25.6274 16.9871 25.7307 17.1629 25.9146C17.3387 26.0984 17.4375 26.3478 17.4375 26.6078ZM24.9375 22.6863V32.4902C24.9375 32.7502 24.8387 32.9996 24.6629 33.1834C24.4871 33.3673 24.2486 33.4706 24 33.4706C23.7514 33.4706 23.5129 33.3673 23.3371 33.1834C23.1613 32.9996 23.0625 32.7502 23.0625 32.4902V22.6863C23.0625 22.4262 23.1613 22.1769 23.3371 21.993C23.5129 21.8092 23.7514 21.7059 24 21.7059C24.2486 21.7059 24.4871 21.8092 24.6629 21.993C24.8387 22.1769 24.9375 22.4262 24.9375 22.6863ZM32.4375 18.7647V32.4902C32.4375 32.7502 32.3387 32.9996 32.1629 33.1834C31.9871 33.3673 31.7486 33.4706 31.5 33.4706C31.2514 33.4706 31.0129 33.3673 30.8371 33.1834C30.6613 32.9996 30.5625 32.7502 30.5625 32.4902V18.7647C30.5625 18.5047 30.6613 18.2553 30.8371 18.0714C31.0129 17.8876 31.2514 17.7843 31.5 17.7843C31.7486 17.7843 31.9871 17.8876 32.1629 18.0714C32.3387 18.2553 32.4375 18.5047 32.4375 18.7647Z" fill="#00ADBB"/>
</g>
<defs>
<clipPath id="clip0_2_1108">
<rect width="48" height="53.3333" fill="white" transform="translate(0 0.333374)"/>
</clipPath>
</defs>
</svg>
