<svg width="32" height="32" viewBox="0 0 32 32" fill="none" xmlns="http://www.w3.org/2000/svg">
<g clip-path="url(#clip0_2_2241)">
<path d="M24.2546 29.3332H7.74414C7.09794 29.3332 6.57227 28.8075 6.57227 28.1613V14.3462C6.57227 14.1305 6.74716 13.9556 6.96289 13.9556C7.17862 13.9556 7.35352 14.1305 7.35352 14.3462V28.1613C7.35352 28.3767 7.52872 28.5519 7.74414 28.5519H24.2546C24.47 28.5519 24.6452 28.3767 24.6452 28.1613V22.8618C24.6452 22.6461 24.8201 22.4712 25.0358 22.4712C25.2515 22.4712 25.4264 22.6461 25.4264 22.8618V28.1613C25.4264 28.8075 24.9008 29.3332 24.2546 29.3332ZM17.4198 22.1343C17.1938 22.1343 16.9722 22.0459 16.8053 21.879L14.6138 19.6874H12.0511C11.4612 19.6874 10.9449 19.3112 10.7661 18.7512C10.6543 18.4012 10.5646 18.0198 10.4995 17.6177C10.465 17.4047 10.6097 17.2041 10.8227 17.1696C11.0353 17.1353 11.2362 17.2798 11.2707 17.4929C11.3296 17.8569 11.4102 18.2003 11.5103 18.5136C11.5852 18.7485 11.8026 18.9062 12.0511 18.9062H14.385V13.0935H12.0511C11.8026 13.0935 11.5853 13.2512 11.5103 13.4861C11.3485 13.9928 11.1556 14.8402 11.1556 15.9998C11.1556 16.2156 10.9807 16.3905 10.765 16.3905C10.5492 16.3905 10.3743 16.2156 10.3743 15.9998C10.3743 14.7396 10.5874 13.808 10.7661 13.2484C10.9449 12.6884 11.4612 12.3122 12.0511 12.3122H14.6138L16.8053 10.1207C17.0551 9.87088 17.4274 9.79682 17.7538 9.93197C18.0801 10.0672 18.291 10.3828 18.291 10.736V21.2636C18.291 21.6168 18.0801 21.9324 17.7538 22.0677C17.6454 22.1125 17.5321 22.1343 17.4198 22.1343ZM15.1662 19.135L17.3577 21.3266C17.3856 21.3545 17.4183 21.3609 17.4548 21.3459C17.4912 21.3308 17.5097 21.3031 17.5097 21.2636V10.7361C17.5097 10.6966 17.4912 10.669 17.4548 10.6538C17.4183 10.6387 17.3856 10.6452 17.3577 10.6732L15.1662 12.8647V19.135ZM19.9577 4.45786V7.74463C19.9577 7.96005 20.1329 8.13525 20.3483 8.13525H23.6351C23.1272 7.62739 22.4618 6.96197 21.7964 6.29656C21.131 5.63109 20.4655 4.96572 19.9577 4.45786ZM21.1296 19.8731C20.9138 19.8731 20.7389 19.6982 20.7389 19.4825V12.5172C20.7389 12.3015 20.9138 12.1266 21.1296 12.1266C21.3453 12.1266 21.5202 12.3015 21.5202 12.5172V19.4824C21.5202 19.6982 21.3453 19.8731 21.1296 19.8731V19.8731ZM19.1764 3.83838C19.1764 3.62265 19.0015 3.44775 18.7858 3.44775H7.74414C7.52872 3.44775 7.35352 3.62296 7.35352 3.83838V12.7837C7.35352 12.9995 7.17862 13.1744 6.96289 13.1744C6.74716 13.1744 6.57227 12.9995 6.57227 12.7837V3.83838C6.57227 3.19218 7.09794 2.6665 7.74414 2.6665H18.7858C19.0988 2.6665 19.393 2.78838 19.6144 3.00968C19.6144 3.00968 19.6144 3.00968 19.6145 3.00973C19.6512 3.04645 21 4.39525 22.3488 5.74411C23.6968 7.09213 25.0449 8.44015 25.0831 8.47848C25.1214 8.51682 25.0832 8.47848 25.0832 8.47854H25.0833C25.3046 8.69989 25.4264 8.99411 25.4264 9.30708V21.2993C25.4264 21.515 25.2515 21.6899 25.0358 21.6899C24.82 21.6899 24.6451 21.515 24.6451 21.2993V9.30713C24.6451 9.0914 24.4702 8.9165 24.2545 8.9165H20.3483C19.7021 8.9165 19.1764 8.39083 19.1764 7.74463V3.83838H19.1764ZM22.6921 18.2945C22.4763 18.2945 22.3014 18.1196 22.3014 17.9039V14.0958C22.3014 13.8801 22.4763 13.7052 22.6921 13.7052C22.9078 13.7052 23.0827 13.8801 23.0827 14.0958V17.9039C23.0827 18.1196 22.9078 18.2945 22.6921 18.2945ZM19.5671 17.9459C19.3513 17.9459 19.1764 17.771 19.1764 17.5553V14.4444C19.1764 14.2287 19.3513 14.0538 19.5671 14.0538C19.7828 14.0538 19.9577 14.2287 19.9577 14.4444V17.5553C19.9577 17.771 19.7828 17.9459 19.5671 17.9459Z" fill="#009ABF"/>
</g>
<defs>
<clipPath id="clip0_2_2241">
<rect width="21.3333" height="26.6667" fill="white" transform="translate(5.33301 2.6665)"/>
</clipPath>
</defs>
</svg>
