<svg width="44" height="54" viewBox="0 0 44 54" fill="none" xmlns="http://www.w3.org/2000/svg">
<g clip-path="url(#clip0_2_5834)">
<path d="M38.5111 53.6667H5.49023C4.19784 53.6667 3.14648 52.6154 3.14648 51.323V23.6929C3.14648 23.2614 3.49628 22.9116 3.92773 22.9116C4.35919 22.9116 4.70898 23.2614 4.70898 23.6929V51.323C4.70898 51.7538 5.0594 52.1042 5.49023 52.1042H38.5111C38.9419 52.1042 39.2923 51.7538 39.2923 51.323V40.724C39.2923 40.2925 39.6421 39.9428 40.0736 39.9428C40.505 39.9428 40.8548 40.2925 40.8548 40.724V51.323C40.8548 52.6154 39.8035 53.6667 38.5111 53.6667ZM24.8416 39.269C24.3895 39.269 23.9464 39.0921 23.6126 38.7583L19.2296 34.3753H14.1041C12.9244 34.3753 11.8917 33.6228 11.5341 32.5029C11.3105 31.8028 11.1311 31.0399 11.0009 30.2357C10.9319 29.8097 11.2214 29.4086 11.6473 29.3396C12.0726 29.271 12.4744 29.56 12.5434 29.9861C12.6612 30.7141 12.8224 31.401 13.0225 32.0276C13.1724 32.4973 13.6071 32.8129 14.1041 32.8129H18.772V21.1873H14.1041C13.6071 21.1873 13.1725 21.5029 13.0225 21.9725C12.6989 22.9859 12.3131 24.6807 12.3131 27C12.3131 27.4315 11.9634 27.7813 11.5319 27.7813C11.1004 27.7813 10.7506 27.4315 10.7506 27C10.7506 24.4795 11.1767 22.6164 11.5341 21.4971C11.8917 20.3772 12.9244 19.6247 14.1041 19.6247H19.2296L23.6126 15.2417C24.1121 14.7421 24.8568 14.594 25.5095 14.8643C26.1622 15.1347 26.584 15.7659 26.584 16.4724V37.5275C26.584 38.234 26.1622 38.8653 25.5095 39.1357C25.2928 39.2254 25.0662 39.269 24.8416 39.269ZM20.3344 33.2705L24.7174 37.6535C24.7733 37.7093 24.8385 37.7222 24.9115 37.6921C24.9844 37.6619 25.0214 37.6066 25.0214 37.5276V16.4725C25.0214 16.3936 24.9844 16.3383 24.9115 16.3081C24.8386 16.2779 24.7733 16.2908 24.7174 16.3467L20.3344 20.7297V33.2705ZM29.9173 3.91608V10.4896C29.9173 10.9205 30.2677 11.2709 30.6986 11.2709H37.2721C36.2564 10.2551 34.9255 8.92431 33.5947 7.59348C32.2639 6.26254 30.933 4.93181 29.9173 3.91608ZM32.2611 34.7466C31.8296 34.7466 31.4798 34.3968 31.4798 33.9654V20.0347C31.4798 19.6033 31.8296 19.2535 32.2611 19.2535C32.6925 19.2535 33.0423 19.6033 33.0423 20.0347V33.9653C33.0423 34.3968 32.6925 34.7466 32.2611 34.7466V34.7466ZM28.3548 2.67712C28.3548 2.24567 28.005 1.89587 27.5736 1.89587H5.49023C5.0594 1.89587 4.70898 2.24629 4.70898 2.67712V20.5679C4.70898 20.9993 4.35919 21.3491 3.92773 21.3491C3.49628 21.3491 3.14648 20.9993 3.14648 20.5679V2.67712C3.14648 1.38473 4.19784 0.333374 5.49023 0.333374H27.5736C28.1995 0.333374 28.788 0.577124 29.2308 1.01973C29.2308 1.01973 29.2308 1.01973 29.2309 1.01983C29.3043 1.09327 32.0019 3.79087 34.6996 6.48858C37.3956 9.18462 40.0917 11.8807 40.1682 11.9573C40.2448 12.034 40.1684 11.9573 40.1684 11.9574H40.1685C40.6111 12.4001 40.8547 12.9886 40.8547 13.6145V37.5989C40.8547 38.0304 40.5049 38.3801 40.0735 38.3801C39.642 38.3801 39.2922 38.0304 39.2922 37.5989V13.6146C39.2922 13.1832 38.9424 12.8334 38.511 12.8334H30.6985C29.4061 12.8334 28.3547 11.782 28.3547 10.4896V2.67712H28.3548ZM35.3861 31.5894C34.9546 31.5894 34.6048 31.2396 34.6048 30.8082V23.192C34.6048 22.7606 34.9546 22.4108 35.3861 22.4108C35.8175 22.4108 36.1673 22.7606 36.1673 23.192V30.8082C36.1673 31.2396 35.8175 31.5894 35.3861 31.5894ZM29.1361 30.8921C28.7046 30.8921 28.3548 30.5423 28.3548 30.1109V23.8892C28.3548 23.4578 28.7046 23.108 29.1361 23.108C29.5675 23.108 29.9173 23.4578 29.9173 23.8892V30.1109C29.9173 30.5423 29.5675 30.8921 29.1361 30.8921Z" fill="#00ADBB"/>
</g>
<defs>
<clipPath id="clip0_2_5834">
<rect width="42.6667" height="53.3333" fill="white" transform="translate(0.666992 0.333374)"/>
</clipPath>
</defs>
</svg>
