<svg width="22" height="28" viewBox="0 0 22 28" fill="none" xmlns="http://www.w3.org/2000/svg">
<g clip-path="url(#clip0_2_317)">
<path d="M19.2546 27.3332H2.74414C2.09794 27.3332 1.57227 26.8075 1.57227 26.1613V12.3462C1.57227 12.1305 1.74716 11.9556 1.96289 11.9556C2.17862 11.9556 2.35352 12.1305 2.35352 12.3462V26.1613C2.35352 26.3767 2.52872 26.5519 2.74414 26.5519H19.2546C19.47 26.5519 19.6452 26.3767 19.6452 26.1613V20.8618C19.6452 20.6461 19.8201 20.4712 20.0358 20.4712C20.2515 20.4712 20.4264 20.6461 20.4264 20.8618V26.1613C20.4264 26.8075 19.9008 27.3332 19.2546 27.3332ZM12.4198 20.1343C12.1938 20.1343 11.9722 20.0459 11.8053 19.879L9.61383 17.6874H7.05107C6.46122 17.6874 5.94487 17.3112 5.76607 16.7512C5.6543 16.4012 5.56456 16.0198 5.49945 15.6177C5.46497 15.4047 5.60971 15.2041 5.82268 15.1696C6.03534 15.1353 6.23622 15.2798 6.2707 15.4929C6.32961 15.8569 6.41023 16.2003 6.51029 16.5136C6.58523 16.7485 6.80258 16.9062 7.05107 16.9062H9.38502V11.0935H7.05107C6.80258 11.0935 6.58529 11.2512 6.51029 11.4861C6.34846 11.9928 6.1556 12.8402 6.1556 13.9998C6.1556 14.2156 5.9807 14.3905 5.76497 14.3905C5.54924 14.3905 5.37435 14.2156 5.37435 13.9998C5.37435 12.7396 5.58737 11.808 5.76607 11.2484C5.94487 10.6884 6.46122 10.3122 7.05107 10.3122H9.61383L11.8053 8.12067C12.0551 7.87088 12.4274 7.79682 12.7538 7.93197C13.0801 8.06718 13.291 8.38275 13.291 8.73604V19.2636C13.291 19.6168 13.0801 19.9324 12.7538 20.0677C12.6454 20.1125 12.5321 20.1343 12.4198 20.1343ZM10.1662 17.135L12.3577 19.3266C12.3856 19.3545 12.4183 19.3609 12.4548 19.3459C12.4912 19.3308 12.5097 19.3031 12.5097 19.2636V8.73609C12.5097 8.69661 12.4912 8.66895 12.4548 8.65385C12.4183 8.63874 12.3856 8.6452 12.3577 8.67317L10.1662 10.8647V17.135ZM14.9577 2.45786V5.74463C14.9577 5.96005 15.1329 6.13525 15.3483 6.13525H18.6351C18.1272 5.62739 17.4618 4.96197 16.7964 4.29656C16.131 3.63109 15.4655 2.96572 14.9577 2.45786ZM16.1296 17.8731C15.9138 17.8731 15.7389 17.6982 15.7389 17.4825V10.5172C15.7389 10.3015 15.9138 10.1266 16.1296 10.1266C16.3453 10.1266 16.5202 10.3015 16.5202 10.5172V17.4824C16.5202 17.6982 16.3453 17.8731 16.1296 17.8731V17.8731ZM14.1764 1.83838C14.1764 1.62265 14.0015 1.44775 13.7858 1.44775H2.74414C2.52872 1.44775 2.35352 1.62296 2.35352 1.83838V10.7837C2.35352 10.9995 2.17862 11.1744 1.96289 11.1744C1.74716 11.1744 1.57227 10.9995 1.57227 10.7837V1.83838C1.57227 1.19218 2.09794 0.666504 2.74414 0.666504H13.7858C14.0988 0.666504 14.393 0.788379 14.6144 1.00968C14.6144 1.00968 14.6144 1.00968 14.6145 1.00973C14.6512 1.04645 16 2.39525 17.3488 3.74411C18.6968 5.09213 20.0449 6.44015 20.0831 6.47848C20.1214 6.51682 20.0832 6.47848 20.0832 6.47854H20.0833C20.3046 6.69989 20.4264 6.99411 20.4264 7.30708V19.2993C20.4264 19.515 20.2515 19.6899 20.0358 19.6899C19.82 19.6899 19.6451 19.515 19.6451 19.2993V7.30713C19.6451 7.0914 19.4702 6.9165 19.2545 6.9165H15.3483C14.7021 6.9165 14.1764 6.39083 14.1764 5.74463V1.83838H14.1764ZM17.6921 16.2945C17.4763 16.2945 17.3014 16.1196 17.3014 15.9039V12.0958C17.3014 11.8801 17.4763 11.7052 17.6921 11.7052C17.9078 11.7052 18.0827 11.8801 18.0827 12.0958V15.9039C18.0827 16.1196 17.9078 16.2945 17.6921 16.2945ZM14.5671 15.9459C14.3513 15.9459 14.1764 15.771 14.1764 15.5553V12.4444C14.1764 12.2287 14.3513 12.0538 14.5671 12.0538C14.7828 12.0538 14.9577 12.2287 14.9577 12.4444V15.5553C14.9577 15.771 14.7828 15.9459 14.5671 15.9459Z" fill="#999999"/>
</g>
<defs>
<clipPath id="clip0_2_317">
<rect width="21.3333" height="26.6667" fill="white" transform="translate(0.333008 0.666504)"/>
</clipPath>
</defs>
</svg>
