<svg width="20" height="20" viewBox="0 0 20 20" fill="none" xmlns="http://www.w3.org/2000/svg">
<path d="M14.201 12.2993C13.7519 12.3016 13.309 12.4047 12.905 12.6009C12.5011 12.7972 12.1463 13.0817 11.867 13.4333L7.48099 10.6913C7.64084 10.1754 7.64084 9.62324 7.48099 9.10734L11.867 6.36534C12.3122 6.91657 12.9381 7.29245 13.6338 7.42639C14.3296 7.56032 15.0503 7.44368 15.6683 7.09712C16.2863 6.75055 16.7617 6.19644 17.0103 5.53293C17.2588 4.86942 17.2645 4.13935 17.0264 3.47204C16.7882 2.80473 16.3215 2.24326 15.709 1.88708C15.0965 1.5309 14.3777 1.40301 13.6799 1.52606C12.9821 1.64911 12.3504 2.01517 11.8967 2.55937C11.443 3.10358 11.1965 3.79082 11.201 4.49934C11.2038 4.76765 11.2442 5.03424 11.321 5.29134L6.93499 8.03334C6.54778 7.54589 6.01851 7.19097 5.42056 7.01778C4.82261 6.84459 4.18559 6.8617 3.5978 7.06675C3.01001 7.2718 2.50056 7.65462 2.14008 8.16216C1.7796 8.6697 1.58594 9.27681 1.58594 9.89934C1.58594 10.5219 1.7796 11.129 2.14008 11.6365C2.50056 12.1441 3.01001 12.5269 3.5978 12.7319C4.18559 12.937 4.82261 12.9541 5.42056 12.7809C6.01851 12.6077 6.54778 12.2528 6.93499 11.7653L11.321 14.5073C11.2442 14.7644 11.2038 15.031 11.201 15.2993C11.201 15.8927 11.3769 16.4727 11.7066 16.9661C12.0362 17.4594 12.5048 17.8439 13.0529 18.071C13.6011 18.298 14.2043 18.3575 14.7863 18.2417C15.3682 18.1259 15.9028 17.8402 16.3223 17.4207C16.7419 17.0011 17.0276 16.4666 17.1433 15.8846C17.2591 15.3027 17.1997 14.6995 16.9726 14.1513C16.7456 13.6031 16.361 13.1346 15.8677 12.8049C15.3744 12.4753 14.7943 12.2993 14.201 12.2993ZM14.201 2.69934C14.557 2.69934 14.905 2.80491 15.201 3.0027C15.497 3.20048 15.7277 3.4816 15.864 3.81051C16.0002 4.13942 16.0359 4.50134 15.9664 4.8505C15.8969 5.19967 15.7255 5.5204 15.4738 5.77213C15.222 6.02387 14.9013 6.1953 14.5522 6.26475C14.203 6.33421 13.8411 6.29856 13.5122 6.16232C13.1833 6.02609 12.9021 5.79538 12.7043 5.49937C12.5066 5.20336 12.401 4.85535 12.401 4.49934C12.401 4.02195 12.5906 3.56411 12.9282 3.22655C13.2658 2.88898 13.7236 2.69934 14.201 2.69934ZM4.60099 11.6993C4.24498 11.6993 3.89697 11.5938 3.60096 11.396C3.30495 11.1982 3.07424 10.9171 2.93801 10.5882C2.80177 10.2593 2.76612 9.89734 2.83558 9.54818C2.90503 9.19901 3.07646 8.87828 3.3282 8.62655C3.57993 8.37481 3.90066 8.20338 4.24983 8.13393C4.59899 8.06447 4.96091 8.10012 5.28982 8.23636C5.61873 8.3726 5.89985 8.60331 6.09763 8.89931C6.29542 9.19532 6.40099 9.54333 6.40099 9.89934C6.40099 10.3767 6.21135 10.8346 5.87378 11.1721C5.53622 11.5097 5.07838 11.6993 4.60099 11.6993ZM14.201 17.0993C13.845 17.0993 13.497 16.9938 13.201 16.796C12.905 16.5982 12.6742 16.3171 12.538 15.9882C12.4018 15.6593 12.3661 15.2973 12.4356 14.9482C12.505 14.599 12.6765 14.2783 12.9282 14.0265C13.1799 13.7748 13.5007 13.6034 13.8498 13.5339C14.199 13.4645 14.5609 13.5001 14.8898 13.6364C15.2187 13.7726 15.4998 14.0033 15.6976 14.2993C15.8954 14.5953 16.001 14.9433 16.001 15.2993C16.001 15.7767 15.8113 16.2346 15.4738 16.5721C15.1362 16.9097 14.6784 17.0993 14.201 17.0993Z" fill="#00ADBB"/>
</svg>
