<svg width="24" height="24" viewBox="0 0 24 24" fill="none" xmlns="http://www.w3.org/2000/svg">
<g clip-path="url(#clip0_48_7634)">
<path d="M21.0273 19.9085H2.97179C2.78761 19.9085 2.61098 19.9774 2.48074 20.0999C2.35051 20.2225 2.27734 20.3888 2.27734 20.5621C2.27734 20.7354 2.35051 20.9017 2.48074 21.0243C2.61098 21.1468 2.78761 21.2157 2.97179 21.2157H21.0273C21.2115 21.2157 21.3882 21.1468 21.5184 21.0243C21.6486 20.9017 21.7218 20.7354 21.7218 20.5621C21.7218 20.3888 21.6486 20.2225 21.5184 20.0999C21.3882 19.9774 21.2115 19.9085 21.0273 19.9085Z" fill="#00ADBB"/>
<path d="M12.0003 18.915L19.3684 11.9804C19.4822 11.8553 19.5416 11.6945 19.5349 11.53C19.5281 11.3655 19.4557 11.2095 19.332 11.0931C19.2083 10.9767 19.0425 10.9085 18.8677 10.9021C18.693 10.8958 18.5221 10.9517 18.3892 11.0588L12.6948 16.4117V2.91501C12.6948 2.74166 12.6216 2.57542 12.4914 2.45285C12.3611 2.33027 12.1845 2.26141 12.0003 2.26141C11.8162 2.26141 11.6395 2.33027 11.5093 2.45285C11.3791 2.57542 11.3059 2.74166 11.3059 2.91501V16.4117L5.61839 11.0588C5.55614 10.9904 5.47953 10.9348 5.39337 10.8956C5.30721 10.8563 5.21337 10.8343 5.11773 10.8308C5.02209 10.8274 4.92672 10.8425 4.83761 10.8754C4.7485 10.9082 4.66756 10.9581 4.59988 11.0218C4.53221 11.0855 4.47925 11.1616 4.44434 11.2455C4.40942 11.3294 4.39331 11.4191 4.397 11.5092C4.4007 11.5992 4.42412 11.6875 4.4658 11.7686C4.50749 11.8497 4.56653 11.9218 4.63922 11.9804L12.0003 18.915Z" fill="#12284C"/>
</g>
<defs>
<clipPath id="clip0_48_7634">
<rect width="20" height="20" fill="white" transform="translate(2 2)"/>
</clipPath>
</defs>
</svg>
