<svg width="48" height="54" viewBox="0 0 48 54" fill="none" xmlns="http://www.w3.org/2000/svg">
<g clip-path="url(#clip0_2_3780)">
<path d="M12 49.565C11.4 49.565 11 49.1547 11 48.5393C11 47.9239 11.4 47.5137 12 47.5137C15.3 47.5137 17.4 43.0009 18.1 40.3342C18.3 39.6162 18.6 39.0009 19.1 38.488L23.4 34.0778C24 33.3598 24 32.3342 23.4 31.6163C22.7 30.8983 21.7 30.8983 21 31.6163L16.6 36.2316C16.5 36.3342 16.4 36.4368 16.3 36.5393C15.7 36.9496 15.1 37.0521 14.4 36.9496C13.8 36.847 13.2 36.4368 12.8 35.8214C12.7 35.6162 12.6 35.4111 12.5 35.206L12.2 34.1804C12 33.6675 12.3 33.0521 12.8 32.847C13.3 32.6419 13.9 32.9496 14.1 33.4624L14.4 34.488C14.4 34.5906 14.4 34.5906 14.5 34.5906C14.6 34.6932 14.7 34.7957 14.8 34.7957C14.9 34.7957 15 34.7957 15.1 34.6932L19.6 30.0778C19.6 30.0778 19.6 30.0778 19.7 29.9752C20.3 29.3598 21.3 28.9496 22.2 28.9496C23.2 28.9496 24.1 29.3598 24.8 30.0778C26.2 31.5137 26.2 33.9752 24.8 35.4111L20.4 39.9239C20.1 40.1291 20 40.5393 19.9 40.847C19 44.847 16.2 49.565 12 49.565Z" fill="white"/>
<path d="M12 53.6669C11.7 53.6669 11.5 53.5643 11.3 53.3592C10.9 52.9489 10.9 52.3335 11.3 51.9233L12.6 50.5899L3 40.7438L1.7 42.0771C1.3 42.4874 0.7 42.4874 0.3 42.0771C-0.1 41.6668 -0.1 41.0515 0.3 40.6412L2.3 38.5899C2.7 38.1797 3.3 38.1797 3.7 38.5899L14.7 49.872C15.1 50.2822 15.1 50.8976 14.7 51.3079L12.7 53.3592C12.5 53.5643 12.3 53.6669 12 53.6669Z" fill="white"/>
<path d="M4.10006 41.1536C4.00006 41.1536 3.90006 41.1536 3.90006 41.1536C3.40006 41.0511 3.00006 40.4357 3.20006 39.9229L6.00006 28.2305C6.30006 26.2818 8.00006 24.9485 9.80006 24.9485H13.0001C13.6001 24.9485 14.0001 25.3587 14.0001 25.9741C14.0001 26.5895 13.6001 26.9998 13.0001 26.9998H9.90005C8.90005 26.9998 8.10006 27.6152 7.90006 28.6408L5.00006 40.3331C4.90006 40.8459 4.50006 41.1536 4.10006 41.1536Z" fill="white"/>
<path d="M45 45.4616H22C21.4 45.4616 21 45.0513 21 44.4359C21 43.8206 21.4 43.4103 22 43.4103H45C45.6 43.4103 46 43 46 42.3847V32.9488C44.8 33.7693 43.4 34.1795 42 34.1795C38.7 34.1795 36 31.4103 36 28.0257C36 24.6411 38.7 21.8718 42 21.8718C43.4 21.8718 44.8 22.3847 46 23.1026V13.6667C46 13.0513 45.6 12.6411 45 12.6411H34.8C33.7 12.6411 32.8 11.718 32.8 10.5898C32.8 10.1795 32.9 9.76927 33.1 9.46158C33.7 8.5385 34 7.51286 34 6.48722C34 4.23081 32.2 2.38466 30 2.38466C27.8 2.38466 26 4.23081 26 6.48722C26 7.51286 26.3 8.5385 26.9 9.46158C27.2 9.9744 27.3 10.4872 27.2 11C27.1 11.5129 26.8 12.0257 26.3 12.2308C26 12.4359 25.6 12.5385 25.3 12.5385H15C14.4 12.5385 14 12.9488 14 13.5641V29.9744C14 30.5898 13.6 31 13 31C12.4 31 12 30.5898 12 29.9744V13.6667C12 11.9231 13.3 10.5898 15 10.5898H25.2C24.5 9.35902 24 7.92312 24 6.48722C24 3.10261 26.7 0.333374 30 0.333374C33.3 0.333374 36 3.10261 36 6.48722C36 7.92312 35.5 9.35902 34.8 10.5898H45C46.7 10.5898 48 11.9231 48 13.6667V23.1026C48 23.5129 47.9 23.9231 47.7 24.2308C47.1 25.1539 45.9 25.4616 44.9 24.8462C44 24.2308 43 23.9231 42 23.9231C39.8 23.9231 38 25.7693 38 28.0257C38 30.2821 39.8 32.1283 42 32.1283C43 32.1283 44 31.8206 44.9 31.2052C45.2 31 45.6 30.8975 46 30.8975C47.1 30.8975 48 31.8206 48 32.9488V42.3847C48 44.1283 46.7 45.4616 45 45.4616Z" fill="white"/>
</g>
<defs>
<clipPath id="clip0_2_3780">
<rect width="48" height="53.3333" fill="white" transform="translate(0 0.333374)"/>
</clipPath>
</defs>
</svg>
