<svg width="24" height="25" viewBox="0 0 24 25" fill="none" xmlns="http://www.w3.org/2000/svg">
<g clip-path="url(#clip0_3100_21581)">
<path d="M21.6551 19.3793H2.34484C2.15441 19.3793 2 19.2172 2 19.0172V5.98278C2 5.78283 2.15441 5.6207 2.34484 5.6207H21.6552C21.8456 5.6207 22 5.78283 22 5.98278V19.0172C22 19.2172 21.8455 19.3793 21.6551 19.3793Z" fill="white"/>
<path d="M22 6.6791H2V5.98278C2 5.78283 2.15441 5.6207 2.34484 5.6207H21.6552C21.8456 5.6207 22 5.78283 22 5.98278L22 6.6791Z" fill="#FF4B55"/>
<path d="M22 9.85413H2V10.9125H22V9.85413Z" fill="#FF4B55"/>
<path d="M22 7.7373H2V8.79567H22V7.7373Z" fill="#FF4B55"/>
<path d="M22 13.0292H2.34484C2.15441 13.0292 2 12.8671 2 12.6671V11.9708H22V13.0292Z" fill="#FF4B55"/>
<path d="M22 16.2045H2V17.2629H22V16.2045Z" fill="#FF4B55"/>
<path d="M21.6551 19.3793H2.34484C2.15441 19.3793 2 19.2172 2 19.0172V18.321H22V19.0173C22 19.2172 21.8455 19.3793 21.6551 19.3793Z" fill="#FF4B55"/>
<path d="M22 14.0877H2V15.1461H22V14.0877Z" fill="#FF4B55"/>
<path d="M10.9655 5.62073H2.34484C2.15441 5.62073 2 5.78282 2 5.98277V12.6671C2 12.867 2.15441 13.0292 2.34484 13.0292H10.9655C11.156 13.0292 11.3104 12.867 11.3104 12.6671V5.98277C11.3103 5.78282 11.1559 5.62073 10.9655 5.62073Z" fill="#41479B"/>
<path d="M2.96821 6.45187L3.04454 6.69222L3.28583 6.69415C3.31708 6.69444 3.33001 6.73627 3.30489 6.75575L3.11079 6.90628L3.1836 7.14782C3.19306 7.17907 3.15911 7.205 3.13368 7.18588L2.93739 7.0386L2.74111 7.18592C2.71568 7.205 2.68181 7.17911 2.69119 7.14786L2.764 6.90632L2.5699 6.75579C2.54478 6.73627 2.55771 6.69448 2.58896 6.69419L2.83025 6.69226L2.90657 6.45191C2.91642 6.42074 2.95829 6.42074 2.96821 6.45187Z" fill="#F5F5F5"/>
<path d="M2.96821 7.70904L3.04454 7.94939L3.28583 7.95132C3.31708 7.95161 3.33001 7.99344 3.30489 8.01293L3.11079 8.16345L3.1836 8.40499C3.19306 8.43625 3.15911 8.46217 3.13368 8.44305L2.93739 8.29577L2.74111 8.4431C2.71568 8.46217 2.68181 8.43629 2.69119 8.40503L2.764 8.16349L2.5699 8.01297C2.54478 7.99344 2.55771 7.95165 2.58896 7.95136L2.83025 7.94943L2.90657 7.70908C2.91642 7.67795 2.95829 7.67795 2.96821 7.70904Z" fill="#F5F5F5"/>
<path d="M2.96821 8.96634L3.04454 9.20669L3.28583 9.20862C3.31708 9.20891 3.33001 9.25074 3.30489 9.27022L3.11079 9.42075L3.1836 9.6623C3.19306 9.69355 3.15911 9.71947 3.13368 9.70036L2.93739 9.55307L2.74111 9.7004C2.71568 9.71947 2.68181 9.69359 2.69119 9.66234L2.764 9.42079L2.5699 9.27027C2.54478 9.25074 2.55771 9.20895 2.58896 9.20866L2.83025 9.20673L2.90657 8.96638C2.91642 8.93525 2.95829 8.93525 2.96821 8.96634Z" fill="#F5F5F5"/>
<path d="M2.96821 10.2237L3.04454 10.464L3.28583 10.4659C3.31708 10.4662 3.33001 10.5081 3.30489 10.5275L3.11079 10.6781L3.1836 10.9196C3.19306 10.9509 3.15911 10.9768 3.13368 10.9577L2.93739 10.8104L2.74111 10.9577C2.71568 10.9768 2.68181 10.9509 2.69119 10.9197L2.764 10.6781L2.5699 10.5276C2.54478 10.5081 2.55771 10.4663 2.58896 10.466L2.83025 10.4641L2.90657 10.2237C2.91642 10.1925 2.95829 10.1925 2.96821 10.2237Z" fill="#F5F5F5"/>
<path d="M2.96821 11.481L3.04454 11.7213L3.28583 11.7232C3.31708 11.7235 3.33001 11.7654 3.30489 11.7848L3.11079 11.9354L3.1836 12.1769C3.19306 12.2082 3.15911 12.2341 3.13368 12.215L2.93739 12.0677L2.74111 12.215C2.71568 12.2341 2.68181 12.2082 2.69119 12.177L2.764 11.9354L2.5699 11.7849C2.54478 11.7654 2.55771 11.7236 2.58896 11.7233L2.83025 11.7214L2.90657 11.481C2.91642 11.4498 2.95829 11.4498 2.96821 11.481Z" fill="#F5F5F5"/>
<path d="M3.8979 7.06818L3.97423 7.30853L4.21552 7.31046C4.24677 7.31074 4.2597 7.35258 4.23458 7.37206L4.04048 7.52259L4.11329 7.76413C4.12274 7.79539 4.0888 7.82131 4.06337 7.80219L3.86708 7.65487L3.67079 7.80219C3.64536 7.82127 3.6115 7.79539 3.62087 7.76413L3.69368 7.52259L3.49958 7.37206C3.47447 7.35254 3.4874 7.31074 3.51865 7.31046L3.75993 7.30853L3.83626 7.06818C3.84607 7.03709 3.88802 7.03709 3.8979 7.06818Z" fill="#F5F5F5"/>
<path d="M3.8979 8.3255L3.97423 8.56585L4.21552 8.56778C4.24677 8.56806 4.2597 8.6099 4.23458 8.62938L4.04048 8.7799L4.11329 9.02144C4.12274 9.05269 4.0888 9.07861 4.06337 9.0595L3.86708 8.91218L3.67079 9.0595C3.64536 9.07857 3.6115 9.05273 3.62087 9.02144L3.69368 8.7799L3.49958 8.62938C3.47447 8.60986 3.4874 8.56806 3.51865 8.56778L3.75993 8.56585L3.83626 8.3255C3.84607 8.29437 3.88802 8.29437 3.8979 8.3255Z" fill="#F5F5F5"/>
<path d="M3.8979 9.5828L3.97423 9.82315L4.21552 9.82508C4.24677 9.82536 4.2597 9.8672 4.23458 9.88668L4.04048 10.0372L4.11329 10.2787C4.12274 10.31 4.0888 10.3359 4.06337 10.3168L3.86708 10.1695L3.67079 10.3168C3.64536 10.3359 3.6115 10.31 3.62087 10.2787L3.69368 10.0372L3.49958 9.88668C3.47447 9.86716 3.4874 9.82536 3.51865 9.82508L3.75993 9.82315L3.83626 9.5828C3.84607 9.55167 3.88802 9.55167 3.8979 9.5828Z" fill="#F5F5F5"/>
<path d="M3.8979 10.8401L3.97423 11.0804L4.21552 11.0824C4.24677 11.0827 4.2597 11.1245 4.23458 11.144L4.04048 11.2945L4.11329 11.536C4.12274 11.5673 4.0888 11.5932 4.06337 11.5741L3.86708 11.4268L3.67079 11.5741C3.64536 11.5932 3.6115 11.5673 3.62087 11.536L3.69368 11.2945L3.49958 11.144C3.47447 11.1245 3.4874 11.0827 3.51865 11.0824L3.75993 11.0804L3.83626 10.8401C3.84607 10.809 3.88802 10.809 3.8979 10.8401Z" fill="#F5F5F5"/>
<path d="M4.8276 6.45175L4.90392 6.6921L5.14521 6.69403C5.17646 6.69432 5.1894 6.73615 5.16428 6.75563L4.97017 6.90616L5.04299 7.1477C5.05244 7.17895 5.0185 7.20487 4.99307 7.18576L4.79677 7.03843L4.60048 7.18576C4.57505 7.20483 4.54119 7.17895 4.55056 7.1477L4.62338 6.90616L4.42927 6.75563C4.40415 6.73611 4.41708 6.69432 4.44833 6.69403L4.68963 6.6921L4.76595 6.45175C4.7758 6.42062 4.81771 6.42062 4.8276 6.45175Z" fill="#F5F5F5"/>
<path d="M4.8276 7.70905L4.90392 7.9494L5.14521 7.95133C5.17646 7.95161 5.1894 7.99345 5.16428 8.01293L4.97017 8.16346L5.04299 8.405C5.05244 8.43625 5.0185 8.46217 4.99307 8.44306L4.79677 8.29573L4.60048 8.44306C4.57505 8.46213 4.54119 8.43625 4.55056 8.405L4.62338 8.16346L4.42927 8.01293C4.40415 7.99341 4.41708 7.95161 4.44833 7.95133L4.68963 7.9494L4.76595 7.70905C4.7758 7.67796 4.81771 7.67796 4.8276 7.70905Z" fill="#F5F5F5"/>
<path d="M4.8276 8.96634L4.90392 9.2067L5.14521 9.20863C5.17646 9.20891 5.1894 9.25075 5.16428 9.27023L4.97017 9.42076L5.04299 9.66231C5.05244 9.69357 5.0185 9.71949 4.99307 9.70037L4.79677 9.55304L4.60048 9.70037C4.57505 9.71945 4.54119 9.69357 4.55056 9.66231L4.62338 9.42076L4.42927 9.27023C4.40415 9.25071 4.41708 9.20891 4.44833 9.20863L4.68963 9.2067L4.76595 8.96634C4.7758 8.93525 4.81771 8.93525 4.8276 8.96634Z" fill="#F5F5F5"/>
<path d="M4.8276 10.2237L4.90392 10.464L5.14521 10.4659C5.17646 10.4662 5.1894 10.5081 5.16428 10.5275L4.97017 10.6781L5.04299 10.9196C5.05244 10.9509 5.0185 10.9768 4.99307 10.9577L4.79677 10.8104L4.60048 10.9577C4.57505 10.9768 4.54119 10.9509 4.55056 10.9196L4.62338 10.6781L4.42927 10.5275C4.40415 10.508 4.41708 10.4662 4.44833 10.4659L4.68963 10.464L4.76595 10.2237C4.7758 10.1925 4.81771 10.1925 4.8276 10.2237Z" fill="#F5F5F5"/>
<path d="M4.8276 11.481L4.90392 11.7213L5.14521 11.7232C5.17646 11.7235 5.1894 11.7654 5.16428 11.7848L4.97017 11.9354L5.04299 12.1769C5.05244 12.2082 5.0185 12.2341 4.99307 12.215L4.79677 12.0677L4.60048 12.215C4.57505 12.2341 4.54119 12.2082 4.55056 12.1769L4.62338 11.9354L4.42927 11.7848C4.40415 11.7653 4.41708 11.7235 4.44833 11.7232L4.68963 11.7213L4.76595 11.481C4.7758 11.4498 4.81771 11.4498 4.8276 11.481Z" fill="#F5F5F5"/>
<path d="M5.7563 7.06818L5.83263 7.30853L6.07392 7.31046C6.10517 7.31074 6.1181 7.35258 6.09298 7.37206L5.89888 7.52259L5.97169 7.76413C5.98115 7.79539 5.9472 7.82131 5.92177 7.80219L5.72548 7.65487L5.52919 7.80219C5.50376 7.82127 5.4699 7.79539 5.47927 7.76413L5.55208 7.52259L5.35798 7.37206C5.33287 7.35254 5.3458 7.31074 5.37705 7.31046L5.61833 7.30853L5.69466 7.06818C5.70447 7.03709 5.74642 7.03709 5.7563 7.06818Z" fill="#F5F5F5"/>
<path d="M5.7563 8.3255L5.83263 8.56585L6.07392 8.56778C6.10517 8.56806 6.1181 8.6099 6.09298 8.62938L5.89888 8.7799L5.97169 9.02144C5.98115 9.05269 5.9472 9.07861 5.92177 9.0595L5.72548 8.91218L5.52919 9.0595C5.50376 9.07857 5.4699 9.05273 5.47927 9.02144L5.55208 8.7799L5.35798 8.62938C5.33287 8.60986 5.3458 8.56806 5.37705 8.56778L5.61833 8.56585L5.69466 8.3255C5.70447 8.29437 5.74642 8.29437 5.7563 8.3255Z" fill="#F5F5F5"/>
<path d="M5.7563 9.5828L5.83263 9.82315L6.07392 9.82508C6.10517 9.82536 6.1181 9.8672 6.09298 9.88668L5.89888 10.0372L5.97169 10.2787C5.98115 10.31 5.9472 10.3359 5.92177 10.3168L5.72548 10.1695L5.52919 10.3168C5.50376 10.3359 5.4699 10.31 5.47927 10.2787L5.55208 10.0372L5.35798 9.88668C5.33287 9.86716 5.3458 9.82536 5.37705 9.82508L5.61833 9.82315L5.69466 9.5828C5.70447 9.55167 5.74642 9.55167 5.7563 9.5828Z" fill="#F5F5F5"/>
<path d="M5.7563 10.8401L5.83263 11.0804L6.07392 11.0824C6.10517 11.0827 6.1181 11.1245 6.09298 11.144L5.89888 11.2945L5.97169 11.536C5.98115 11.5673 5.9472 11.5932 5.92177 11.5741L5.72548 11.4268L5.52919 11.5741C5.50376 11.5932 5.4699 11.5673 5.47927 11.536L5.55208 11.2945L5.35798 11.144C5.33287 11.1245 5.3458 11.0827 5.37705 11.0824L5.61833 11.0804L5.69466 10.8401C5.70447 10.809 5.74642 10.809 5.7563 10.8401Z" fill="#F5F5F5"/>
<path d="M6.68603 6.45175L6.76236 6.6921L7.00365 6.69403C7.0349 6.69432 7.04783 6.73615 7.02271 6.75563L6.82861 6.90616L6.90142 7.1477C6.91087 7.17895 6.87693 7.20487 6.8515 7.18576L6.65517 7.03843L6.45888 7.18576C6.43345 7.20483 6.39958 7.17895 6.40896 7.1477L6.48177 6.90616L6.28767 6.75563C6.26255 6.73611 6.27548 6.69432 6.30673 6.69403L6.54802 6.6921L6.62435 6.45175C6.63423 6.42062 6.67615 6.42062 6.68603 6.45175Z" fill="#F5F5F5"/>
<path d="M6.68603 7.70905L6.76236 7.9494L7.00365 7.95133C7.0349 7.95161 7.04783 7.99345 7.02271 8.01293L6.82861 8.16346L6.90142 8.405C6.91087 8.43625 6.87693 8.46217 6.8515 8.44306L6.65517 8.29573L6.45888 8.44306C6.43345 8.46213 6.39958 8.43625 6.40896 8.405L6.48177 8.16346L6.28767 8.01293C6.26255 7.99341 6.27548 7.95161 6.30673 7.95133L6.54802 7.9494L6.62435 7.70905C6.63423 7.67796 6.67615 7.67796 6.68603 7.70905Z" fill="#F5F5F5"/>
<path d="M6.68603 8.96634L6.76236 9.2067L7.00365 9.20863C7.0349 9.20891 7.04783 9.25075 7.02271 9.27023L6.82861 9.42076L6.90142 9.66231C6.91087 9.69357 6.87693 9.71949 6.8515 9.70037L6.65517 9.55304L6.45888 9.70037C6.43345 9.71945 6.39958 9.69357 6.40896 9.66231L6.48177 9.42076L6.28767 9.27023C6.26255 9.25071 6.27548 9.20891 6.30673 9.20863L6.54802 9.2067L6.62435 8.96634C6.63423 8.93525 6.67615 8.93525 6.68603 8.96634Z" fill="#F5F5F5"/>
<path d="M6.68603 10.2237L6.76236 10.464L7.00365 10.4659C7.0349 10.4662 7.04783 10.5081 7.02271 10.5275L6.82861 10.6781L6.90142 10.9196C6.91087 10.9509 6.87693 10.9768 6.8515 10.9577L6.65517 10.8104L6.45888 10.9577C6.43345 10.9768 6.39958 10.9509 6.40896 10.9196L6.48177 10.6781L6.28767 10.5275C6.26255 10.508 6.27548 10.4662 6.30673 10.4659L6.54802 10.464L6.62435 10.2237C6.63423 10.1925 6.67615 10.1925 6.68603 10.2237Z" fill="#F5F5F5"/>
<path d="M6.68603 11.481L6.76236 11.7213L7.00365 11.7232C7.0349 11.7235 7.04783 11.7654 7.02271 11.7848L6.82861 11.9354L6.90142 12.1769C6.91087 12.2082 6.87693 12.2341 6.8515 12.215L6.65517 12.0677L6.45888 12.215C6.43345 12.2341 6.39958 12.2082 6.40896 12.1769L6.48177 11.9354L6.28767 11.7848C6.26255 11.7653 6.27548 11.7235 6.30673 11.7232L6.54802 11.7213L6.62435 11.481C6.63423 11.4498 6.67615 11.4498 6.68603 11.481Z" fill="#F5F5F5"/>
<path d="M7.61568 7.06818L7.69201 7.30853L7.9333 7.31046C7.96455 7.31074 7.97748 7.35258 7.95237 7.37206L7.75826 7.52259L7.83107 7.76413C7.84053 7.79539 7.80658 7.82131 7.78115 7.80219L7.58486 7.65487L7.38857 7.80219C7.36314 7.82127 7.32927 7.79539 7.33865 7.76413L7.41146 7.52259L7.21736 7.37206C7.19224 7.35254 7.20517 7.31074 7.23642 7.31046L7.47771 7.30853L7.55404 7.06818C7.56392 7.03709 7.6058 7.03709 7.61568 7.06818Z" fill="#F5F5F5"/>
<path d="M7.61568 8.3255L7.69201 8.56585L7.9333 8.56778C7.96455 8.56806 7.97748 8.6099 7.95237 8.62938L7.75826 8.7799L7.83107 9.02144C7.84053 9.05269 7.80658 9.07861 7.78115 9.0595L7.58486 8.91218L7.38857 9.0595C7.36314 9.07857 7.32927 9.05273 7.33865 9.02144L7.41146 8.7799L7.21736 8.62938C7.19224 8.60986 7.20517 8.56806 7.23642 8.56778L7.47771 8.56585L7.55404 8.3255C7.56392 8.29437 7.6058 8.29437 7.61568 8.3255Z" fill="#F5F5F5"/>
<path d="M7.61568 9.5828L7.69201 9.82315L7.9333 9.82508C7.96455 9.82536 7.97748 9.8672 7.95237 9.88668L7.75826 10.0372L7.83107 10.2787C7.84053 10.31 7.80658 10.3359 7.78115 10.3168L7.58486 10.1695L7.38857 10.3168C7.36314 10.3359 7.32927 10.31 7.33865 10.2787L7.41146 10.0372L7.21736 9.88668C7.19224 9.86716 7.20517 9.82536 7.23642 9.82508L7.47771 9.82315L7.55404 9.5828C7.56392 9.55167 7.6058 9.55167 7.61568 9.5828Z" fill="#F5F5F5"/>
<path d="M7.61568 10.8401L7.69201 11.0804L7.9333 11.0824C7.96455 11.0827 7.97748 11.1245 7.95237 11.144L7.75826 11.2945L7.83107 11.536C7.84053 11.5673 7.80658 11.5932 7.78115 11.5741L7.58486 11.4268L7.38857 11.5741C7.36314 11.5932 7.32927 11.5673 7.33865 11.536L7.41146 11.2945L7.21736 11.144C7.19224 11.1245 7.20517 11.0827 7.23642 11.0824L7.47771 11.0804L7.55404 10.8401C7.56392 10.809 7.6058 10.809 7.61568 10.8401Z" fill="#F5F5F5"/>
<path d="M8.54439 6.45175L8.62072 6.6921L8.86201 6.69403C8.89326 6.69432 8.9062 6.73615 8.88108 6.75563L8.68697 6.90616L8.75979 7.1477C8.76924 7.17895 8.73529 7.20487 8.70986 7.18576L8.51357 7.03843L8.31728 7.18576C8.29185 7.20483 8.25798 7.17895 8.26736 7.1477L8.34017 6.90616L8.14607 6.75563C8.12095 6.73611 8.13388 6.69432 8.16513 6.69403L8.40642 6.6921L8.48275 6.45175C8.49256 6.42062 8.53451 6.42062 8.54439 6.45175Z" fill="#F5F5F5"/>
<path d="M8.54439 7.70905L8.62072 7.9494L8.86201 7.95133C8.89326 7.95161 8.9062 7.99345 8.88108 8.01293L8.68697 8.16346L8.75979 8.405C8.76924 8.43625 8.73529 8.46217 8.70986 8.44306L8.51357 8.29573L8.31728 8.44306C8.29185 8.46213 8.25798 8.43625 8.26736 8.405L8.34017 8.16346L8.14607 8.01293C8.12095 7.99341 8.13388 7.95161 8.16513 7.95133L8.40642 7.9494L8.48275 7.70905C8.49256 7.67796 8.53451 7.67796 8.54439 7.70905Z" fill="#F5F5F5"/>
<path d="M8.54439 8.96634L8.62072 9.2067L8.86201 9.20863C8.89326 9.20891 8.9062 9.25075 8.88108 9.27023L8.68697 9.42076L8.75979 9.66231C8.76924 9.69357 8.73529 9.71949 8.70986 9.70037L8.51357 9.55304L8.31728 9.70037C8.29185 9.71945 8.25798 9.69357 8.26736 9.66231L8.34017 9.42076L8.14607 9.27023C8.12095 9.25071 8.13388 9.20891 8.16513 9.20863L8.40642 9.2067L8.48275 8.96634C8.49256 8.93525 8.53451 8.93525 8.54439 8.96634Z" fill="#F5F5F5"/>
<path d="M8.54439 10.2237L8.62072 10.464L8.86201 10.4659C8.89326 10.4662 8.9062 10.5081 8.88108 10.5275L8.68697 10.6781L8.75979 10.9196C8.76924 10.9509 8.73529 10.9768 8.70986 10.9577L8.51357 10.8104L8.31728 10.9577C8.29185 10.9768 8.25798 10.9509 8.26736 10.9196L8.34017 10.6781L8.14607 10.5275C8.12095 10.508 8.13388 10.4662 8.16513 10.4659L8.40642 10.464L8.48275 10.2237C8.49256 10.1925 8.53451 10.1925 8.54439 10.2237Z" fill="#F5F5F5"/>
<path d="M8.54439 11.481L8.62072 11.7213L8.86201 11.7232C8.89326 11.7235 8.9062 11.7654 8.88108 11.7848L8.68697 11.9354L8.75979 12.1769C8.76924 12.2082 8.73529 12.2341 8.70986 12.215L8.51357 12.0677L8.31728 12.215C8.29185 12.2341 8.25798 12.2082 8.26736 12.1769L8.34017 11.9354L8.14607 11.7848C8.12095 11.7653 8.13388 11.7235 8.16513 11.7232L8.40642 11.7213L8.48275 11.481C8.49256 11.4498 8.53451 11.4498 8.54439 11.481Z" fill="#F5F5F5"/>
<path d="M9.47407 7.06818L9.5504 7.30853L9.79169 7.31046C9.82294 7.31074 9.83587 7.35258 9.81075 7.37206L9.61665 7.52259L9.68946 7.76413C9.69892 7.79539 9.66497 7.82131 9.63954 7.80219L9.44325 7.65487L9.24697 7.80219C9.22154 7.82127 9.18767 7.79539 9.19704 7.76413L9.26986 7.52259L9.07576 7.37206C9.05064 7.35254 9.06357 7.31074 9.09482 7.31046L9.33611 7.30853L9.41243 7.06818C9.42228 7.03709 9.46423 7.03709 9.47407 7.06818Z" fill="#F5F5F5"/>
<path d="M9.47407 8.3255L9.5504 8.56585L9.79169 8.56778C9.82294 8.56806 9.83587 8.6099 9.81075 8.62938L9.61665 8.7799L9.68946 9.02144C9.69892 9.05269 9.66497 9.07861 9.63954 9.0595L9.44325 8.91218L9.24697 9.0595C9.22154 9.07857 9.18767 9.05273 9.19704 9.02144L9.26986 8.7799L9.07576 8.62938C9.05064 8.60986 9.06357 8.56806 9.09482 8.56778L9.33611 8.56585L9.41243 8.3255C9.42228 8.29437 9.46423 8.29437 9.47407 8.3255Z" fill="#F5F5F5"/>
<path d="M9.47407 9.5828L9.5504 9.82315L9.79169 9.82508C9.82294 9.82536 9.83587 9.8672 9.81075 9.88668L9.61665 10.0372L9.68946 10.2787C9.69892 10.31 9.66497 10.3359 9.63954 10.3168L9.44325 10.1695L9.24697 10.3168C9.22154 10.3359 9.18767 10.31 9.19704 10.2787L9.26986 10.0372L9.07576 9.88668C9.05064 9.86716 9.06357 9.82536 9.09482 9.82508L9.33611 9.82315L9.41243 9.5828C9.42228 9.55167 9.46423 9.55167 9.47407 9.5828Z" fill="#F5F5F5"/>
<path d="M9.47407 10.8401L9.5504 11.0804L9.79169 11.0824C9.82294 11.0827 9.83587 11.1245 9.81075 11.144L9.61665 11.2945L9.68946 11.536C9.69892 11.5673 9.66497 11.5932 9.63954 11.5741L9.44325 11.4268L9.24697 11.5741C9.22154 11.5932 9.18767 11.5673 9.19704 11.536L9.26986 11.2945L9.07576 11.144C9.05064 11.1245 9.06357 11.0827 9.09482 11.0824L9.33611 11.0804L9.41243 10.8401C9.42228 10.809 9.46423 10.809 9.47407 10.8401Z" fill="#F5F5F5"/>
<path d="M10.4038 6.45175L10.4801 6.6921L10.7214 6.69403C10.7526 6.69432 10.7656 6.73615 10.7404 6.75563L10.5463 6.90616L10.6192 7.1477C10.6286 7.17895 10.5947 7.20487 10.5692 7.18576L10.3729 7.03843L10.1767 7.18576C10.1512 7.20483 10.1174 7.17895 10.1267 7.1477L10.1995 6.90616L10.0054 6.75563C9.98033 6.73611 9.99326 6.69432 10.0245 6.69403L10.2658 6.6921L10.3421 6.45175C10.352 6.42062 10.3938 6.42062 10.4038 6.45175Z" fill="#F5F5F5"/>
<path d="M10.4038 7.70905L10.4801 7.9494L10.7214 7.95133C10.7526 7.95161 10.7656 7.99345 10.7404 8.01293L10.5463 8.16346L10.6192 8.405C10.6286 8.43625 10.5947 8.46217 10.5692 8.44306L10.3729 8.29573L10.1767 8.44306C10.1512 8.46213 10.1174 8.43625 10.1267 8.405L10.1995 8.16346L10.0054 8.01293C9.98033 7.99341 9.99326 7.95161 10.0245 7.95133L10.2658 7.9494L10.3421 7.70905C10.352 7.67796 10.3938 7.67796 10.4038 7.70905Z" fill="#F5F5F5"/>
<path d="M10.4038 8.96634L10.4801 9.2067L10.7214 9.20863C10.7526 9.20891 10.7656 9.25075 10.7404 9.27023L10.5463 9.42076L10.6192 9.66231C10.6286 9.69357 10.5947 9.71949 10.5692 9.70037L10.3729 9.55304L10.1767 9.70037C10.1512 9.71945 10.1174 9.69357 10.1267 9.66231L10.1995 9.42076L10.0054 9.27023C9.98033 9.25071 9.99326 9.20891 10.0245 9.20863L10.2658 9.2067L10.3421 8.96634C10.352 8.93525 10.3938 8.93525 10.4038 8.96634Z" fill="#F5F5F5"/>
<path d="M10.4038 10.2237L10.4801 10.464L10.7214 10.4659C10.7526 10.4662 10.7656 10.5081 10.7404 10.5275L10.5463 10.6781L10.6192 10.9196C10.6286 10.9509 10.5947 10.9768 10.5692 10.9577L10.3729 10.8104L10.1767 10.9577C10.1512 10.9768 10.1174 10.9509 10.1267 10.9196L10.1995 10.6781L10.0054 10.5275C9.98033 10.508 9.99326 10.4662 10.0245 10.4659L10.2658 10.464L10.3421 10.2237C10.352 10.1925 10.3938 10.1925 10.4038 10.2237Z" fill="#F5F5F5"/>
<path d="M10.4038 11.481L10.4801 11.7213L10.7214 11.7232C10.7526 11.7235 10.7656 11.7654 10.7404 11.7848L10.5463 11.9354L10.6192 12.1769C10.6286 12.2082 10.5947 12.2341 10.5692 12.215L10.3729 12.0677L10.1767 12.215C10.1512 12.2341 10.1174 12.2082 10.1267 12.1769L10.1995 11.9354L10.0054 11.7848C9.98033 11.7653 9.99326 11.7235 10.0245 11.7232L10.2658 11.7213L10.3421 11.481C10.352 11.4498 10.3938 11.4498 10.4038 11.481Z" fill="#F5F5F5"/>
</g>
<defs>
<clipPath id="clip0_3100_21581">
<rect width="20" height="14" fill="white" transform="translate(2 5.5)"/>
</clipPath>
</defs>
</svg>
