<svg width="54" height="54" viewBox="0 0 54 54" fill="none" xmlns="http://www.w3.org/2000/svg">
<g clip-path="url(#clip0_2_9383)">
<path d="M26.9998 46.0471C16.5236 46.0471 7.95215 37.4757 7.95215 26.9995C7.95215 16.5233 16.5236 7.9519 26.9998 7.9519C37.476 7.9519 46.0474 16.5233 46.0474 26.9995C46.0474 37.4757 37.476 46.0471 26.9998 46.0471ZM26.9998 9.85667C17.5712 9.85667 9.85691 17.571 9.85691 26.9995C9.85691 36.4281 17.5712 44.1424 26.9998 44.1424C36.4283 44.1424 44.1426 36.4281 44.1426 26.9995C44.1426 17.571 36.4283 9.85667 26.9998 9.85667Z" fill="white"/>
<path d="M23.6665 45.7621C23.5712 45.7621 23.476 45.7621 23.3808 45.7621C20.8093 45.2859 18.4284 41.0002 18.1427 40.524C17.8569 40.0478 17.5712 39.4764 17.3808 39.0002C16.8093 37.5717 16.8093 36.6193 16.8093 35.9526C16.8093 35.4764 16.8093 35.0955 16.6189 34.6193C16.4284 34.1431 16.2379 33.9526 15.476 33.5717C14.8093 33.1907 13.7617 32.6193 12.5236 31.3812C11.2855 30.3336 10.3331 29.0002 9.57123 27.4764C8.80933 25.6669 8.42838 23.6669 8.61885 21.7621L10.5236 21.9526C10.3331 23.4764 10.6189 25.0002 11.1903 26.3336C11.2855 25.9526 11.476 25.5717 11.7617 25.1907C12.5236 24.0478 13.5712 23.2859 14.6189 23.1907C15.2855 23.0955 15.8569 23.3812 16.1427 23.5717C16.1427 23.4764 16.1427 23.4764 16.1427 23.3812C16.1427 22.7145 16.2379 21.8574 16.6189 20.8098C17.095 19.5717 17.9522 19.0002 18.5236 18.524C19.095 18.1431 19.476 17.8574 19.6665 17.1907C19.8569 16.7145 19.8569 16.3336 19.7617 15.8574C19.7617 15.2859 19.6665 14.524 20.1427 13.4764C20.5236 12.7145 20.9998 12.2383 21.2855 11.9526C20.9998 11.8574 20.3331 11.6669 19.095 11.4764L19.2855 9.57166C21.095 9.76213 23.095 10.2383 23.2855 11.5717C23.476 12.3336 22.9046 12.905 22.5236 13.2859C22.2379 13.5717 21.9522 13.8574 21.7617 14.3336C21.476 14.905 21.476 15.1907 21.5712 15.7621C21.5712 16.3336 21.6665 16.905 21.3808 17.8574C20.9046 19.0955 20.1427 19.6669 19.476 20.1431C18.9046 20.524 18.5236 20.8098 18.2379 21.5717C17.9522 22.2383 17.9522 22.905 17.8569 23.4764C17.7617 24.2383 17.7617 25.0955 16.9046 25.4764C16.1427 25.8574 15.476 25.4764 15.095 25.2859C14.8093 25.0955 14.6189 25.0002 14.4284 25.0955C14.0474 25.0955 13.476 25.5717 13.095 26.2383C12.6189 27.0002 12.4284 27.7621 12.6189 28.2383C12.8093 28.6193 13.5712 29.6669 17.2855 29.6669C18.5236 29.6669 19.2855 29.4764 20.0474 29.1907C20.9046 28.905 21.8569 28.6193 23.2855 28.905C25.3808 29.2859 27.7617 30.7145 28.4284 33.0002C28.7141 34.7145 28.4284 36.3336 27.476 37.7621C26.9046 38.8098 26.2379 39.3812 25.6665 39.9526C25.1903 40.4288 24.7141 40.8098 24.4284 41.5717C24.0474 42.4288 24.2379 43.2859 24.3331 43.8574C24.4284 44.4288 24.5236 45.0002 24.0474 45.3812C24.2379 45.6669 23.9522 45.7621 23.6665 45.7621ZM15.9522 31.4764C16.1427 31.5717 16.3331 31.6669 16.5236 31.8574C17.3808 32.3336 18.0474 32.7145 18.5236 33.8574C18.8093 34.6193 18.8093 35.1907 18.8093 35.7621C18.8093 36.4288 18.8093 37.0955 19.1903 38.1431C19.3808 38.6193 19.5712 39.0002 19.8569 39.4764C20.5236 40.6193 21.5712 42.2383 22.6188 43.0955C22.5236 42.4288 22.6188 41.5717 22.9998 40.7145C23.476 39.5717 24.1427 39.0002 24.7141 38.4288C25.1903 37.9526 25.6665 37.5717 26.1427 36.7145C26.8093 35.6669 26.9998 34.524 26.8093 33.3812C26.4284 31.9526 24.6188 31.0002 23.1903 30.7145C22.2379 30.524 21.6665 30.7145 20.9046 30.905C20.1427 31.0955 19.095 31.3812 17.5712 31.3812C16.9998 31.5717 16.4284 31.5717 15.9522 31.4764Z" fill="white"/>
<path d="M40.6184 38.048C39.8565 34.5242 38.5232 32.3337 36.8089 31.5718C35.9517 31.1909 35.1898 31.1909 34.3327 31.1909C33.0946 31.1909 31.7613 31.1909 30.4279 30.1433C28.9041 28.8099 28.047 26.8099 28.3327 24.8099C28.6184 22.7147 30.047 20.8099 32.3327 19.4766C31.5708 19.5718 30.6184 19.1909 29.7613 18.429C28.8089 17.6671 27.9517 16.429 28.2375 15.2861C28.4279 14.5242 29.0946 14.1433 29.5708 13.8576C29.7613 13.7623 29.9517 13.5718 30.047 13.5718C30.047 13.5718 29.9517 13.3814 29.8565 13.1909C29.5708 12.8099 29.2851 12.2385 29.2851 11.4766V11.3814C29.3803 10.3337 30.047 9.38136 30.9041 8.80994L31.8565 10.429C31.4755 10.6195 31.1898 11.0957 31.0946 11.4766C31.0946 11.6671 31.1898 11.8576 31.3803 12.1433C31.666 12.5242 32.047 13.1909 31.8565 13.9528C31.666 14.8099 30.9994 15.1909 30.5232 15.4766C30.3327 15.5718 30.1422 15.7623 30.047 15.7623C30.047 15.8576 30.2375 16.3337 30.8089 16.9052C31.3803 17.4766 31.9517 17.5718 32.047 17.5718C32.047 17.4766 32.1422 17.0004 32.1422 16.7147C32.2375 15.7623 32.3327 14.5242 33.3803 13.7623C34.2375 13.0956 35.666 12.8099 36.9041 13.0956C38.047 13.3814 38.9994 13.9528 39.4755 14.8099C40.047 15.8576 40.047 17.0956 39.4755 18.1433C38.8089 19.3814 37.5708 19.6671 36.4279 19.9528C35.666 20.1433 34.8089 20.3337 33.7613 20.8099C32.4279 21.4766 30.2375 22.9052 29.9517 25.0956C29.7613 26.5242 30.3327 27.8575 31.3803 28.8099C32.1422 29.4766 32.9994 29.3814 34.047 29.3814C34.9994 29.3814 36.1422 29.3814 37.3803 29.8575C39.7613 30.9052 41.3803 33.4766 42.3327 37.6671L40.6184 38.048ZM36.047 14.8099C35.4755 14.8099 34.9994 14.9052 34.7136 15.1909C34.3327 15.4766 34.2375 15.9528 34.2375 16.8099C34.1422 17.3814 34.1422 18.1433 33.666 18.7147C34.7136 18.2385 35.5708 18.048 36.3327 17.9528C37.4755 17.6671 37.8565 17.5718 38.1422 17.0956C38.4279 16.6195 38.4279 16.048 38.1422 15.6671C37.9517 15.2861 37.4755 15.0004 36.8089 14.9052C36.4279 14.8099 36.2375 14.8099 36.047 14.8099Z" fill="white"/>
<path d="M26.9997 53.6673C12.333 53.6673 0.333008 41.6673 0.333008 27.0006C0.333008 26.4292 0.71396 26.0482 1.28539 26.0482C1.85682 26.0482 2.23777 26.4292 2.23777 27.0006C2.23777 40.6196 13.3806 51.7625 26.9997 51.7625C27.5711 51.7625 27.9521 52.1435 27.9521 52.7149C27.9521 53.2863 27.5711 53.6673 26.9997 53.6673Z" fill="white"/>
<path d="M52.7135 27.9524C52.1421 27.9524 51.7612 27.5715 51.7612 27C51.7612 13.381 40.6183 2.23814 26.9993 2.23814C26.4278 2.23814 26.0469 1.85718 26.0469 1.28575C26.0469 0.714326 26.4278 0.333374 26.9993 0.333374C41.6659 0.333374 53.6659 12.3334 53.6659 27C53.6659 27.5715 53.285 27.9524 52.7135 27.9524Z" fill="white"/>
<path d="M31.4758 53.285C31.3806 53.285 31.1901 53.285 31.0949 53.1898C30.9996 53.0945 30.9044 53.0945 30.8092 52.9993C30.6187 52.8088 30.5234 52.6183 30.5234 52.3326C30.5234 52.2374 30.5234 52.0469 30.6187 51.9517C30.6187 51.8564 30.7139 51.7612 30.8092 51.666C31.1901 51.285 31.8568 51.285 32.1425 51.666C32.2377 51.7612 32.333 51.8564 32.333 51.9517C32.4282 52.0469 32.4282 52.1422 32.4282 52.3326C32.4282 52.6183 32.333 52.8088 32.1425 52.9993C31.952 53.1898 31.7615 53.285 31.4758 53.285Z" fill="white"/>
<path d="M35.762 52.1431C35.4762 52.1431 35.2858 52.0478 35.0953 51.8573C34.9048 51.6669 34.8096 51.4764 34.8096 51.1907C34.8096 51.0954 34.8096 50.905 34.9048 50.8097C35 50.7145 35 50.6192 35.0953 50.524C35.4762 50.143 36.0477 50.143 36.4286 50.524C36.5239 50.6192 36.6191 50.7145 36.6191 50.8097C36.7143 50.905 36.7143 51.0002 36.7143 51.1907C36.7143 51.3811 36.7143 51.4764 36.6191 51.5716C36.6191 51.6669 36.5239 51.7621 36.4286 51.8573C36.3334 52.0478 36.0477 52.1431 35.762 52.1431Z" fill="white"/>
<path d="M39.8567 50.2381C39.7614 50.2381 39.571 50.2381 39.4757 50.1429C39.3805 50.0477 39.2852 50.0477 39.19 49.9524C39.0948 49.8572 38.9995 49.7619 38.9995 49.6667C38.9995 49.5715 38.9043 49.4762 38.9043 49.2858C38.9043 49.1905 38.9043 49 38.9995 48.9048C38.9995 48.8096 39.0948 48.7143 39.19 48.6191C39.571 48.2381 40.1424 48.2381 40.5233 48.6191C40.6186 48.7143 40.7138 48.8096 40.7138 48.9048C40.7138 49 40.8091 49.0953 40.8091 49.2858C40.8091 49.381 40.8091 49.5715 40.7138 49.6667C40.6186 49.7619 40.6186 49.8572 40.5233 49.9524C40.4281 50.0477 40.3329 50.1429 40.2376 50.1429C40.1424 50.2381 39.9519 50.2381 39.8567 50.2381Z" fill="white"/>
<path d="M43.5715 47.6665C43.2858 47.6665 43.0953 47.5712 42.9049 47.3808C42.8096 47.2855 42.7144 47.1903 42.7144 47.0951C42.7144 46.9998 42.6191 46.9046 42.6191 46.7141C42.6191 46.4284 42.7144 46.2379 42.9049 46.0474C43.2858 45.6665 43.9525 45.6665 44.2382 46.0474C44.4287 46.2379 44.5239 46.4284 44.5239 46.7141C44.5239 46.8093 44.5239 46.9998 44.4287 47.0951C44.3334 47.1903 44.3334 47.2855 44.2382 47.3808C44.1429 47.476 44.0477 47.5712 43.9525 47.5712C43.762 47.5712 43.6668 47.6665 43.5715 47.6665Z" fill="white"/>
<path d="M46.7141 44.5246C46.4284 44.5246 46.2379 44.4294 46.0474 44.2389C45.857 44.0484 45.7617 43.858 45.7617 43.5723C45.7617 43.2865 45.857 43.0961 46.0474 42.9056C46.2379 42.7151 46.6189 42.6199 46.9046 42.6199C46.9998 42.6199 46.9998 42.6199 47.0951 42.7151C47.1903 42.7151 47.1903 42.7151 47.2855 42.8103C47.3808 42.8103 47.3808 42.9056 47.476 42.9056C47.6665 43.0961 47.7617 43.3818 47.7617 43.5723C47.7617 43.858 47.6665 44.0484 47.476 44.2389C47.3808 44.3342 47.2855 44.4294 47.1903 44.4294C47.0951 44.4294 46.8093 44.5246 46.7141 44.5246Z" fill="white"/>
<path d="M49.2854 40.8098C49.1901 40.8098 48.9997 40.8098 48.9044 40.7145C48.8092 40.6193 48.714 40.6193 48.6187 40.524C48.5235 40.4288 48.4282 40.3336 48.4282 40.2383C48.333 40.1431 48.333 40.0478 48.333 39.8574C48.333 39.5717 48.4282 39.3812 48.6187 39.1907C48.9044 38.905 49.2854 38.8097 49.6663 39.0002C49.7616 39.0955 49.8568 39.0955 49.952 39.1907C50.1425 39.3812 50.2378 39.6669 50.2378 39.8574C50.2378 39.9526 50.2378 40.1431 50.1425 40.2383C50.1425 40.3336 50.0473 40.4288 49.952 40.524C49.7616 40.7145 49.4759 40.8098 49.2854 40.8098Z" fill="white"/>
<path d="M51.1907 36.7147C50.9049 36.7147 50.7145 36.6195 50.524 36.429C50.4288 36.3338 50.3335 36.2385 50.3335 36.1433C50.3335 36.048 50.2383 35.9528 50.2383 35.7623C50.2383 35.5718 50.2383 35.4766 50.3335 35.3814C50.3335 35.2861 50.4288 35.1909 50.524 35.0957C50.9049 34.7147 51.4764 34.7147 51.8573 35.0957C51.9526 35.1909 52.0478 35.2861 52.0478 35.3814C52.0478 35.4766 52.143 35.5718 52.143 35.7623C52.143 35.9528 52.143 36.048 52.0478 36.1433C51.9526 36.2385 51.9526 36.3338 51.8573 36.429C51.7621 36.5242 51.6669 36.6195 51.5716 36.6195C51.4764 36.6195 51.2859 36.7147 51.1907 36.7147Z" fill="white"/>
<path d="M52.3332 32.4282C52.0475 32.4282 51.8571 32.333 51.6666 32.1425C51.5713 32.0473 51.4761 31.952 51.4761 31.8568C51.4761 31.7615 51.3809 31.6663 51.3809 31.4758C51.3809 31.2853 51.3809 31.1901 51.4761 31.0949C51.4761 30.9996 51.5713 30.9044 51.6666 30.8092C52.0475 30.4282 52.619 30.4282 52.9999 30.8092C53.0951 30.9044 53.1904 30.9996 53.1904 31.0949C53.1904 31.1901 53.2856 31.2853 53.2856 31.4758C53.2856 31.6663 53.2856 31.7615 53.1904 31.8568C53.0952 31.952 53.0951 32.0473 52.9999 32.1425C52.9047 32.2377 52.8094 32.333 52.7142 32.333C52.619 32.333 52.4285 32.4282 52.3332 32.4282Z" fill="white"/>
<path d="M22.5232 2.61961C22.428 2.61961 22.428 2.61961 22.3327 2.61961C22.2375 2.61961 22.2375 2.61961 22.1423 2.52437C22.047 2.52437 22.047 2.42913 21.9518 2.42913C21.8565 2.42913 21.8565 2.33389 21.7613 2.33389C21.6661 2.23865 21.5708 2.14342 21.5708 2.04818C21.5708 1.95294 21.4756 1.8577 21.4756 1.66722C21.4756 1.38151 21.5708 1.19103 21.7613 1.00056C21.8565 1.00056 21.8565 0.90532 21.9518 0.90532C22.047 0.90532 22.047 0.810082 22.1423 0.810082C22.2375 0.810082 22.2375 0.810082 22.3327 0.714844C22.5232 0.714844 22.7137 0.714844 22.9042 0.810082C22.9994 0.90532 23.0946 0.90532 23.1899 1.00056C23.3803 1.19103 23.4756 1.38151 23.4756 1.66722C23.4756 1.95294 23.3803 2.14342 23.1899 2.33389C22.9994 2.52437 22.8089 2.61961 22.5232 2.61961Z" fill="white"/>
<path d="M18.2375 3.76153C18.1423 3.76153 17.9518 3.76153 17.8566 3.66629C17.7613 3.66629 17.6661 3.57105 17.5709 3.47581L17.4756 3.38057C17.4756 3.28534 17.3804 3.28534 17.3804 3.1901C17.3804 3.09486 17.3804 3.09486 17.2852 2.99962C17.2852 2.90438 17.2852 2.90438 17.2852 2.80915C17.2852 2.71391 17.2852 2.71391 17.2852 2.61867C17.2852 2.52343 17.2852 2.52343 17.3804 2.42819C17.3804 2.33295 17.4756 2.33295 17.4756 2.23772C17.4756 2.23772 17.4756 2.23772 17.5709 2.14248C17.6661 2.04724 17.7613 1.952 17.8566 1.952C18.2375 1.76153 18.6185 1.85676 18.9042 2.14248C18.9042 2.14248 18.9994 2.23772 18.9994 2.33295C18.9994 2.33295 19.0947 2.42819 19.0947 2.52343C19.0947 2.61867 19.0947 2.61867 19.1899 2.71391C19.1899 2.80915 19.1899 2.80915 19.1899 2.90438C19.1899 2.99962 19.1899 2.99962 19.1899 3.09486C19.1899 3.1901 19.1899 3.1901 19.0947 3.28534C19.0947 3.38057 18.9994 3.38057 18.9994 3.47581L18.9042 3.57105C18.809 3.66629 18.7137 3.76153 18.6185 3.76153C18.428 3.76153 18.3328 3.76153 18.2375 3.76153Z" fill="white"/>
<path d="M14.1428 5.66611C14.0476 5.66611 13.8571 5.66611 13.7619 5.57087C13.6666 5.47563 13.5714 5.47563 13.4761 5.38039C13.3809 5.28516 13.2857 5.18992 13.2857 5.09468C13.2857 4.99944 13.1904 4.9042 13.1904 4.71373C13.1904 4.61849 13.1904 4.42801 13.2857 4.33278C13.3809 4.23754 13.3809 4.1423 13.4761 4.04706C13.5714 3.95182 13.6666 3.85658 13.7619 3.85658C13.9523 3.76135 14.2381 3.76135 14.5238 3.85658C14.619 3.85658 14.7142 3.95182 14.8095 4.04706C14.9047 4.1423 15 4.23754 15 4.33278C15.0952 4.42801 15.0952 4.52325 15.0952 4.71373C15.0952 4.99944 15 5.18992 14.8095 5.38039C14.619 5.57087 14.4285 5.66611 14.1428 5.66611Z" fill="white"/>
<path d="M10.428 8.23828C10.3327 8.23828 10.3327 8.23828 10.2375 8.23828C10.1423 8.23828 10.1423 8.23828 10.047 8.14304C9.95178 8.14304 9.95178 8.14304 9.85654 8.0478L9.7613 7.95257C9.66606 7.85733 9.66606 7.76209 9.57082 7.66685C9.57082 7.57161 9.47559 7.47638 9.47559 7.2859C9.47559 7.19066 9.47559 7.19066 9.47559 7.09542C9.47559 7.00019 9.47559 7.00019 9.57082 6.90495C9.57082 6.80971 9.66606 6.80971 9.66606 6.71447C9.66606 6.61923 9.7613 6.61923 9.7613 6.524C10.1423 6.14304 10.8089 6.14304 11.0946 6.524C11.2851 6.71447 11.3803 7.00019 11.3803 7.19066C11.3803 7.2859 11.3803 7.47638 11.2851 7.57161C11.1899 7.66685 11.1899 7.76209 11.0946 7.85733C11.0946 7.85733 10.9994 7.95257 10.9042 7.95257C10.8089 7.95257 10.8089 8.0478 10.7137 8.0478C10.6184 8.0478 10.6184 8.14304 10.5232 8.14304C10.6184 8.23828 10.5232 8.23828 10.428 8.23828Z" fill="white"/>
<path d="M7.28539 11.3801C7.19015 11.3801 7.19015 11.3801 7.09491 11.3801C6.99967 11.3801 6.99967 11.3801 6.90444 11.2849C6.8092 11.2849 6.8092 11.1896 6.71396 11.1896L6.61872 11.0944C6.52348 10.9992 6.42825 10.9039 6.42825 10.8087C6.33301 10.7134 6.33301 10.6182 6.33301 10.4277C6.33301 10.3325 6.33301 10.3325 6.33301 10.2372C6.33301 10.142 6.33301 10.142 6.42825 10.0468C6.42825 9.95153 6.42825 9.95153 6.52348 9.85629C6.52348 9.76106 6.61872 9.76106 6.61872 9.76106L6.71396 9.66582C6.8092 9.66582 6.8092 9.57058 6.90444 9.57058C6.99967 9.57058 6.99967 9.57058 7.09491 9.47534C7.28539 9.47534 7.47586 9.47534 7.66634 9.57058C7.76158 9.66582 7.85682 9.66582 7.95206 9.76106L8.04729 9.85629C8.04729 9.95153 8.14253 9.95153 8.14253 10.0468C8.14253 10.142 8.23777 10.142 8.23777 10.2372C8.23777 10.3325 8.23777 10.3325 8.23777 10.4277C8.23777 10.523 8.23777 10.7134 8.14253 10.8087C8.14253 10.9039 8.04729 10.9992 7.95206 11.0944C7.85682 11.1896 7.76158 11.2849 7.66634 11.2849C7.5711 11.3801 7.38063 11.3801 7.28539 11.3801Z" fill="white"/>
<path d="M4.71363 15.0955C4.6184 15.0955 4.6184 15.0955 4.52316 15.0955C4.42792 15.0955 4.42792 15.0955 4.33268 15.0003C4.23744 15.0003 4.23744 15.0003 4.14221 14.905C4.04697 14.905 4.04697 14.8098 3.95173 14.8098C3.85649 14.7146 3.76125 14.6193 3.76125 14.5241C3.76125 14.4288 3.66602 14.3336 3.66602 14.1431C3.66602 13.8574 3.76125 13.6669 3.95173 13.4765C4.04697 13.4765 4.04697 13.3812 4.14221 13.3812C4.23744 13.3812 4.23744 13.286 4.33268 13.286C4.42792 13.286 4.42792 13.1907 4.52316 13.1907C4.80887 13.0955 5.18983 13.1907 5.3803 13.4765C5.57078 13.6669 5.66602 13.8574 5.66602 14.1431C5.66602 14.2384 5.66602 14.4288 5.57078 14.5241C5.47554 14.6193 5.47554 14.7146 5.3803 14.8098C5.3803 14.8098 5.28506 14.905 5.18983 14.905C5.09459 14.905 5.09459 15.0003 4.99935 15.0003C4.90411 15.0003 4.90411 15.0003 4.80887 15.0955C4.90411 15.0955 4.80887 15.0955 4.71363 15.0955Z" fill="white"/>
<path d="M2.80883 19.1912C2.52311 19.1912 2.33264 19.096 2.14216 18.9055C2.04692 18.8103 1.95168 18.715 1.95168 18.6198C1.85645 18.5245 1.85645 18.4293 1.85645 18.2388C1.85645 17.9531 1.95168 17.7626 2.14216 17.5722C2.42787 17.2865 2.80883 17.1912 3.18978 17.3817C3.28502 17.3817 3.38025 17.4769 3.47549 17.5722C3.66597 17.7626 3.76121 17.9531 3.76121 18.2388C3.76121 18.3341 3.76121 18.5245 3.66597 18.6198C3.66597 18.715 3.57073 18.8103 3.47549 18.9055C3.28502 19.096 3.09454 19.1912 2.80883 19.1912Z" fill="white"/>
<path d="M1.66625 23.4764C1.38053 23.4764 1.19006 23.3811 0.999581 23.1907C0.809105 23.0002 0.713867 22.7145 0.713867 22.524C0.713867 22.2383 0.809105 22.0478 0.999581 21.8573C1.09482 21.7621 1.19006 21.6668 1.2853 21.6668C1.66625 21.4764 2.0472 21.5716 2.33291 21.8573C2.52339 22.0478 2.61863 22.2383 2.61863 22.524C2.61863 22.6192 2.61863 22.8097 2.52339 22.9049C2.52339 23.0002 2.42815 23.0954 2.33291 23.1907L2.23768 23.2859C2.14244 23.2859 2.14244 23.3811 2.0472 23.3811C1.95196 23.3811 1.95196 23.3811 1.85672 23.4764C1.76149 23.4764 1.76149 23.4764 1.66625 23.4764Z" fill="white"/>
</g>
<defs>
<clipPath id="clip0_2_9383">
<rect width="53.3333" height="53.3333" fill="white" transform="translate(0.333008 0.333374)"/>
</clipPath>
</defs>
</svg>
