<svg width="28" height="28" viewBox="0 0 28 28" fill="none" xmlns="http://www.w3.org/2000/svg">
<g clip-path="url(#clip0_2_253)">
<path d="M21.7235 13.9731C21.9393 13.9731 22.1142 13.7982 22.1142 13.5825C22.1142 13.3668 21.9393 13.1919 21.7235 13.1919H21.2792V9.40743C21.2792 8.96181 20.9167 8.59931 20.471 8.59931H18.801C18.3554 8.59931 17.9929 8.96181 17.9929 9.40743V13.1919H17.1042V11.4949C17.1042 11.0493 16.7417 10.6868 16.296 10.6868H14.626C14.1804 10.6868 13.8179 11.0493 13.8179 11.4949V13.1919H12.9291V8.98994C12.9291 8.77421 12.7542 8.59931 12.5385 8.59931C12.3228 8.59931 12.1479 8.77421 12.1479 8.98994V13.1919H10.4241V6.48488C10.4241 6.47004 10.4361 6.45801 10.4509 6.45801H12.1209C12.1358 6.45801 12.1478 6.47004 12.1478 6.48488V7.31993C12.1478 7.53566 12.3227 7.71056 12.5384 7.71056C12.7542 7.71056 12.9291 7.53566 12.9291 7.31993V6.48488C12.9291 6.03926 12.5666 5.67676 12.1209 5.67676H10.4509C10.0053 5.67676 9.64281 6.03926 9.64281 6.48488V13.1919H8.75406V9.82494C8.75406 9.37931 8.39156 9.01681 7.94594 9.01681H6.27594C5.83031 9.01681 5.46781 9.37931 5.46781 9.82494V13.1919H5.02344C4.80771 13.1919 4.63281 13.3668 4.63281 13.5825C4.63281 13.7982 4.80771 13.9731 5.02344 13.9731H21.7235ZM18.7741 9.40743C18.7741 9.39259 18.7861 9.38056 18.801 9.38056H20.471C20.4858 9.38056 20.4979 9.39259 20.4979 9.40743V13.1919H18.7741V9.40743H18.7741ZM14.5991 11.4949C14.5991 11.4801 14.6111 11.4681 14.6259 11.4681H16.2959C16.3108 11.4681 16.3228 11.4801 16.3228 11.4949V13.1919H14.599V11.4949H14.5991ZM6.24896 9.82494C6.24896 9.81009 6.26099 9.79806 6.27583 9.79806H7.94583C7.96068 9.79806 7.97271 9.81009 7.97271 9.82494V13.1919H6.24891V9.82494H6.24896Z" fill="#999999"/>
<path d="M19.2188 24.8822H3.77102C3.75617 24.8822 3.74414 24.8701 3.74414 24.8553V1.47487C3.74414 1.46003 3.75617 1.448 3.77102 1.448H18.2825C18.3259 1.448 18.3685 1.45222 18.4106 1.45847V5.23248C18.4106 5.6781 18.7731 6.0406 19.2187 6.0406H22.9927C22.999 6.08269 23.0032 6.12529 23.0032 6.16862V21.9327C23.0032 22.1485 23.178 22.3234 23.3938 22.3234C23.6095 22.3234 23.7844 22.1485 23.7844 21.9327V6.16857C23.7844 5.72967 23.6135 5.31706 23.3032 5.0067L19.4444 1.148C19.134 0.837633 18.7214 0.666748 18.2825 0.666748H3.77102C3.32539 0.666748 2.96289 1.02925 2.96289 1.47487V24.8552C2.96289 25.3009 3.32539 25.6634 3.77102 25.6634H19.2188C19.4345 25.6634 19.6094 25.4885 19.6094 25.2727C19.6094 25.057 19.4345 24.8822 19.2188 24.8822ZM22.451 5.2593H19.2188C19.2039 5.2593 19.1919 5.24727 19.1919 5.23243V2.00029L22.451 5.2593Z" fill="#999999"/>
<path d="M24.6783 25.2412L21.7559 22.3189C21.5246 22.0872 21.2167 21.9596 20.8891 21.9596C20.6966 21.9596 20.511 22.0041 20.3437 22.0874L19.6122 21.3559C20.1323 20.7146 20.4448 19.8984 20.4448 19.0102C20.4448 16.9531 18.7712 15.2795 16.7141 15.2795C14.6569 15.2795 12.9834 16.9531 12.9834 19.0102C12.9834 21.0673 14.657 22.7409 16.7141 22.7409C17.6022 22.7409 18.4185 22.4284 19.0598 21.9083L19.7913 22.6399C19.7079 22.8072 19.6636 22.9928 19.6636 23.1853C19.6636 23.5127 19.7911 23.8205 20.0226 24.0518L22.945 26.9742C23.1763 27.2058 23.4841 27.3334 23.8117 27.3334C24.1393 27.3334 24.4472 27.2059 24.6783 26.9745C24.9098 26.743 25.0374 26.4352 25.0374 26.1078C25.0374 25.7803 24.9097 25.4726 24.6783 25.2412V25.2412ZM13.7646 19.0102C13.7646 17.3839 15.0877 16.0608 16.714 16.0608C18.3403 16.0608 19.6635 17.3839 19.6635 19.0102C19.6635 20.6365 18.3403 21.9596 16.714 21.9596C15.0877 21.9596 13.7646 20.6365 13.7646 19.0102ZM20.4447 23.1853C20.4447 23.0666 20.491 22.9551 20.5751 22.8709C20.6588 22.787 20.7704 22.7408 20.8891 22.7408C21.0078 22.7408 21.1193 22.787 21.2033 22.871L21.5794 23.2472L20.9511 23.8755L20.5748 23.4993C20.4909 23.4155 20.4447 23.3039 20.4447 23.1853V23.1853ZM24.1256 26.4221C24.0419 26.506 23.9304 26.5522 23.8116 26.5522C23.6929 26.5522 23.5814 26.506 23.4975 26.422L21.5035 24.428L22.1318 23.7996L24.1259 25.7937C24.2098 25.8776 24.2561 25.9891 24.2561 26.1078C24.2561 26.2264 24.2098 26.338 24.1256 26.4221V26.4221Z" fill="#999999"/>
<path d="M6.27637 16.0608H7.11137C7.3271 16.0608 7.502 15.8859 7.502 15.6702C7.502 15.4544 7.3271 15.2795 7.11137 15.2795H6.27637C6.06064 15.2795 5.88574 15.4544 5.88574 15.6702C5.88574 15.8859 6.06064 16.0608 6.27637 16.0608V16.0608Z" fill="#999999"/>
<path d="M6.27637 17.7307H7.11137C7.3271 17.7307 7.502 17.5558 7.502 17.3401C7.502 17.1244 7.3271 16.9495 7.11137 16.9495H6.27637C6.06064 16.9495 5.88574 17.1244 5.88574 17.3401C5.88574 17.5558 6.06064 17.7307 6.27637 17.7307V17.7307Z" fill="#999999"/>
<path d="M12.9294 15.6702C12.9294 15.4544 12.7545 15.2795 12.5388 15.2795H8.78125C8.56552 15.2795 8.39062 15.4544 8.39062 15.6702C8.39062 15.8859 8.56552 16.0608 8.78125 16.0608H12.5388C12.7545 16.0608 12.9294 15.8859 12.9294 15.6702V15.6702Z" fill="#999999"/>
<path d="M12.0944 17.3401C12.0944 17.1244 11.9195 16.9495 11.7038 16.9495H8.78125C8.56552 16.9495 8.39062 17.1244 8.39062 17.3401C8.39062 17.5558 8.56552 17.7307 8.78125 17.7307H11.7038C11.9195 17.7307 12.0944 17.5558 12.0944 17.3401Z" fill="#999999"/>
<path d="M6.27637 21.0708H10.0339C10.2497 21.0708 10.4246 20.8959 10.4246 20.6802C10.4246 20.4644 10.2497 20.2896 10.0339 20.2896H6.27637C6.06064 20.2896 5.88574 20.4644 5.88574 20.6802C5.88574 20.8959 6.06064 21.0708 6.27637 21.0708V21.0708Z" fill="#999999"/>
<path d="M6.27637 19.4006H7.11137C7.3271 19.4006 7.502 19.2257 7.502 19.01C7.502 18.7943 7.3271 18.6194 7.11137 18.6194H6.27637C6.06064 18.6194 5.88574 18.7943 5.88574 19.01C5.88574 19.2257 6.06064 19.4006 6.27637 19.4006V19.4006Z" fill="#999999"/>
<path d="M11.6769 19.01C11.6769 18.7943 11.502 18.6194 11.2863 18.6194H8.78125C8.56552 18.6194 8.39062 18.7943 8.39062 19.01C8.39062 19.2257 8.56552 19.4006 8.78125 19.4006H11.2863C11.502 19.4006 11.6769 19.2257 11.6769 19.01Z" fill="#999999"/>
<path d="M11.7032 4.78809C11.9189 4.78809 12.0938 4.61319 12.0938 4.39746C12.0938 4.18173 11.9189 4.00684 11.7032 4.00684H10.8682C10.6524 4.00684 10.4775 4.18173 10.4775 4.39746C10.4775 4.61319 10.6524 4.78809 10.8682 4.78809H11.7032Z" fill="#999999"/>
<path d="M15.8789 9.7981C16.0947 9.7981 16.2696 9.6232 16.2696 9.40747C16.2696 9.19174 16.0947 9.01685 15.8789 9.01685H15.0439C14.8282 9.01685 14.6533 9.19174 14.6533 9.40747C14.6533 9.6232 14.8282 9.7981 15.0439 9.7981H15.8789Z" fill="#999999"/>
<path d="M7.52836 8.12793C7.74409 8.12793 7.91898 7.95303 7.91898 7.7373C7.91898 7.52158 7.74409 7.34668 7.52836 7.34668H6.69336C6.47763 7.34668 6.30273 7.52158 6.30273 7.7373C6.30273 7.95303 6.47763 8.12793 6.69336 8.12793H7.52836Z" fill="#999999"/>
<path d="M20.0538 7.7107C20.2695 7.7107 20.4444 7.5358 20.4444 7.32007C20.4444 7.10434 20.2695 6.92944 20.0538 6.92944H19.2188C19.003 6.92944 18.8281 7.10434 18.8281 7.32007C18.8281 7.5358 19.003 7.7107 19.2188 7.7107H20.0538Z" fill="#999999"/>
</g>
<defs>
<clipPath id="clip0_2_253">
<rect width="26.6667" height="26.6667" fill="white" transform="translate(0.666992 0.666748)"/>
</clipPath>
</defs>
</svg>
