<svg width="52" height="52" viewBox="0 0 52 52" fill="none" xmlns="http://www.w3.org/2000/svg">
<g clip-path="url(#clip0_2_16275)">
<path d="M40.4978 25.68C40.912 25.68 41.2478 25.3442 41.2478 24.93C41.2478 24.5158 40.912 24.18 40.4978 24.18H39.6446V16.9139C39.6446 16.0583 38.9486 15.3623 38.093 15.3623H34.8866C34.031 15.3623 33.335 16.0583 33.335 16.9139V24.18H31.6286V20.9219C31.6286 20.0663 30.9326 19.3703 30.077 19.3703H26.8706C26.015 19.3703 25.319 20.0663 25.319 20.9219V24.18H23.6125V16.1123C23.6125 15.6981 23.2767 15.3623 22.8625 15.3623C22.4483 15.3623 22.1125 15.6981 22.1125 16.1123V24.18H18.8028V11.3026C18.8028 11.2741 18.8259 11.251 18.8544 11.251H22.0608C22.0893 11.251 22.1124 11.2741 22.1124 11.3026V12.9059C22.1124 13.3201 22.4482 13.6559 22.8624 13.6559C23.2766 13.6559 23.6124 13.3201 23.6124 12.9059V11.3026C23.6124 10.447 22.9164 9.75098 22.0608 9.75098H18.8544C17.9988 9.75098 17.3028 10.447 17.3028 11.3026V24.18H15.5964V17.7155C15.5964 16.8599 14.9004 16.1639 14.0448 16.1639H10.8384C9.98279 16.1639 9.28679 16.8599 9.28679 17.7155V24.18H8.43359C8.01939 24.18 7.68359 24.5158 7.68359 24.93C7.68359 25.3442 8.01939 25.68 8.43359 25.68H40.4978ZM34.8349 16.9139C34.8349 16.8854 34.858 16.8623 34.8865 16.8623H38.0929C38.1214 16.8623 38.1445 16.8854 38.1445 16.9139V24.18H34.8348V16.9139H34.8349ZM26.8188 20.9219C26.8188 20.8934 26.8419 20.8703 26.8704 20.8703H30.0768C30.1053 20.8703 30.1284 20.8934 30.1284 20.9219V24.18H26.8187V20.9219H26.8188ZM10.7866 17.7155C10.7866 17.687 10.8097 17.6639 10.8382 17.6639H14.0446C14.0731 17.6639 14.0962 17.687 14.0962 17.7155V24.18H10.7865V17.7155H10.7866Z" fill="#00ADBB"/>
<path d="M35.6879 46.6252H6.02816C5.99966 46.6252 5.97656 46.6021 5.97656 46.5736V1.68319C5.97656 1.65469 5.99966 1.63159 6.02816 1.63159H33.8903C33.9736 1.63159 34.0554 1.63969 34.1362 1.65169V8.89779C34.1362 9.75339 34.8322 10.4494 35.6878 10.4494H42.9339C42.9459 10.5302 42.9539 10.612 42.9539 10.6952V40.9623C42.9539 41.3765 43.2897 41.7123 43.7039 41.7123C44.1181 41.7123 44.4539 41.3765 44.4539 40.9623V10.6951C44.4539 9.85239 44.1257 9.06019 43.5299 8.46429L36.1211 1.05559C35.5252 0.459692 34.7329 0.131592 33.8903 0.131592H6.02816C5.17256 0.131592 4.47656 0.827592 4.47656 1.68319V46.5735C4.47656 47.4291 5.17256 48.1251 6.02816 48.1251H35.6879C36.1021 48.1251 36.4379 47.7893 36.4379 47.3751C36.4379 46.9609 36.1021 46.6252 35.6879 46.6252ZM41.8937 8.94929H35.6879C35.6594 8.94929 35.6363 8.92619 35.6363 8.89769V2.69199L41.8937 8.94929Z" fill="#00ADBB"/>
<path d="M46.1699 47.3146L40.559 41.7037C40.1148 41.2589 39.5237 41.014 38.8948 41.014C38.5251 41.014 38.1688 41.0993 37.8475 41.2593L36.4431 39.8549C37.4417 38.6235 38.0416 37.0564 38.0416 35.3511C38.0416 31.4014 34.8283 28.1882 30.8787 28.1882C26.929 28.1882 23.7158 31.4015 23.7158 35.3511C23.7158 39.3007 26.9291 42.514 30.8787 42.514C32.5839 42.514 34.1511 41.9141 35.3825 40.9155L36.787 42.32C36.6269 42.6414 36.5417 42.9977 36.5417 43.3672C36.5417 43.9959 36.7866 44.5868 37.2311 45.031L42.842 50.642C43.2861 51.0867 43.8772 51.3317 44.5062 51.3317C45.1352 51.3317 45.7262 51.0868 46.1699 50.6425C46.6145 50.1981 46.8594 49.6071 46.8594 48.9784C46.8594 48.3497 46.6143 47.7588 46.1699 47.3146V47.3146ZM25.2157 35.3511C25.2157 32.2286 27.7561 29.6882 30.8786 29.6882C34.0011 29.6882 36.5415 32.2286 36.5415 35.3511C36.5415 38.4736 34.0011 41.014 30.8786 41.014C27.756 41.014 25.2157 38.4736 25.2157 35.3511ZM38.0415 43.3672C38.0415 43.1393 38.1303 42.9252 38.2918 42.7636C38.4526 42.6026 38.6668 42.5139 38.8947 42.5139C39.1227 42.5139 39.3367 42.6026 39.4979 42.7639L40.2201 43.4861L39.0137 44.6925L38.2913 43.9701C38.1302 43.8092 38.0415 43.595 38.0415 43.3672V43.3672ZM45.1089 49.582C44.9481 49.743 44.734 49.8317 44.506 49.8317C44.278 49.8317 44.064 49.743 43.9028 49.5817L40.0744 45.7532L41.2808 44.5468L45.1094 48.3754C45.2705 48.5364 45.3593 48.7506 45.3593 48.9784C45.3593 49.2062 45.2705 49.4205 45.1089 49.582V49.582Z" fill="#00ADBB"/>
<path d="M10.8379 29.688H12.4411C12.8553 29.688 13.1911 29.3522 13.1911 28.938C13.1911 28.5238 12.8553 28.188 12.4411 28.188H10.8379C10.4237 28.188 10.0879 28.5238 10.0879 28.938C10.0879 29.3522 10.4237 29.688 10.8379 29.688V29.688Z" fill="#00ADBB"/>
<path d="M10.8379 32.8947H12.4411C12.8553 32.8947 13.1911 32.5589 13.1911 32.1447C13.1911 31.7305 12.8553 31.3947 12.4411 31.3947H10.8379C10.4237 31.3947 10.0879 31.7305 10.0879 32.1447C10.0879 32.5589 10.4237 32.8947 10.8379 32.8947V32.8947Z" fill="#00ADBB"/>
<path d="M23.612 28.938C23.612 28.5238 23.2762 28.188 22.862 28.188H15.6475C15.2333 28.188 14.8975 28.5238 14.8975 28.938C14.8975 29.3522 15.2333 29.688 15.6475 29.688H22.862C23.2762 29.688 23.612 29.3523 23.612 28.938V28.938Z" fill="#00ADBB"/>
<path d="M22.0088 32.1447C22.0088 31.7305 21.673 31.3947 21.2588 31.3947H15.6475C15.2333 31.3947 14.8975 31.7305 14.8975 32.1447C14.8975 32.5589 15.2333 32.8947 15.6475 32.8947H21.2588C21.673 32.8947 22.0088 32.5589 22.0088 32.1447Z" fill="#00ADBB"/>
<path d="M10.8379 39.3073H18.0524C18.4666 39.3073 18.8024 38.9715 18.8024 38.5573C18.8024 38.1431 18.4666 37.8073 18.0524 37.8073H10.8379C10.4237 37.8073 10.0879 38.1431 10.0879 38.5573C10.0879 38.9715 10.4237 39.3073 10.8379 39.3073V39.3073Z" fill="#00ADBB"/>
<path d="M10.8379 36.1008H12.4411C12.8553 36.1008 13.1911 35.765 13.1911 35.3508C13.1911 34.9366 12.8553 34.6008 12.4411 34.6008H10.8379C10.4237 34.6008 10.0879 34.9366 10.0879 35.3508C10.0879 35.765 10.4237 36.1008 10.8379 36.1008V36.1008Z" fill="#00ADBB"/>
<path d="M21.2072 35.3508C21.2072 34.9366 20.8714 34.6008 20.4572 34.6008H15.6475C15.2333 34.6008 14.8975 34.9366 14.8975 35.3508C14.8975 35.765 15.2333 36.1008 15.6475 36.1008H20.4572C20.8714 36.1008 21.2072 35.765 21.2072 35.3508Z" fill="#00ADBB"/>
<path d="M21.2585 8.04443C21.6727 8.04443 22.0085 7.70863 22.0085 7.29443C22.0085 6.88023 21.6727 6.54443 21.2585 6.54443H19.6553C19.2411 6.54443 18.9053 6.88023 18.9053 7.29443C18.9053 7.70863 19.2411 8.04443 19.6553 8.04443H21.2585Z" fill="#00ADBB"/>
<path d="M29.2751 17.6639C29.6893 17.6639 30.0251 17.3281 30.0251 16.9139C30.0251 16.4997 29.6893 16.1639 29.2751 16.1639H27.6719C27.2577 16.1639 26.9219 16.4997 26.9219 16.9139C26.9219 17.3281 27.2577 17.6639 27.6719 17.6639H29.2751Z" fill="#00ADBB"/>
<path d="M13.2428 14.4573C13.657 14.4573 13.9928 14.1215 13.9928 13.7073C13.9928 13.2931 13.657 12.9573 13.2428 12.9573H11.6396C11.2254 12.9573 10.8896 13.2931 10.8896 13.7073C10.8896 14.1215 11.2254 14.4573 11.6396 14.4573H13.2428Z" fill="#00ADBB"/>
<path d="M37.2907 13.6559C37.7049 13.6559 38.0407 13.3201 38.0407 12.9059C38.0407 12.4917 37.7049 12.1559 37.2907 12.1559H35.6875C35.2733 12.1559 34.9375 12.4917 34.9375 12.9059C34.9375 13.3201 35.2733 13.6559 35.6875 13.6559H37.2907Z" fill="#00ADBB"/>
</g>
<defs>
<clipPath id="clip0_2_16275">
<rect width="51.2" height="51.2" fill="white" transform="translate(0.0673828 0.131592)"/>
</clipPath>
</defs>
</svg>
