<svg width="16" height="17" viewBox="0 0 16 17" fill="none" xmlns="http://www.w3.org/2000/svg">
<path d="M8.0108 0.5C9.10481 0.5 10.1413 0.708446 11.1201 1.12534C12.099 1.54223 12.9483 2.11006 13.668 2.82884C14.3878 3.54762 14.9564 4.39578 15.3738 5.37331C15.7913 6.35085 16 7.39308 16 8.5C16 9.60692 15.7913 10.642 15.3738 11.6051C14.9564 12.5683 14.3878 13.4164 13.668 14.1496C12.9483 14.8827 12.099 15.4578 11.1201 15.8747C10.1413 16.2916 9.10121 16.5 8 16.5C6.89879 16.5 5.86595 16.2916 4.90148 15.8747C3.93702 15.4578 3.08772 14.8827 2.35358 14.1496C1.61943 13.4164 1.04363 12.5683 0.626181 11.6051C0.208727 10.642 0 9.60692 0 8.5C0 7.39308 0.208727 6.35085 0.626181 5.37331C1.04363 4.39578 1.61943 3.54762 2.35358 2.82884C3.08772 2.11006 3.93702 1.54223 4.90148 1.12534C5.86595 0.708446 6.90238 0.5 8.0108 0.5ZM8.0108 3.02291C8.0108 2.86478 7.96041 2.7354 7.85965 2.63477C7.75888 2.53414 7.62213 2.4982 7.44939 2.52695C6.68646 2.59883 5.97391 2.80009 5.31174 3.13073C4.64957 3.46137 4.07377 3.89982 3.58435 4.44609C3.09492 4.99236 2.71345 5.60332 2.43995 6.27898C2.16644 6.95463 2.02249 7.69497 2.0081 8.5C1.9937 9.30503 2.13765 10.0382 2.43995 10.6995C2.74224 11.3607 3.12371 11.9789 3.58435 12.5539C4.04498 13.1289 4.62078 13.5602 5.31174 13.8477C6.0027 14.1352 6.71525 14.3437 7.44939 14.473C7.60774 14.4874 7.74449 14.4443 7.85965 14.3437C7.97481 14.243 8.02519 14.1208 8.0108 13.9771V3.02291Z" fill="white"/>
</svg>
