<svg width="54" height="42" viewBox="0 0 54 42" fill="none" xmlns="http://www.w3.org/2000/svg">
<g clip-path="url(#clip0_2_8077)">
<path d="M50.8092 41.6923H3.19015C1.5711 41.6923 0.333008 40.4802 0.333008 38.8951V6.26107C0.333008 4.67599 1.5711 3.46387 3.19015 3.46387H5.09491C5.66634 3.46387 6.04729 3.83683 6.04729 4.39627C6.04729 4.95571 5.66634 5.32867 5.09491 5.32867H3.19015C2.61872 5.32867 2.23777 5.70163 2.23777 6.26107V38.8951C2.23777 39.4545 2.61872 39.8275 3.19015 39.8275H50.8092C51.3806 39.8275 51.7616 39.4545 51.7616 38.8951V6.26107C51.7616 5.70163 51.3806 5.32867 50.8092 5.32867H48.9044C48.333 5.32867 47.9521 4.95571 47.9521 4.39627C47.9521 3.83683 48.333 3.46387 48.9044 3.46387H50.8092C52.4282 3.46387 53.6663 4.67599 53.6663 6.26107V38.8951C53.6663 40.4802 52.4282 41.6923 50.8092 41.6923Z" fill="white"/>
<path d="M26.9997 41.6923C26.6188 41.6923 26.3331 41.5058 26.1426 41.1328C25.095 39.1748 23.095 37.9627 20.8092 37.9627H5.09496C4.52353 37.9627 4.14258 37.5897 4.14258 37.0303V1.59903C4.14258 1.03959 4.52353 0.666626 5.09496 0.666626H20.8092C23.2854 0.666626 25.4759 1.78551 26.9997 3.55707C28.4283 1.69227 30.714 0.666626 33.1902 0.666626H48.9045C49.4759 0.666626 49.8569 1.03959 49.8569 1.59903V37.0303C49.8569 37.5897 49.4759 37.9627 48.9045 37.9627H33.1902C30.9045 37.9627 28.9045 39.1748 27.8569 41.1328C27.6664 41.5058 27.3807 41.6923 26.9997 41.6923ZM6.04734 36.0979H20.8092C23.2854 36.0979 25.4759 37.2167 26.9997 38.9883C28.4283 37.1235 30.714 36.0979 33.1902 36.0979H47.9521V2.53143H33.1902C30.9045 2.53143 28.9045 3.74355 27.8569 5.70159C27.6664 6.07455 27.3807 6.26103 26.9997 6.26103C26.6188 6.26103 26.3331 6.07455 26.1426 5.70159C25.095 3.74355 23.095 2.53143 20.8092 2.53143H6.04734V36.0979Z" fill="white"/>
<path d="M27.0002 40.7595C26.4288 40.7595 26.0479 40.3865 26.0479 39.8271V27.7058C26.0479 27.1464 26.4288 26.7734 27.0002 26.7734C27.5717 26.7734 27.9526 27.1464 27.9526 27.7058V39.8271C27.9526 40.3865 27.5717 40.7595 27.0002 40.7595Z" fill="white"/>
<path d="M17.476 9.99041H8.90453C8.3331 9.99041 7.95215 9.61745 7.95215 9.05801C7.95215 8.49857 8.3331 8.12561 8.90453 8.12561H17.476C18.0474 8.12561 18.4283 8.49857 18.4283 9.05801C18.4283 9.61745 18.0474 9.99041 17.476 9.99041Z" fill="white"/>
<path d="M12.7141 15.5848H8.90453C8.3331 15.5848 7.95215 15.2118 7.95215 14.6524C7.95215 14.0929 8.3331 13.72 8.90453 13.72H12.7141C13.2855 13.72 13.6664 14.0929 13.6664 14.6524C13.6664 15.2118 13.2855 15.5848 12.7141 15.5848Z" fill="white"/>
<path d="M13.6664 21.1793H8.90453C8.3331 21.1793 7.95215 20.8063 7.95215 20.2469C7.95215 19.6874 8.3331 19.3145 8.90453 19.3145H13.6664C14.2379 19.3145 14.6188 19.6874 14.6188 20.2469C14.6188 20.8063 14.2379 21.1793 13.6664 21.1793Z" fill="white"/>
<path d="M45.0951 9.99041H36.5237C35.9522 9.99041 35.5713 9.61745 35.5713 9.05801C35.5713 8.49857 35.9522 8.12561 36.5237 8.12561H45.0951C45.6665 8.12561 46.0475 8.49857 46.0475 9.05801C46.0475 9.61745 45.6665 9.99041 45.0951 9.99041Z" fill="white"/>
<path d="M45.0949 15.5848H41.2854C40.714 15.5848 40.333 15.2118 40.333 14.6524C40.333 14.0929 40.714 13.72 41.2854 13.72H45.0949C45.6663 13.72 46.0473 14.0929 46.0473 14.6524C46.0473 15.2118 45.6663 15.5848 45.0949 15.5848Z" fill="white"/>
<path d="M45.0949 21.1793H37.4758C36.9044 21.1793 36.5234 20.8063 36.5234 20.2469C36.5234 19.6874 36.9044 19.3145 37.4758 19.3145H45.0949C45.6663 19.3145 46.0473 19.6874 46.0473 20.2469C46.0473 20.8063 45.6663 21.1793 45.0949 21.1793Z" fill="white"/>
<path d="M20.3331 26.7742H8.90453C8.3331 26.7742 7.95215 26.4013 7.95215 25.8418C7.95215 25.2824 8.3331 24.9094 8.90453 24.9094H20.3331C20.9045 24.9094 21.2855 25.2824 21.2855 25.8418C21.2855 26.4013 20.9045 26.7742 20.3331 26.7742Z" fill="white"/>
<path d="M22.2379 32.368H8.90453C8.3331 32.368 7.95215 31.995 7.95215 31.4356C7.95215 30.8761 8.3331 30.5032 8.90453 30.5032H22.2379C22.8093 30.5032 23.1902 30.8761 23.1902 31.4356C23.1902 31.995 22.8093 32.368 22.2379 32.368Z" fill="white"/>
<path d="M45.0953 32.368H31.762C31.1905 32.368 30.8096 31.995 30.8096 31.4356C30.8096 30.8761 31.1905 30.5032 31.762 30.5032H45.0953C45.6667 30.5032 46.0477 30.8761 46.0477 31.4356C46.0477 31.995 45.6667 32.368 45.0953 32.368Z" fill="white"/>
<path d="M45.0948 26.7742H33.6662C33.0948 26.7742 32.7139 26.4013 32.7139 25.8418C32.7139 25.2824 33.0948 24.9094 33.6662 24.9094H45.0948C45.6662 24.9094 46.0472 25.2824 46.0472 25.8418C46.0472 26.4013 45.6662 26.7742 45.0948 26.7742Z" fill="white"/>
<path d="M26.9046 19.3144C26.5237 19.3144 26.1427 19.2212 25.7618 19.1279L16.5237 15.3051C15.9522 14.9321 15.5713 14.3727 15.5713 13.72C15.5713 13.0673 15.9522 12.5079 16.6189 12.2282L25.857 8.40533C26.1427 8.21885 26.5237 8.12561 26.9046 8.12561H27.0951C27.4761 8.12561 27.857 8.21885 28.238 8.31209L37.4761 12.1349C38.0475 12.4147 38.5237 12.9741 38.5237 13.6268C38.5237 14.2795 38.1427 14.8389 37.4761 15.1186L28.238 18.9415C27.857 19.1279 27.4761 19.1279 27.0951 19.1279H26.9046V19.3144ZM17.857 13.72L26.5237 17.3564C26.6189 17.3564 26.8094 17.4496 26.9046 17.4496H27.0951C27.1903 17.4496 27.3808 17.4496 27.4761 17.3564L36.1427 13.72L27.4761 10.0837C27.3808 10.0837 27.1903 9.99041 27.0951 9.99041H26.9046C26.8094 9.99041 26.6189 9.99041 26.5237 10.0837L17.857 13.72Z" fill="white"/>
<path d="M16.5237 19.3145C15.9522 19.3145 15.5713 18.9416 15.5713 18.3821V13.7201C15.5713 13.1607 15.9522 12.7877 16.5237 12.7877C17.0951 12.7877 17.476 13.1607 17.476 13.7201V18.3821C17.476 18.9416 17.0951 19.3145 16.5237 19.3145Z" fill="white"/>
<path d="M26.9999 24.909C24.9047 24.909 22.8094 24.3496 20.9999 23.5104C20.0475 23.0442 19.3809 22.1118 19.3809 20.9929V15.7715H21.2856V20.9929C21.2856 21.3659 21.4761 21.6456 21.8571 21.8321C23.4761 22.578 25.2856 23.0442 26.9999 23.0442C28.7142 23.0442 30.5237 22.578 32.1428 21.8321C32.4285 21.6456 32.7142 21.3659 32.7142 20.9929V15.7715H34.619V20.9929C34.619 22.1118 33.9523 23.0442 32.9999 23.5104C31.0951 24.4428 29.0951 24.909 26.9999 24.909Z" fill="white"/>
</g>
<defs>
<clipPath id="clip0_2_8077">
<rect width="53.3333" height="41.0256" fill="white" transform="translate(0.333008 0.666626)"/>
</clipPath>
</defs>
</svg>
