<svg width="20" height="21" viewBox="0 0 20 21" fill="none" xmlns="http://www.w3.org/2000/svg">
<path fill-rule="evenodd" clip-rule="evenodd" d="M17.081 11.897L18.9777 13.7069C19.2159 13.9368 19.3774 14.2281 19.4421 14.5446C19.5068 14.8612 19.4717 15.1887 19.3413 15.4864C19.2109 15.7841 18.9909 16.0387 18.7088 16.2184C18.4267 16.3981 18.0951 16.4949 17.7554 16.4967H14.2149V16.8367C14.1657 17.8519 13.6944 18.8071 12.9044 19.4931C12.1143 20.1791 11.0699 20.5399 10.0001 20.4965C8.93017 20.5399 7.88578 20.1791 7.09574 19.4931C6.3057 18.8071 5.83443 17.8519 5.78521 16.8367V16.4967H2.24475C1.90502 16.4949 1.57338 16.3981 1.2913 16.2184C1.00923 16.0387 0.78922 15.7841 0.65879 15.4864C0.528361 15.1887 0.493294 14.8612 0.557974 14.5446C0.622654 14.2281 0.784212 13.9368 1.02245 13.7069L2.91913 11.897V7.22729C2.92097 6.26896 3.13816 5.32202 3.55621 4.44965C3.97425 3.57729 4.58354 2.79956 5.34342 2.16836C6.1033 1.53716 6.99629 1.067 7.96282 0.789255C8.92934 0.511511 9.94717 0.432568 10.9484 0.557694C12.4905 0.781987 13.9096 1.4728 14.9985 2.52004C14.3101 2.72484 13.7116 3.1353 13.276 3.67929C12.5499 3.06026 11.648 2.6476 10.6744 2.49758C9.96745 2.41002 9.24887 2.46929 8.56842 2.6713C7.88797 2.8733 7.2619 3.21322 6.73355 3.66751C6.19798 4.11103 5.76857 4.65814 5.47415 5.27212C5.17974 5.8861 5.02712 6.55273 5.02654 7.22729V11.897C5.02676 12.1609 4.97194 12.4222 4.86524 12.6659C4.75855 12.9096 4.60208 13.1309 4.40486 13.3169L3.16148 14.4969H16.8386L15.5847 13.3169C15.3894 13.1301 15.2349 12.9084 15.13 12.6648C15.0251 12.4211 14.972 12.1602 14.9736 11.897V9.09744C15.298 9.19661 15.6427 9.25 16.0001 9.25C16.3774 9.25 16.7408 9.19045 17.081 9.08032V11.897ZM11.4047 18.0679C11.7973 17.7587 12.049 17.3177 12.1075 16.8367V16.4967H7.89263V16.8367C7.95107 17.3177 8.2028 17.7587 8.59538 18.0679C8.98796 18.3771 9.49113 18.5307 10.0001 18.4966C10.509 18.5307 11.0121 18.3771 11.4047 18.0679Z" fill="white"/>
<ellipse cx="15.7898" cy="6" rx="2.63158" ry="2.5" fill="#D23A20"/>
</svg>
