<svg width="20" height="20" viewBox="0 0 20 20" fill="none" xmlns="http://www.w3.org/2000/svg">
<g clip-path="url(#clip0_46_7986)">
<path d="M18.4406 3.21164L15.7866 0.557766C15.62 0.391116 15.3984 0.299316 15.1626 0.299316H3.98878C3.50222 0.299316 3.10633 0.695204 3.10633 1.18177V9.91867H2.48578C1.83343 9.91867 1.30273 10.4494 1.30273 11.1017V16.5126C1.30273 17.1649 1.83343 17.6957 2.48578 17.6957H11.8045C12.2911 17.6957 12.687 17.2998 12.687 16.8132V12.6048C12.687 12.1182 12.2911 11.7223 11.8045 11.7223H2.48578C2.1436 11.7223 1.86523 11.4439 1.86523 11.1018C1.86523 10.7596 2.1436 10.4812 2.48578 10.4812H3.10633V10.8013C3.10633 10.9566 3.23226 11.0825 3.38758 11.0825C3.54291 11.0825 3.66883 10.9566 3.66883 10.8013V1.18177C3.66883 1.00533 3.81238 0.861816 3.98878 0.861816H14.8299V3.5866C14.8299 3.90745 15.0909 4.16849 15.4118 4.16849H18.1365V18.6169C18.1365 18.7933 17.993 18.9368 17.8166 18.9368H3.98878C3.81234 18.9368 3.66883 18.7933 3.66883 18.6169C3.66883 18.4615 3.54291 18.3356 3.38758 18.3356C3.23226 18.3356 3.10633 18.4615 3.10633 18.6169C3.10633 19.1035 3.50222 19.4993 3.98878 19.4993H17.8166C18.3032 19.4993 18.699 19.1034 18.699 18.6169V3.83564C18.6991 3.59995 18.6073 3.37833 18.4406 3.21164ZM2.48578 12.2848H11.8045C11.981 12.2848 12.1245 12.4284 12.1245 12.6048V16.8133C12.1245 16.9897 11.9809 17.1332 11.8045 17.1332H2.48578C2.1436 17.1332 1.86523 16.8548 1.86523 16.5126V12.1086C2.04572 12.2203 2.25835 12.2848 2.48578 12.2848ZM15.3924 3.5866V0.959054L18.0394 3.60599H15.4118C15.4011 3.60599 15.3924 3.59729 15.3924 3.5866Z" fill="#00ADBB"/>
<path d="M9.27148 16.1839C9.4268 16.1839 9.55273 16.058 9.55273 15.9026V14.9676H10.1621C10.3175 14.9676 10.4434 14.8417 10.4434 14.6864C10.4434 14.5311 10.3175 14.4051 10.1621 14.4051H9.55273V13.7966H10.239C10.3943 13.7966 10.5203 13.6707 10.5203 13.5154C10.5203 13.36 10.3943 13.2341 10.239 13.2341H9.27148C9.11616 13.2341 8.99023 13.36 8.99023 13.5154V15.9026C8.99023 16.0579 9.11616 16.1839 9.27148 16.1839Z" fill="#00ADBB"/>
<path d="M6.31634 16.0753C6.36903 16.1276 6.44028 16.1569 6.51449 16.1569H6.51554C6.53553 16.1569 7.00672 16.1551 7.19493 16.1518C7.88992 16.1396 8.39437 15.5328 8.39437 14.7088C8.39437 13.8427 7.90263 13.2607 7.1707 13.2607H6.50977C6.43507 13.2607 6.36348 13.2904 6.31072 13.3433C6.25795 13.3962 6.22837 13.4679 6.22852 13.5425V13.5444V13.5444V15.8378C6.22852 15.8571 6.23047 15.876 6.23418 15.8942C6.23868 15.9624 6.26755 16.0269 6.31634 16.0753ZM7.1707 13.8232C7.6582 13.8232 7.83187 14.2807 7.83187 14.7088C7.83187 15.3093 7.50704 15.5838 7.1851 15.5893C7.09563 15.5909 6.93599 15.5922 6.79477 15.593C6.79387 15.3171 6.79199 14.1103 6.7915 13.8232H7.1707Z" fill="#00ADBB"/>
<path d="M3.98047 16.1928C4.1358 16.1928 4.26172 16.067 4.26172 15.9116V15.1467C4.40137 15.146 4.56015 15.1453 4.65007 15.1453C5.1867 15.1453 5.62328 14.7147 5.62328 14.1854C5.62328 13.6561 5.1867 13.2255 4.65007 13.2255H3.98047C3.90573 13.2255 3.83407 13.2552 3.78127 13.3082C3.72869 13.3609 3.69926 13.4323 3.69926 13.5067H3.69922V15.9116C3.69922 16.067 3.82514 16.1928 3.98047 16.1928ZM4.65007 13.788C4.87271 13.788 5.06078 13.97 5.06078 14.1854C5.06078 14.4008 4.87271 14.5828 4.65007 14.5828C4.56075 14.5828 4.40396 14.5835 4.26483 14.5842C4.26408 14.4406 4.26296 13.9383 4.26255 13.788H4.65007V13.788Z" fill="#00ADBB"/>
<path d="M9.24946 8.45417C8.55823 8.67235 7.84877 8.97433 7.47032 9.36497C7.15805 9.68728 7.10147 10.0612 7.31503 10.391C7.45997 10.6147 7.6592 10.7317 7.88323 10.7317C7.96921 10.7317 8.05888 10.7144 8.15049 10.6794C8.48098 10.553 8.8379 10.1935 9.24166 9.5803C9.37201 9.38233 9.50397 9.16232 9.63534 8.92431C9.68315 8.91025 9.7319 8.89626 9.78177 8.88231C10.5755 8.66023 11.4735 8.49906 12.2616 8.43171C12.742 8.89626 13.2386 9.25821 13.6619 9.35695C14.1276 9.46558 14.4968 9.25262 14.6493 8.78725C14.7417 8.50536 14.6353 8.23956 14.3648 8.07625C14.0866 7.90828 13.6032 7.82717 12.9283 7.8349C12.7846 7.83655 12.6329 7.8424 12.475 7.85218C12.1718 7.53951 11.8563 7.16582 11.5526 6.75313C11.3172 6.43345 11.1068 6.11353 10.9289 5.80945C10.9483 5.74281 10.9667 5.67707 10.9841 5.6125C11.1764 4.89951 11.2449 4.35362 11.1879 3.98995C11.1055 3.46476 10.7666 3.39017 10.6247 3.38252C10.1415 3.35639 9.81601 3.60017 9.7541 4.03461C9.7049 4.37972 9.82096 4.85455 10.099 5.44585C10.1651 5.5864 10.2393 5.73126 10.3207 5.8792C10.2903 5.97655 10.2575 6.07783 10.2218 6.18325C9.96256 6.95027 9.61141 7.76758 9.24946 8.45417ZM7.89883 10.1677C7.87877 10.1702 7.84494 10.1744 7.78712 10.0852C7.74005 10.0125 7.7375 9.95766 7.77767 9.88281C7.87157 9.70776 8.19215 9.46213 8.81251 9.20841C8.37954 9.87996 8.05595 10.1481 7.89883 10.1677ZM14.1195 8.59296C14.119 8.59645 14.1179 8.60267 14.1148 8.61212C14.0446 8.82647 13.9502 8.84668 13.7896 8.80922C13.5937 8.76351 13.3448 8.61872 13.0671 8.39713C13.8189 8.40313 14.0812 8.53858 14.1195 8.59296ZM10.3109 4.11403C10.3224 4.03363 10.3353 3.94322 10.5492 3.94322C10.5627 3.94322 10.577 3.9436 10.5921 3.94431C10.6561 4.02235 10.6891 4.36956 10.5409 5.05671C10.3663 4.6564 10.281 4.32385 10.3109 4.11403ZM10.7026 6.51418C10.826 6.7039 10.9588 6.89548 11.0996 7.08666C11.3015 7.36093 11.5295 7.64567 11.7708 7.91747C11.4917 7.95115 11.2038 7.99461 10.9159 8.04688C10.721 8.08225 10.3813 8.14896 9.98367 8.24815C10.0719 8.06526 10.1588 7.8757 10.2439 7.68077C10.413 7.29343 10.5686 6.8971 10.7026 6.51418Z" fill="#00ADBB"/>
</g>
<defs>
<clipPath id="clip0_46_7986">
<rect width="19.2" height="19.2" fill="white" transform="translate(0.400391 0.299316)"/>
</clipPath>
</defs>
</svg>
