<svg width="28" height="28" viewBox="0 0 28 28" fill="none" xmlns="http://www.w3.org/2000/svg">
<g clip-path="url(#clip0_2_278)">
<path d="M25.7225 4.71164L22.0365 1.02571C21.805 0.794248 21.4972 0.666748 21.1698 0.666748H5.65054C4.97476 0.666748 4.42492 1.21659 4.42492 1.89237V14.027H3.56305C2.657 14.027 1.91992 14.7641 1.91992 15.6701V23.1852C1.91992 24.0912 2.657 24.8284 3.56305 24.8284H16.5057C17.1816 24.8284 17.7314 24.2785 17.7314 23.6027V17.7577C17.7314 17.0819 17.1815 16.532 16.5057 16.532H3.56305C3.08779 16.532 2.70117 16.1454 2.70117 15.6701C2.70117 15.1949 3.08779 14.8083 3.56305 14.8083H4.42492V15.2528C4.42492 15.4685 4.59982 15.6434 4.81554 15.6434C5.03127 15.6434 5.20617 15.4685 5.20617 15.2528V1.89237C5.20617 1.64732 5.40555 1.448 5.65054 1.448H20.7077V5.23243C20.7077 5.67805 21.0702 6.0406 21.5158 6.0406H25.3002V26.1078C25.3002 26.3528 25.1008 26.5522 24.8558 26.5522H5.65054C5.40549 26.5522 5.20617 26.3528 5.20617 26.1078C5.20617 25.8921 5.03127 25.7172 4.81554 25.7172C4.59982 25.7172 4.42492 25.8921 4.42492 26.1078C4.42492 26.7836 4.97476 27.3334 5.65054 27.3334H24.8558C25.5317 27.3334 26.0815 26.7836 26.0815 26.1078V5.57831C26.0815 5.25097 25.954 4.94315 25.7225 4.71164V4.71164ZM3.56305 17.3133H16.5057C16.7508 17.3133 16.9501 17.5126 16.9501 17.7577V23.6028C16.9501 23.8478 16.7507 24.0472 16.5057 24.0472H3.56305C3.08779 24.0472 2.70117 23.6605 2.70117 23.1852V17.0686C2.95185 17.2237 3.24716 17.3133 3.56305 17.3133ZM21.4889 5.23243V1.58305L25.1653 5.25935H21.5158C21.501 5.25935 21.4889 5.24727 21.4889 5.23243Z" fill="#009ABF"/>
<path d="M9.40862 22.7324C9.43648 22.7372 9.45909 22.7411 9.83258 22.7411C10.0128 22.7411 10.2749 22.7402 10.6586 22.738C10.8743 22.7369 11.0482 22.561 11.047 22.3452C11.0458 22.1294 10.8689 21.9574 10.6542 21.9567C10.3814 21.9583 10.0885 21.9594 9.86523 21.9596V18.9753C9.86523 18.7596 9.69034 18.5847 9.47461 18.5847C9.25888 18.5847 9.08398 18.7596 9.08398 18.9753V22.3474C9.08398 22.5377 9.22107 22.7003 9.40862 22.7324V22.7324Z" fill="#009ABF"/>
<path d="M13.3724 22.7408C14.0685 22.7408 14.6528 22.2978 14.7618 21.6874C14.8436 21.2293 14.634 20.6303 13.8007 20.3229C13.3809 20.1681 12.9905 19.9994 12.8762 19.9493C12.7685 19.8655 12.772 19.7472 12.779 19.6983C12.7884 19.6327 12.8355 19.4728 13.0694 19.4024C13.5614 19.2541 14.0143 19.6127 14.0269 19.6228C14.192 19.7599 14.4371 19.7382 14.5754 19.5736C14.7142 19.4085 14.6928 19.1621 14.5277 19.0233C14.4964 18.997 13.7501 18.3814 12.844 18.6544C12.3899 18.7911 12.0686 19.1486 12.0057 19.5872C11.9467 19.9981 12.1247 20.3932 12.4702 20.6185C12.4875 20.6297 12.5056 20.6396 12.5245 20.648C12.544 20.6567 13.0078 20.8632 13.5302 21.0559C13.6856 21.1132 14.0416 21.276 13.9926 21.5501C13.9567 21.7513 13.7149 21.9595 13.3723 21.9595C13.0283 21.9595 12.6968 21.8205 12.4858 21.5876C12.3409 21.4277 12.0939 21.4156 11.934 21.5605C11.7741 21.7053 11.762 21.9523 11.9068 22.1122C12.2636 22.5059 12.8114 22.7408 13.3724 22.7408V22.7408Z" fill="#009ABF"/>
<path d="M4.99968 22.6696C5.06807 22.7178 5.14656 22.7409 5.22432 22.7409C5.34708 22.7409 5.46791 22.6832 5.54401 22.5752L6.4976 21.2215L7.44973 22.575C7.52577 22.6831 7.64671 22.7409 7.76957 22.7409C7.84723 22.7409 7.92567 22.7178 7.994 22.6697C8.17046 22.5456 8.21285 22.3019 8.08874 22.1255L6.97556 20.5431L7.9215 19.2004C8.04577 19.024 8.00348 18.7803 7.82713 18.6561C7.65077 18.5318 7.40707 18.5741 7.2828 18.7505L6.49807 19.8644L5.71458 18.7506C5.59046 18.5742 5.34677 18.5318 5.17031 18.6559C4.99385 18.78 4.95145 19.0237 5.07557 19.2001L6.0201 20.5428L4.90531 22.1252C4.78104 22.3017 4.82333 22.5453 4.99968 22.6696V22.6696Z" fill="#009ABF"/>
<path d="M20.6539 8.1551C20.6539 7.70947 20.2914 7.34692 19.8458 7.34692H10.6607C10.215 7.34692 9.85254 7.70947 9.85254 8.1551V13.5826C9.85254 14.0283 10.215 14.3908 10.6607 14.3908H19.8458C20.2914 14.3908 20.6539 14.0283 20.6539 13.5826V8.1551H20.6539ZM13.9738 11.522V10.2157H16.5326V11.522H13.9738ZM16.5326 12.3033V13.6096H13.9738V12.3033H16.5326ZM10.6338 10.2158H13.1926V11.5221H10.6338V10.2158ZM13.9738 9.43452V8.12822H16.5326V9.43452H13.9738ZM17.3139 10.2158H19.8727V11.5221H17.3139V10.2158ZM19.8727 8.1551V9.43447H17.3139V8.12817H19.8458C19.8606 8.12822 19.8727 8.14026 19.8727 8.1551ZM10.6607 8.12822H13.1926V9.43452H10.6338V8.15515C10.6338 8.14025 10.6458 8.12822 10.6607 8.12822ZM10.6338 13.5827V12.3033H13.1926V13.6096H10.6607C10.6458 13.6096 10.6338 13.5975 10.6338 13.5827ZM19.8458 13.6096H17.3139V12.3033H19.8727V13.5826C19.8727 13.5975 19.8606 13.6096 19.8458 13.6096Z" fill="#009ABF"/>
</g>
<defs>
<clipPath id="clip0_2_278">
<rect width="26.6667" height="26.6667" fill="white" transform="translate(0.666992 0.666748)"/>
</clipPath>
</defs>
</svg>
