<svg width="54" height="54" viewBox="0 0 54 54" fill="none" xmlns="http://www.w3.org/2000/svg">
<g clip-path="url(#clip0_2_1555)">
<path d="M50.1101 8.42317L42.738 1.05129C42.275 0.588374 41.6594 0.333374 41.0047 0.333374H9.96613C8.61457 0.333374 7.51488 1.43306 7.51488 2.78462V27.0538H5.79113C3.97905 27.0538 2.50488 28.5281 2.50488 30.34V45.3703C2.50488 47.1823 3.97905 48.6566 5.79113 48.6566H31.6765C33.0282 48.6566 34.1278 47.5569 34.1278 46.2054V34.5153C34.1278 33.1636 33.0281 32.0639 31.6765 32.0639H5.79113C4.84061 32.0639 4.06738 31.2907 4.06738 30.3401C4.06738 29.3896 4.84061 28.6164 5.79113 28.6164H7.51488V29.5055C7.51488 29.9369 7.86467 30.2867 8.29613 30.2867C8.72759 30.2867 9.07738 29.9369 9.07738 29.5055V2.78462C9.07738 2.29452 9.47613 1.89587 9.96613 1.89587H40.0804V9.46473C40.0804 10.356 40.8054 11.0811 41.6966 11.0811H49.2655V51.2155C49.2655 51.7056 48.8667 52.1042 48.3767 52.1042H9.96613C9.47603 52.1042 9.07738 51.7056 9.07738 51.2155C9.07738 50.784 8.72759 50.4342 8.29613 50.4342C7.86467 50.4342 7.51488 50.784 7.51488 51.2155C7.51488 52.5671 8.61457 53.6667 9.96613 53.6667H48.3767C49.7284 53.6667 50.828 52.567 50.828 51.2155V10.1565C50.8281 9.50181 50.5731 8.88619 50.1101 8.42317V8.42317ZM5.79113 33.6264H31.6765C32.1666 33.6264 32.5653 34.0251 32.5653 34.5153V46.2055C32.5653 46.6956 32.1665 47.0942 31.6765 47.0942H5.79113C4.84061 47.0942 4.06738 46.3209 4.06738 45.3704V33.137C4.56874 33.4473 5.15936 33.6264 5.79113 33.6264ZM41.6429 9.46473V2.16598L48.9957 9.51858H41.6966C41.667 9.51858 41.6429 9.49442 41.6429 9.46473Z" fill="#00ADBB"/>
<path d="M17.4833 44.4647C17.539 44.4743 17.5842 44.482 18.3312 44.482C18.6917 44.482 19.2157 44.4803 19.9831 44.4759C20.4146 44.4736 20.7624 44.1218 20.76 43.6903C20.7576 43.2587 20.4039 42.9147 19.9744 42.9134C19.4288 42.9164 18.8429 42.9186 18.3965 42.919V36.9506C18.3965 36.5191 18.0467 36.1693 17.6152 36.1693C17.1838 36.1693 16.834 36.5191 16.834 36.9506V43.6946C16.834 44.0753 17.1082 44.4005 17.4833 44.4647V44.4647Z" fill="#00ADBB"/>
<path d="M25.4099 44.4816C26.8021 44.4816 27.9706 43.5956 28.1887 42.3749C28.3522 41.4586 27.9331 40.2606 26.2664 39.6458C25.4269 39.3361 24.646 38.9987 24.4175 38.8985C24.2021 38.731 24.2091 38.4944 24.223 38.3965C24.2419 38.2655 24.336 37.9457 24.8037 37.8048C25.7879 37.5082 26.6936 38.2254 26.7188 38.2456C27.049 38.5199 27.5393 38.4763 27.8158 38.1473C28.0934 37.8169 28.0507 37.3241 27.7204 37.0465C27.6578 36.9939 26.1652 35.7629 24.353 36.3087C23.4448 36.5823 22.8023 37.2973 22.6763 38.1744C22.5584 38.9961 22.9145 39.7864 23.6055 40.2369C23.6401 40.2594 23.6762 40.2792 23.714 40.296C23.753 40.3134 24.6806 40.7263 25.7255 41.1117C26.0361 41.2263 26.7482 41.5521 26.6503 42.1002C26.5784 42.5027 26.0948 42.919 25.4097 42.919C24.7216 42.919 24.0586 42.641 23.6366 42.1752C23.3469 41.8555 22.8528 41.8311 22.533 42.1209C22.2133 42.4106 22.1889 42.9047 22.4787 43.2245C23.1923 44.0118 24.2879 44.4816 25.4099 44.4816V44.4816Z" fill="#00ADBB"/>
<path d="M8.66441 44.3391C8.80118 44.4354 8.95816 44.4817 9.11368 44.4817C9.3592 44.4817 9.60086 44.3662 9.75305 44.1502L11.6602 41.4429L13.5645 44.1498C13.7166 44.366 13.9585 44.4817 14.2042 44.4817C14.3595 44.4817 14.5164 44.4355 14.653 44.3394C15.006 44.091 15.0907 43.6037 14.8425 43.2508L12.6162 40.0861L14.508 37.4006C14.7566 37.0479 14.672 36.5605 14.3193 36.3121C13.9666 36.0635 13.4792 36.1481 13.2306 36.5008L11.6612 38.7287L10.0942 36.5011C9.84597 36.1482 9.35857 36.0634 9.00566 36.3116C8.65274 36.5599 8.56795 37.0473 8.81618 37.4001L10.7052 40.0854L8.47566 43.2503C8.22712 43.6032 8.3117 44.0905 8.66441 44.3391V44.3391Z" fill="#00ADBB"/>
<path d="M39.9729 15.31C39.9729 14.4187 39.2479 13.6936 38.3567 13.6936H19.9864C19.0951 13.6936 18.3701 14.4187 18.3701 15.31V26.165C18.3701 27.0563 19.0951 27.7813 19.9864 27.7813H38.3566C39.2478 27.7813 39.9728 27.0563 39.9728 26.165V15.31H39.9729ZM26.6127 22.0438V19.4312H31.7303V22.0438H26.6127ZM31.7303 23.6063V26.2189H26.6127V23.6063H31.7303ZM19.9326 19.4313H25.0502V22.0439H19.9326V19.4313ZM26.6127 17.8688V15.2562H31.7303V17.8688H26.6127ZM33.2928 19.4313H38.4104V22.0439H33.2928V19.4313ZM38.4104 15.31V17.8687H33.2928V15.2561H38.3567C38.3862 15.2562 38.4104 15.2803 38.4104 15.31ZM19.9864 15.2562H25.0502V17.8688H19.9326V15.3101C19.9326 15.2803 19.9567 15.2562 19.9864 15.2562ZM19.9326 26.1651V23.6064H25.0502V26.2189H19.9864C19.9567 26.2189 19.9326 26.1948 19.9326 26.1651ZM38.3567 26.2189H33.2928V23.6063H38.4104V26.165C38.4104 26.1948 38.3862 26.2189 38.3567 26.2189Z" fill="#00ADBB"/>
</g>
<defs>
<clipPath id="clip0_2_1555">
<rect width="53.3333" height="53.3333" fill="white" transform="translate(0 0.333374)"/>
</clipPath>
</defs>
</svg>
