<svg width="54" height="42" viewBox="0 0 54 42" fill="none" xmlns="http://www.w3.org/2000/svg">
<g clip-path="url(#clip0_2_6462)">
<path d="M47.9524 32.3682C47.381 32.3682 47 31.9952 47 31.4358V23.9766C47 23.4171 47.381 23.0442 47.9524 23.0442C48.5238 23.0442 48.9048 23.4171 48.9048 23.9766V31.4358C48.9048 31.9952 48.5238 32.3682 47.9524 32.3682Z" fill="white"/>
<path d="M40.3329 15.585C36.1424 15.585 32.7139 12.2284 32.7139 8.12583C32.7139 4.02327 36.1424 0.666626 40.3329 0.666626C44.5234 0.666626 47.952 4.02327 47.952 8.12583C47.952 12.2284 44.5234 15.585 40.3329 15.585ZM40.3329 2.53143C37.1901 2.53143 34.6186 5.04891 34.6186 8.12583C34.6186 11.2028 37.1901 13.7202 40.3329 13.7202C43.4758 13.7202 46.0472 11.2028 46.0472 8.12583C46.0472 5.04891 43.4758 2.53143 40.3329 2.53143Z" fill="white"/>
<path d="M6.04711 32.3682C5.47568 32.3682 5.09473 31.9952 5.09473 31.4358V23.9766C5.09473 23.4171 5.47568 23.0442 6.04711 23.0442C6.61854 23.0442 6.99949 23.4171 6.99949 23.9766V31.4358C6.99949 31.9952 6.61854 32.3682 6.04711 32.3682Z" fill="white"/>
<path d="M13.6659 15.585C9.47545 15.585 6.04688 12.2284 6.04688 8.12583C6.04688 4.02327 9.47545 0.666626 13.6659 0.666626C17.8564 0.666626 21.285 4.02327 21.285 8.12583C21.285 12.2284 17.8564 15.585 13.6659 15.585ZM13.6659 2.53143C10.5231 2.53143 7.95164 5.04891 7.95164 8.12583C7.95164 11.2028 10.5231 13.7202 13.6659 13.7202C16.8088 13.7202 19.3802 11.2028 19.3802 8.12583C19.3802 5.04891 16.8088 2.53143 13.6659 2.53143Z" fill="white"/>
<path d="M1.28539 32.3682C0.71396 32.3682 0.333008 31.9953 0.333008 31.4358V21.6456C0.333008 19.4079 1.76158 17.4498 3.95206 16.7039L7.66634 15.585C8.04729 15.4918 8.33301 15.585 8.61872 15.8647L13.6663 20.8065L18.714 15.8647C18.9997 15.585 19.2854 15.4918 19.6663 15.6783L20.6187 15.958C21.0949 16.1445 21.3806 16.6107 21.2854 17.1701C21.0949 17.6363 20.6187 17.916 20.0473 17.8228L19.6663 17.7295L14.333 22.951C13.9521 23.3239 13.3806 23.3239 12.9997 22.951L7.66634 17.7295L4.52348 18.6619C3.19015 18.9417 2.23777 20.247 2.23777 21.6456V31.4358C2.23777 31.9953 1.85682 32.3682 1.28539 32.3682Z" fill="white"/>
<path d="M52.7141 32.3686C52.1426 32.3686 51.7617 31.9956 51.7617 31.4362V21.6459C51.7617 20.2473 50.8093 18.942 49.476 18.4758L46.3331 17.5434L40.9998 22.7648C40.6188 23.1378 40.0474 23.1378 39.6664 22.7648L34.3331 17.5434L33.9521 17.6366C33.4759 17.8231 32.9045 17.5434 32.714 16.9839C32.5236 16.5177 32.8093 15.9583 33.3807 15.7718L34.3331 15.4921C34.714 15.3989 34.9998 15.4921 35.2855 15.6786L40.3331 20.6203L45.3807 15.6786C45.6664 15.3989 45.9521 15.3056 46.3331 15.3989L50.0474 16.5177C52.2379 17.2637 53.6664 19.2217 53.6664 21.4595V31.4362C53.6664 31.9956 53.2855 32.3686 52.7141 32.3686Z" fill="white"/>
<path d="M39.3803 41.6924C38.8089 41.6924 38.4279 41.3195 38.4279 40.76V30.9698C38.4279 29.5712 37.4755 28.2659 36.1422 27.7997L32.9993 26.8673L27.666 32.0887C27.2851 32.4617 26.7136 32.4617 26.3327 32.0887L20.9993 26.8673L17.8565 27.7997C16.5232 28.2659 15.5708 29.5712 15.5708 30.9698V40.76C15.5708 41.3195 15.1898 41.6924 14.6184 41.6924C14.047 41.6924 13.666 41.3195 13.666 40.76V30.9698C13.666 28.7321 15.0946 26.774 17.2851 26.0281L20.9993 24.9092C21.3803 24.816 21.666 24.9092 21.9517 25.189L26.9993 30.1307L32.047 25.189C32.3327 24.9092 32.6184 24.816 32.9993 24.9092L36.7136 26.0281C38.9041 26.774 40.3327 28.7321 40.3327 30.9698V40.76C40.3327 41.3195 39.9517 41.6924 39.3803 41.6924Z" fill="white"/>
<path d="M34.6184 41.6924C34.047 41.6924 33.666 41.3195 33.666 40.76V33.3008C33.666 32.7414 34.047 32.3684 34.6184 32.3684C35.1898 32.3684 35.5708 32.7414 35.5708 33.3008V40.76C35.5708 41.3195 35.1898 41.6924 34.6184 41.6924Z" fill="white"/>
<path d="M19.3801 41.6924C18.8087 41.6924 18.4277 41.3195 18.4277 40.76V33.3008C18.4277 32.7414 18.8087 32.3684 19.3801 32.3684C19.9515 32.3684 20.3325 32.7414 20.3325 33.3008V40.76C20.3325 41.3195 19.9515 41.6924 19.3801 41.6924Z" fill="white"/>
<path d="M26.9989 24.9093C22.8085 24.9093 19.3799 21.5526 19.3799 17.4501C19.3799 13.3475 22.8085 9.99084 26.9989 9.99084C31.1894 9.99084 34.618 13.3475 34.618 17.4501C34.618 21.5526 31.1894 24.9093 26.9989 24.9093ZM26.9989 11.8556C23.8561 11.8556 21.2846 14.3731 21.2846 17.4501C21.2846 20.527 23.8561 23.0445 26.9989 23.0445C30.1418 23.0445 32.7132 20.527 32.7132 17.4501C32.7132 14.3731 30.1418 11.8556 26.9989 11.8556Z" fill="white"/>
</g>
<defs>
<clipPath id="clip0_2_6462">
<rect width="53.3333" height="41.0256" fill="white" transform="translate(0.333008 0.666626)"/>
</clipPath>
</defs>
</svg>
