<svg width="18" height="17" viewBox="0 0 18 17" fill="none" xmlns="http://www.w3.org/2000/svg">
<path d="M17.0599 15.2451L13.9127 12.1073C14.9281 10.8136 15.4791 9.2162 15.477 7.57168C15.477 6.10711 15.0427 4.67542 14.2291 3.45767C13.4154 2.23992 12.2589 1.2908 10.9058 0.730333C9.5527 0.169865 8.0638 0.0232209 6.62737 0.308945C5.19094 0.59467 3.87149 1.29993 2.83588 2.33554C1.80027 3.37115 1.09501 4.6906 0.809281 6.12703C0.523557 7.56347 0.670201 9.05237 1.23067 10.4055C1.79114 11.7586 2.74026 12.9151 3.95801 13.7287C5.17576 14.5424 6.60744 14.9767 8.07202 14.9767C9.71654 14.9787 11.314 14.4278 12.6076 13.4124L15.7455 16.5595C15.8315 16.6463 15.9339 16.7151 16.0467 16.7621C16.1595 16.8091 16.2805 16.8333 16.4027 16.8333C16.5249 16.8333 16.6458 16.8091 16.7586 16.7621C16.8714 16.7151 16.9738 16.6463 17.0599 16.5595C17.1466 16.4735 17.2155 16.3711 17.2625 16.2583C17.3095 16.1455 17.3337 16.0245 17.3337 15.9023C17.3337 15.7801 17.3095 15.6592 17.2625 15.5464C17.2155 15.4336 17.1466 15.3312 17.0599 15.2451V15.2451ZM2.51825 7.57168C2.51825 6.47325 2.84397 5.39949 3.45423 4.48617C4.06448 3.57286 4.93186 2.86102 5.94668 2.44067C6.9615 2.02032 8.07818 1.91034 9.1555 2.12463C10.2328 2.33892 11.2224 2.86787 11.9991 3.64458C12.7758 4.42128 13.3048 5.41087 13.5191 6.4882C13.7334 7.56552 13.6234 8.6822 13.203 9.69702C12.7827 10.7118 12.0708 11.5792 11.1575 12.1895C10.2442 12.7997 9.17045 13.1254 8.07202 13.1254C6.59907 13.1254 5.18644 12.5403 4.14491 11.4988C3.10338 10.4573 2.51825 9.04463 2.51825 7.57168Z" fill="white"/>
</svg>
