<svg width="52" height="52" viewBox="0 0 52 52" fill="none" xmlns="http://www.w3.org/2000/svg">
<g clip-path="url(#clip0_2_5529)">
<path d="M48.8406 7.89779L41.7634 0.820792C41.3189 0.376392 40.728 0.131592 40.0994 0.131592H10.3024C9.00495 0.131592 7.94925 1.18729 7.94925 2.48479V25.7832H6.29445C4.55485 25.7832 3.13965 27.1985 3.13965 28.938V43.367C3.13965 45.1066 4.55485 46.5219 6.29445 46.5219H35.9541C37.2517 46.5219 38.3073 45.4662 38.3073 44.1687V32.9462C38.3073 31.6486 37.2516 30.5929 35.9541 30.5929H6.29445C5.38195 30.5929 4.63965 29.8506 4.63965 28.9381C4.63965 28.0256 5.38195 27.2833 6.29445 27.2833H7.94925V28.1368C7.94925 28.551 8.28505 28.8868 8.69924 28.8868C9.11344 28.8868 9.44924 28.551 9.44924 28.1368V2.48479C9.44924 2.01429 9.83205 1.63159 10.3024 1.63159H39.2121V8.89769C39.2121 9.75329 39.9081 10.4494 40.7637 10.4494H48.0298V48.9784C48.0298 49.4489 47.647 49.8316 47.1766 49.8316H10.3024C9.83195 49.8316 9.44924 49.4489 9.44924 48.9784C9.44924 48.5642 9.11344 48.2284 8.69924 48.2284C8.28505 48.2284 7.94925 48.5642 7.94925 48.9784C7.94925 50.276 9.00495 51.3316 10.3024 51.3316H47.1766C48.4742 51.3316 49.5298 50.2759 49.5298 48.9784V9.56179C49.5299 8.93329 49.2851 8.34229 48.8406 7.89779V7.89779ZM6.29445 32.0929H35.9541C36.4246 32.0929 36.8073 32.4757 36.8073 32.9462V44.1688C36.8073 44.6393 36.4245 45.022 35.9541 45.022H6.29445C5.38195 45.022 4.63965 44.2796 4.63965 43.3671V31.6231C5.12095 31.921 5.68795 32.0929 6.29445 32.0929ZM40.7121 8.89769V1.89089L47.7708 8.94939H40.7637C40.7353 8.94939 40.7121 8.92619 40.7121 8.89769Z" fill="#00ADBB"/>
<path d="M19.9219 26.4816H37.5573C37.9715 26.4816 38.3073 26.1458 38.3073 25.7316C38.3073 25.3174 37.9715 24.9816 37.5573 24.9816H19.9219C19.5077 24.9816 19.1719 25.3174 19.1719 25.7316C19.1719 26.1458 19.5077 26.4816 19.9219 26.4816Z" fill="#00ADBB"/>
<path d="M19.9219 22.4735H37.5573C37.9715 22.4735 38.3073 22.1377 38.3073 21.7235C38.3073 21.3093 37.9715 20.9735 37.5573 20.9735H19.9219C19.5077 20.9735 19.1719 21.3093 19.1719 21.7235C19.1719 22.1377 19.5077 22.4735 19.9219 22.4735Z" fill="#00ADBB"/>
<path d="M31.1445 18.4655H37.5574C37.9716 18.4655 38.3074 18.1297 38.3074 17.7155C38.3074 17.3012 37.9716 16.9655 37.5574 16.9655H31.1445C30.7303 16.9655 30.3945 17.3012 30.3945 17.7155C30.3945 18.1296 30.7303 18.4655 31.1445 18.4655Z" fill="#00ADBB"/>
<path d="M31.1445 14.4573H37.5574C37.9716 14.4573 38.3074 14.1216 38.3074 13.7073C38.3074 13.2931 37.9716 12.9573 37.5574 12.9573H31.1445C30.7303 12.9573 30.3945 13.2931 30.3945 13.7073C30.3945 14.1215 30.7303 14.4573 31.1445 14.4573Z" fill="#00ADBB"/>
<path d="M29.8444 42.6428C30.7423 42.6428 31.5479 42.3481 32.1738 41.7906C32.2964 41.6813 32.413 41.5611 32.5203 41.4332C32.7865 41.1158 32.745 40.6428 32.4276 40.3766C32.1102 40.1104 31.6371 40.1519 31.371 40.4693C31.3103 40.5418 31.2447 40.6094 31.1761 40.6705C30.8242 40.9839 30.3761 41.1429 29.8443 41.1429C28.4187 41.1429 27.2589 39.9831 27.2589 38.5574C27.2589 37.1318 28.4187 35.972 29.8443 35.972C30.3625 35.972 30.8622 36.1245 31.2893 36.4131C31.6326 36.6449 32.0988 36.5547 32.3306 36.2115C32.5625 35.8682 32.4723 35.402 32.129 35.1701C31.4529 34.7133 30.6629 34.4719 29.8442 34.4719C27.5915 34.4719 25.7588 36.3046 25.7588 38.5573C25.7588 40.81 27.5916 42.6428 29.8444 42.6428V42.6428Z" fill="#00ADBB"/>
<path d="M20.316 42.6428C22.5687 42.6428 24.4014 40.81 24.4014 38.5573C24.4014 36.3046 22.5687 34.4719 20.316 34.4719C18.0633 34.4719 16.2305 36.3046 16.2305 38.5573C16.2305 40.81 18.0633 42.6428 20.316 42.6428V42.6428ZM20.316 35.9718C21.7416 35.9718 22.9014 37.1317 22.9014 38.5572C22.9014 39.9829 21.7416 41.1427 20.316 41.1427C18.8904 41.1427 17.7305 39.9829 17.7305 38.5572C17.7305 37.1317 18.8904 35.9718 20.316 35.9718V35.9718Z" fill="#00ADBB"/>
<path d="M20.7235 18.4656H26.3348C27.1904 18.4656 27.8864 17.7695 27.8864 16.9139V14.5091C27.8864 13.6535 27.1904 12.9574 26.3348 12.9574H20.7235C19.8679 12.9574 19.1719 13.6535 19.1719 14.5091V16.9139C19.1719 17.7695 19.868 18.4656 20.7235 18.4656ZM20.6719 14.5091C20.6719 14.4806 20.695 14.4574 20.7235 14.4574H26.3348C26.3633 14.4574 26.3864 14.4805 26.3864 14.5091V16.9139C26.3864 16.9424 26.3633 16.9656 26.3348 16.9656H20.7235C20.695 16.9656 20.6719 16.9425 20.6719 16.9139V14.5091Z" fill="#00ADBB"/>
<path d="M8.76408 41.7971C8.76478 41.996 8.84458 42.1866 8.98568 42.3267C9.12618 42.4662 9.31618 42.5444 9.51408 42.5444H9.51688C9.57228 42.5442 10.8792 42.5392 11.4011 42.53C13.3118 42.4966 14.6986 40.826 14.6986 38.5575C14.6986 36.1729 13.3466 34.5707 11.3344 34.5707H9.50098C9.30178 34.5707 9.11088 34.6499 8.97018 34.7909C8.82948 34.9318 8.75058 35.1229 8.75098 35.3221C8.75098 35.3221 8.75568 37.8122 8.75568 38.5503C8.75568 39.4504 8.76408 41.7971 8.76408 41.7971ZM11.3345 36.0708C12.709 36.0708 13.1987 37.3555 13.1987 38.5576C13.1987 40.2437 12.2827 41.0144 11.375 41.0303C11.1203 41.0347 10.6606 41.0383 10.2616 41.0407C10.2591 40.275 10.2557 39.1212 10.2557 38.5505C10.2557 38.0738 10.2537 36.8671 10.2524 36.0708H11.3345Z" fill="#00ADBB"/>
</g>
<defs>
<clipPath id="clip0_2_5529">
<rect width="51.2" height="51.2" fill="white" transform="translate(0.734375 0.131592)"/>
</clipPath>
</defs>
</svg>
