<svg width="26" height="26" viewBox="0 0 26 26" fill="none" xmlns="http://www.w3.org/2000/svg">
<g clip-path="url(#clip0_2_2282)">
<path d="M24.2528 3.94902L20.7142 0.410518C20.492 0.188318 20.1965 0.065918 19.8822 0.065918H4.98374C4.33499 0.065918 3.80714 0.593768 3.80714 1.24252V12.8917H2.97974C2.10994 12.8917 1.40234 13.5994 1.40234 14.4691V21.6836C1.40234 22.5534 2.10994 23.2611 2.97974 23.2611H17.8096C18.4584 23.2611 18.9862 22.7332 18.9862 22.0845V16.4732C18.9862 15.8244 18.4583 15.2966 17.8096 15.2966H2.97974C2.52349 15.2966 2.15234 14.9254 2.15234 14.4692C2.15234 14.0129 2.52349 13.6418 2.97974 13.6418H3.80714V14.0685C3.80714 14.2756 3.97504 14.4435 4.18214 14.4435C4.38924 14.4435 4.55714 14.2756 4.55714 14.0685V1.24252C4.55714 1.00727 4.74854 0.815918 4.98374 0.815918H19.4386V4.44897C19.4386 4.87677 19.7866 5.22482 20.2144 5.22482H23.8474V24.4893C23.8474 24.7246 23.656 24.9159 23.4208 24.9159H4.98374C4.74849 24.9159 4.55714 24.7246 4.55714 24.4893C4.55714 24.2822 4.38924 24.1143 4.18214 24.1143C3.97504 24.1143 3.80714 24.2822 3.80714 24.4893C3.80714 25.1381 4.33499 25.6659 4.98374 25.6659H23.4208C24.0696 25.6659 24.5974 25.1381 24.5974 24.4893V4.78102C24.5975 4.46677 24.4751 4.17127 24.2528 3.94902V3.94902ZM2.97974 16.0466H17.8096C18.0448 16.0466 18.2362 16.238 18.2362 16.4732V22.0845C18.2362 22.3198 18.0448 22.5111 17.8096 22.5111H2.97974C2.52349 22.5111 2.15234 22.1399 2.15234 21.6837V15.8117C2.39299 15.9606 2.67649 16.0466 2.97974 16.0466ZM20.1886 4.44897V0.945568L23.7179 4.47482H20.2144C20.2002 4.47482 20.1886 4.46322 20.1886 4.44897Z" fill="#999999"/>
<path d="M9.79297 13.241H18.6107C18.8178 13.241 18.9857 13.0731 18.9857 12.866C18.9857 12.6589 18.8178 12.491 18.6107 12.491H9.79297C9.58587 12.491 9.41797 12.6589 9.41797 12.866C9.41797 13.0731 9.58587 13.241 9.79297 13.241Z" fill="#999999"/>
<path d="M9.79297 11.2368H18.6107C18.8178 11.2368 18.9857 11.0689 18.9857 10.8618C18.9857 10.6547 18.8178 10.4868 18.6107 10.4868H9.79297C9.58587 10.4868 9.41797 10.6547 9.41797 10.8618C9.41797 11.0689 9.58587 11.2368 9.79297 11.2368Z" fill="#999999"/>
<path d="M15.4043 9.23291H18.6107C18.8178 9.23291 18.9857 9.06501 18.9857 8.85791C18.9857 8.65076 18.8178 8.48291 18.6107 8.48291H15.4043C15.1972 8.48291 15.0293 8.65076 15.0293 8.85791C15.0293 9.06496 15.1972 9.23291 15.4043 9.23291Z" fill="#999999"/>
<path d="M15.4043 7.22876H18.6107C18.8178 7.22876 18.9857 7.06091 18.9857 6.85376C18.9857 6.64666 18.8178 6.47876 18.6107 6.47876H15.4043C15.1972 6.47876 15.0293 6.64666 15.0293 6.85376C15.0293 7.06086 15.1972 7.22876 15.4043 7.22876Z" fill="#999999"/>
<path d="M14.7547 21.3215C15.2037 21.3215 15.6065 21.1742 15.9194 20.8954C15.9807 20.8408 16.039 20.7807 16.0927 20.7167C16.2258 20.558 16.205 20.3215 16.0463 20.1884C15.8876 20.0553 15.6511 20.0761 15.518 20.2348C15.4877 20.271 15.4549 20.3048 15.4206 20.3354C15.2446 20.4921 15.0206 20.5716 14.7547 20.5716C14.0419 20.5716 13.462 19.9917 13.462 19.2788C13.462 18.566 14.0419 17.9861 14.7547 17.9861C15.0138 17.9861 15.2636 18.0624 15.4772 18.2067C15.6488 18.3226 15.8819 18.2775 15.9978 18.1059C16.1138 17.9342 16.0687 17.7011 15.897 17.5852C15.559 17.3568 15.164 17.2361 14.7546 17.2361C13.6283 17.2361 12.7119 18.1524 12.7119 19.2788C12.7119 20.4051 13.6283 21.3215 14.7547 21.3215V21.3215Z" fill="#999999"/>
<path d="M9.99099 21.3215C11.1173 21.3215 12.0337 20.4051 12.0337 19.2788C12.0337 18.1524 11.1173 17.2361 9.99099 17.2361C8.86464 17.2361 7.94824 18.1524 7.94824 19.2788C7.94824 20.4051 8.86464 21.3215 9.99099 21.3215V21.3215ZM9.99099 17.986C10.7038 17.986 11.2837 18.566 11.2837 19.2787C11.2837 19.9916 10.7038 20.5715 9.99099 20.5715C9.27819 20.5715 8.69824 19.9916 8.69824 19.2787C8.69824 18.566 9.27819 17.986 9.99099 17.986V17.986Z" fill="#999999"/>
<path d="M10.1938 9.23286H12.9994C13.4272 9.23286 13.7752 8.88481 13.7752 8.45701V7.25461C13.7752 6.82681 13.4272 6.47876 12.9994 6.47876H10.1938C9.76597 6.47876 9.41797 6.82681 9.41797 7.25461V8.45701C9.41797 8.88481 9.76602 9.23286 10.1938 9.23286ZM10.168 7.25461C10.168 7.24036 10.1795 7.22876 10.1938 7.22876H12.9994C13.0137 7.22876 13.0252 7.24031 13.0252 7.25461V8.45701C13.0252 8.47126 13.0137 8.48286 12.9994 8.48286H10.1938C10.1795 8.48286 10.168 8.47131 10.168 8.45701V7.25461Z" fill="#999999"/>
<path d="M4.21456 20.8986C4.21491 20.998 4.25481 21.0933 4.32536 21.1634C4.39561 21.2331 4.49061 21.2722 4.58956 21.2722H4.59096C4.61866 21.2721 5.27211 21.2696 5.53306 21.265C6.4884 21.2483 7.1818 20.413 7.1818 19.2788C7.1818 18.0865 6.5058 17.2854 5.49971 17.2854H4.58301C4.48341 17.2854 4.38796 17.325 4.31761 17.3955C4.24726 17.466 4.20781 17.5615 4.20801 17.6611C4.20801 17.6611 4.21036 18.9061 4.21036 19.2752C4.21036 19.7252 4.21456 20.8986 4.21456 20.8986ZM5.49976 18.0355C6.187 18.0355 6.43185 18.6778 6.43185 19.2788C6.43185 20.1219 5.97385 20.5072 5.52001 20.5152C5.39266 20.5174 5.16281 20.5192 4.96331 20.5204C4.96206 20.1375 4.96036 19.5606 4.96036 19.2753C4.96036 19.037 4.95936 18.4336 4.95871 18.0355H5.49976Z" fill="#999999"/>
</g>
<defs>
<clipPath id="clip0_2_2282">
<rect width="25.6" height="25.6" fill="white" transform="translate(0.200195 0.065918)"/>
</clipPath>
</defs>
</svg>
